<svg xmlns="http://www.w3.org/2000/svg" viewBox="0 0 312.9 250.3"><defs><style>.cls-1{fill:#353030;}.cls-2{fill:#3d3a3a;}.cls-3{fill:#cdcdcd;}.cls-4{fill:#b4b4b4;}.cls-5{fill:#3f3f3f;}.cls-6{fill:#2b2828;}</style></defs><g id="Layer_2" data-name="Layer 2"><g id="Layer_4" data-name="Layer 4"><polygon class="cls-1" points="209.7 40.1 106.4 99.7 3.2 159.3 106.4 219 209.7 159.3 312.9 99.7 209.7 40.1"/><path class="cls-1" d="M3.2,174.5V118.1a5.7,5.7,0,0,1,2.9-5L97.7,60.2a5.8,5.8,0,0,1,8.7,5v49.6Z"/><path class="cls-1" d="M106.4,114.8V58.7a5.7,5.7,0,0,1,2.9-5L200.9.8a5.9,5.9,0,0,1,8.8,5.1V55.2Z"/><path class="cls-2" d="M204.3,43.2,122.5,90.5a10.6,10.6,0,0,0,0,18.5l81.8,47.3a10.8,10.8,0,0,0,10.7,0L296.8,109a10.6,10.6,0,0,0,0-18.5L215,43.2A10.8,10.8,0,0,0,204.3,43.2Z"/><polygon class="cls-3" points="3.2 191.5 6.3 193.3 6.3 176.3 3.2 174.5 3.2 191.5"/><polygon class="cls-4" points="9.5 174.5 6.3 176.3 6.3 193.3 9.5 191.5 9.5 174.5"/><path class="cls-2" d="M19.8,149.7l81.1-46.8a11.3,11.3,0,0,1,11,0L193,149.7a11.1,11.1,0,0,1,0,19.2l-81.1,46.9a11.3,11.3,0,0,1-11,0L19.8,168.9A11.1,11.1,0,0,1,19.8,149.7Z"/><path class="cls-5" d="M106.4,234.1,3.2,174.5V124.3a5.5,5.5,0,0,1,8.2-4.8l92.2,53a5.4,5.4,0,0,1,2.8,4.8Z"/><polygon class="cls-3" points="100.1 248.4 103.2 250.2 103.2 233.3 100.1 231.5 100.1 248.4"/><polygon class="cls-4" points="106.4 231.4 103.2 233.3 103.2 250.3 106.4 248.4 106.4 231.4"/><path class="cls-5" d="M103.2,235.6,0,176V125.8a5.5,5.5,0,0,1,8.2-4.7l92.3,53a5.5,5.5,0,0,1,2.7,4.7Z"/><polygon class="cls-3" points="304.9 132.6 308.1 134.4 308.1 117.4 304.9 115.6 304.9 132.6"/><polygon class="cls-4" points="311.3 115.5 308.1 117.4 308.1 134.4 311.3 132.6 311.3 115.5"/><polygon class="cls-6" points="106.4 219 312.9 99.7 312.9 114.8 106.4 234.1 106.4 219"/><polygon class="cls-5" points="106.4 234.1 103.2 235.6 103.2 178.8 106.4 177.3 106.4 234.1"/></g></g></svg>