<svg xmlns="http://www.w3.org/2000/svg" xmlns:xlink="http://www.w3.org/1999/xlink" viewBox="0 0 1247.9 3600"><defs><style>.cls-1{isolation:isolate;}.cls-2{mix-blend-mode:color;}.cls-3{opacity:0.5;}.cls-4{mix-blend-mode:multiply;opacity:0.65;}.cls-5{fill:#b4aeaa;}.cls-6{fill:#e9f0f3;}.cls-7{fill:#f0e8e2;}.cls-8{fill:#d8e0e5;}.cls-9{fill:#c4d0d8;}.cls-10{fill:#878380;}.cls-11{fill:#a6c2cd;}.cls-12{fill:#b3b3b3;}.cls-13,.cls-42{fill:gray;}.cls-14{fill:#666;}.cls-15{fill:#303030;}.cls-16{fill:#b3e1e5;}.cls-17{fill:#8baeb3;}.cls-18{fill:#d5f1f5;}.cls-19{fill:#b9e8ef;}.cls-20{fill:#e1f3f5;}.cls-21{fill:#353030;}.cls-22{fill:#3d3a3a;}.cls-23{fill:#cdcdcd;}.cls-24{fill:#b4b4b4;}.cls-25{fill:#3f3f3f;}.cls-26{fill:#2b2828;}.cls-27{fill:#ebebeb;}.cls-28{fill:#fff;}.cls-29{fill:#cbcbcb;}.cls-30{fill:#d8d8d8;}.cls-31,.cls-32{fill:none;stroke:#b0b0b0;stroke-miterlimit:10;}.cls-31,.cls-32,.cls-42,.cls-62{stroke-linecap:round;}.cls-31{stroke-width:0.75px;}.cls-32,.cls-42{stroke-width:2px;}.cls-33{fill:#d1d1d1;}.cls-34{fill:#e8e8e8;}.cls-35{fill:#ceab89;}.cls-36{fill:#aaaaa9;}.cls-37{fill:#999997;}.cls-38{fill:#adadac;}.cls-39{fill:#c1c1c1;}.cls-40{fill:#efefef;}.cls-41{fill:#f0f0f0;}.cls-42{stroke:#686868;}.cls-42,.cls-62{stroke-linejoin:round;}.cls-43{fill:#595959;}.cls-44{fill:#f9f9f9;}.cls-45{fill:#2b2727;}.cls-46{fill:#20201d;}.cls-47{fill:#9d9d9d;}.cls-48{fill:#696969;}.cls-49{fill:#b3b3b1;}.cls-50{fill:#cccccb;}.cls-51{fill:#e0e0e0;}.cls-52{fill:#999998;}.cls-53{fill:#737372;}.cls-54{fill:#d6b79d;}.cls-55{fill:#b28d6f;}.cls-56{fill:#181818;}.cls-57{fill:#0c0c0c;}.cls-58{fill:#242424;}.cls-59{fill:#60605e;}.cls-60{fill:#e0b899;}.cls-61{fill:#f4dac4;}.cls-62,.cls-63{fill:#131111;}.cls-62{stroke:#131111;stroke-width:1.1px;}.cls-64{fill:#ccc0b4;}.cls-65{fill:#d0c3b5;}.cls-66{fill:#bfb0a1;}.cls-67{mix-blend-mode:overlay;opacity:0.92;fill:url(#Orange_Yellow);}</style><linearGradient id="Orange_Yellow" x1="303.93" y1="794.79" x2="1091.66" y2="288.89" gradientUnits="userSpaceOnUse"><stop offset="0" stop-color="#fff33b"/><stop offset="0.04" stop-color="#fee72e"/><stop offset="0.12" stop-color="#fed51b"/><stop offset="0.2" stop-color="#fdca10"/><stop offset="0.28" stop-color="#fdc70c"/><stop offset="0.67" stop-color="#f3903f"/><stop offset="0.89" stop-color="#ed683c"/><stop offset="1" stop-color="#e93e3a"/></linearGradient></defs><g class="cls-1"><g id="room-base"><polygon class="cls-5" points="154.5 821 154.5 840.3 585.8 1090.1 585.8 1071.6 154.5 821"/><polygon class="cls-6" points="1120.7 322.2 1105.4 331 689.7 90.9 169.8 391.1 154.3 382.1 689.7 72.7 1120.7 322.2"/><polygon class="cls-7" points="169.5 830.9 689.8 530.8 1105.7 771.4 585.8 1071.6 169.5 830.9"/><polygon class="cls-8" points="169.8 391.1 689.7 90.9 689.7 531.5 169.8 831.4 169.8 391.1"/><polygon class="cls-9" points="1105.7 331.1 1105.7 771.4 690 531.3 689.7 90.9 1105.7 331.1"/><polygon class="cls-10" points="585.8 1090.1 1123.3 781.6 1122.4 761.7 585.8 1071.6 585.8 1090.1"/><polygon class="cls-11" points="169.8 831.4 154.5 822.6 154.3 382.1 169.8 391.1 169.8 831.4"/><polygon class="cls-11" points="1105.7 331.1 1121 322.2 1122.4 761.7 1105.7 771.4 1105.7 331.1"/><polygon class="cls-12" points="713.6 874.4 713.6 869.9 720.5 873.8 720.5 878.4 713.6 874.4"/><polygon class="cls-13" points="741 854 761.6 842.1 768.5 846.1 747.9 858 768.5 869.9 761.6 873.8 741 862 720.5 873.8 713.6 869.9 734.2 858 713.6 846.1 720.5 842.1 741 854"/><polygon class="cls-14" points="720.5 878.4 720.5 873.8 741 862 761.6 873.8 761.6 878.4 741 866.5 720.5 878.4"/><polygon class="cls-15" points="761.6 878.4 761.6 873.8 768.5 869.9 768.5 874.4 761.6 878.4"/><polygon class="cls-12" points="713.6 850.7 713.6 846.1 734.2 858 730.3 860.3 713.6 850.7"/><polygon class="cls-15" points="751.8 860.2 747.9 858 768.5 846.1 768.5 850.7 751.8 860.2"/><polygon class="cls-14" points="734.2 858 734.2 818.7 741 822.3 741 862 734.2 858"/><polygon class="cls-15" points="747.9 858 747.9 818.7 741 822.3 741 862 747.9 858"/><polygon class="cls-16" points="707.6 814.6 748.8 790.8 790 814.6 748.8 838.4 707.6 814.6"/><polygon class="cls-17" points="748.8 846.3 748.8 838.4 790 814.6 790 822.5 748.8 846.3"/><polygon class="cls-18" points="700.8 818.6 707.6 814.6 748.8 838.4 748.8 846.3 700.8 818.6"/><polygon class="cls-19" points="707.6 814.6 707.6 759.1 748.8 735.2 748.8 790.8 707.6 814.6"/><polygon class="cls-20" points="707.6 814.6 707.6 759.1 700.8 755.1 700.8 818.6 707.6 814.6"/><polygon class="cls-18" points="741.9 731.3 748.8 735.2 707.6 759.1 700.8 755.1 741.9 731.3"/><polygon class="cls-21" points="420.3 660.9 317.1 720.5 213.8 780.1 317.1 839.7 420.3 780.1 523.6 720.5 420.3 660.9"/><path class="cls-21" d="M213.8,795.2V738.9a6.1,6.1,0,0,1,3-5.1l91.5-52.9a5.9,5.9,0,0,1,8.8,5.1v49.6Z"/><path class="cls-21" d="M317.1,735.6V679.5a6,6,0,0,1,2.9-5.1l91.6-52.9a5.8,5.8,0,0,1,8.7,5.1V676Z"/><path class="cls-22" d="M415,664l-81.8,47.2a10.7,10.7,0,0,0,0,18.6L415,777a10.8,10.8,0,0,0,10.7,0l81.8-47.2a10.7,10.7,0,0,0,0-18.6L425.7,664A10.8,10.8,0,0,0,415,664Z"/><polygon class="cls-23" points="213.8 812.2 217 814 217 797.1 213.8 795.3 213.8 812.2"/><polygon class="cls-24" points="220.2 795.2 217 797.1 217 814.1 220.2 812.2 220.2 795.2"/><path class="cls-22" d="M230.5,770.5l81.1-46.8a10.8,10.8,0,0,1,11,0l81.1,46.8a11.1,11.1,0,0,1,0,19.2l-81.1,46.8a10.8,10.8,0,0,1-11,0l-81.1-46.8A11.1,11.1,0,0,1,230.5,770.5Z"/><path class="cls-25" d="M317.1,854.8,213.8,795.2V745a5.6,5.6,0,0,1,8.3-4.8l92.2,53.1a5.4,5.4,0,0,1,2.8,4.7Z"/><polygon class="cls-23" points="310.8 869.2 313.9 871 313.9 854 310.8 852.2 310.8 869.2"/><polygon class="cls-24" points="317.1 852.2 313.9 854 313.9 871 317.1 869.2 317.1 852.2"/><path class="cls-25" d="M313.9,856.4,210.7,796.8V746.6a5.5,5.5,0,0,1,8.2-4.8l92.3,53a5.5,5.5,0,0,1,2.7,4.8Z"/><polygon class="cls-23" points="515.6 753.3 518.8 755.1 518.8 738.1 515.6 736.3 515.6 753.3"/><polygon class="cls-24" points="522 736.3 518.8 738.1 518.8 755.2 522 753.3 522 736.3"/><polygon class="cls-26" points="317.1 839.7 523.6 720.5 523.6 735.6 317.1 854.8 317.1 839.7"/><polygon class="cls-25" points="317.1 854.8 313.9 856.4 313.9 799.6 317.1 798 317.1 854.8"/><polygon class="cls-27" points="633.8 443.3 689.5 411.1 759.1 450.9 759.1 579.5 703.4 611.7 633.8 571.9 633.8 443.3"/><polygon class="cls-28" points="703.4 611.7 703.4 483.5 633.8 443.3 633.8 571.9 703.4 611.7"/><polygon class="cls-29" points="645.9 482.5 645.9 533.6 640.9 530.8 641 479.6 645.9 482.5"/><polygon class="cls-30" points="703.4 483.5 759.1 450.9 759.1 579.5 703.4 611.7 703.4 483.5"/><polyline class="cls-31" points="709.9 608.4 709.9 479.8 640.1 439.8"/><polyline class="cls-32" points="709.9 533 703.4 536.5 633.8 496.3"/><polygon class="cls-33" points="714.6 568.2 846.1 644.5 911.8 606.5 780.3 530.3 714.6 568.2"/><polygon class="cls-34" points="714.6 564.8 911.8 678.7 977.5 640.7 780.3 526.8 714.6 564.8"/><polygon class="cls-35" points="716.5 622.8 716.5 565.8 911.8 678.7 911.8 735.6 716.5 622.8"/><polygon class="cls-36" points="760.4 572.2 813 602.8 846.1 583.8 793.5 553.3 760.4 572.2"/><polygon class="cls-37" points="771.2 578.4 813.1 602.8 835.1 589.9 793.2 565.5 771.2 578.4"/><polygon class="cls-38" points="805.2 558.4 833.4 574.8 840.5 570.7 812.3 554.3 805.2 558.4"/><polygon class="cls-39" points="911.8 678.7 977.5 640.7 977.5 697.6 911.8 735.6 911.8 678.7"/><polygon class="cls-40" points="714.6 564.8 714.6 568.2 846.1 644.5 846.1 640.7 714.6 564.8"/><polygon class="cls-41" points="846.1 640.7 911.8 602.8 977.5 640.7 911.8 678.7 846.1 640.7"/><polygon class="cls-28" points="846.1 640.7 846.1 697.6 911.8 735.6 911.8 678.7 846.1 640.7"/><polygon class="cls-42" points="857.9 660.6 857.9 687.6 900 711.9 900 684.9 857.9 660.6"/><ellipse class="cls-43" cx="911.8" cy="659.7" rx="13" ry="7.8"/><ellipse class="cls-43" cx="941.8" cy="643.5" rx="13" ry="7.8"/><ellipse class="cls-43" cx="878.9" cy="640.7" rx="13" ry="7.8"/><ellipse class="cls-43" cx="909" cy="624.6" rx="13" ry="7.8"/><polygon class="cls-44" points="911.8 602.8 911.8 587.6 977.5 625.5 977.5 640.7 911.8 602.8"/><polygon class="cls-45" points="909 604.6 909 589.4 974.7 627.4 974.7 642.6 909 604.6"/><polygon points="977.5 625.5 974.7 627.4 974.7 642.6 977.5 640.7 977.5 625.5"/><polygon class="cls-46" points="909 589.4 911.8 587.6 977.5 625.5 974.7 627.4 909 589.4"/><polygon class="cls-47" points="854.1 655.8 849.1 658.7 898.7 687.4 903.7 684.5 902.2 683.6 898.7 685.5 852.2 658.6 855.4 656.6 854.1 655.8"/><polygon class="cls-47" points="854.1 658.1 849.1 661 898.7 689.7 903.7 686.8 902.2 685.9 898.7 687.8 852.2 660.9 855.4 658.9 854.1 658.1"/><polygon class="cls-33" points="849.1 661 849.1 658.7 898.7 687.4 898.7 689.7 849.1 661"/><polygon class="cls-48" points="903.7 684.5 903.7 686.8 898.7 689.7 898.7 687.4 903.7 684.5"/><polygon class="cls-48" points="855.4 658.9 855.4 656.6 852.2 658.6 854.1 659.7 855.4 658.9"/><polygon class="cls-49" points="793.5 553.3 793.2 565.5 835.1 589.9 846.1 583.8 793.5 553.3"/><polygon class="cls-50" points="821 544.5 822.6 545.3 810.8 552.1 809.2 551.3 821 544.5"/><polyline class="cls-51" points="810.8 553 810.8 552.1 809.2 551.3 809.2 552.2 810.8 553"/><polygon class="cls-52" points="821.2 546.1 822.6 545.3 822.6 564.7 821.2 565.5 821.2 546.1"/><polygon class="cls-52" points="810.8 552.1 810.8 553 821.2 547 821.2 546.1 810.8 552.1"/><polygon class="cls-53" points="819.6 548 821.2 547 821.2 565.5 819.6 564.7 819.6 548"/><path class="cls-22" d="M442.2,975.8l49.9-28.7a4.3,4.3,0,0,1,4.4,0l87.1,50.5a4.4,4.4,0,0,1,0,7.6l-49.2,28.6a4.3,4.3,0,0,1-4.4,0l-87.8-50.4A4.3,4.3,0,0,1,442.2,975.8Z"/><polygon points="724.2 847.6 720.2 849.9 720.2 909.2 724.2 906.9 724.2 847.6"/><polygon class="cls-15" points="716.3 906.9 716.3 847.6 720.2 849.9 720.2 909.2 716.3 906.9"/><polygon points="797.3 889.8 793.3 892.1 793.3 951.4 797.3 949.1 797.3 889.8"/><polygon class="cls-15" points="789.4 949.1 789.4 889.8 793.3 892.1 793.3 951.4 789.4 949.1"/><polygon points="921.7 818.1 917.7 820.4 917.7 879.6 921.7 877.4 921.7 818.1"/><polygon class="cls-15" points="913.8 877.4 913.8 818.1 917.7 820.4 917.7 879.6 913.8 877.4"/><polygon class="cls-35" points="716.3 847.6 844.7 773.5 921.5 818.1 793.3 892.1 716.3 847.6"/><polygon class="cls-35" points="716.3 842.8 844.7 768.7 921.5 813.3 793.3 887.3 716.3 842.8"/><polygon class="cls-54" points="716.3 847.6 716.3 842.8 793.3 887.3 793.3 892.1 716.3 847.6"/><polygon class="cls-55" points="921.5 813.3 921.5 818.1 793.3 892.1 793.3 887.3 921.5 813.3"/><path class="cls-19" d="M734.2,838.7,807.3,796a6.3,6.3,0,0,1,6.5,0l22.6,13a6.5,6.5,0,0,1,0,11.2l-68.1,39.9a6.6,6.6,0,0,1-6.4,0l-27.7-16A3.1,3.1,0,0,1,734.2,838.7Z"/><path class="cls-28" d="M823.2,801.4l22.9,13.2L768.4,860a6.5,6.5,0,0,1-6.6,0l-19.5-11.3Z"/><polygon class="cls-15" points="805.8 817.1 878.2 775.2 878.2 817.1 805.8 858.9 805.8 817.1"/><polygon class="cls-56" points="817.2 821.2 875.2 787.8 875.2 821.2 817.2 854.7 817.2 821.2"/><polygon class="cls-57" points="830.9 851.8 847.3 842.4 855.5 847.1 839.3 856.5 830.9 851.8"/><polygon class="cls-57" points="830.9 852.4 847.3 842.9 855.5 847.7 839.3 857.1 830.9 852.4"/><polygon class="cls-58" points="840.7 853.1 840.7 838.8 850 833.4 850 847.7 840.7 853.1"/><polygon class="cls-15" points="805.8 817.1 817.2 821.2 875.2 787.8 878.2 775.2 805.8 817.1"/><polygon class="cls-43" points="817.2 854.7 805.8 858.9 805.8 817.1 817.2 821.2 817.2 854.7"/><polygon class="cls-57" points="875.2 787.8 878.2 775.2 878.2 817.1 875.2 821.2 875.2 787.8"/><polygon class="cls-58" points="830.9 851.8 830.9 852.4 839.3 857.1 839.3 856.5 830.9 851.8"/><polygon points="839.3 856.5 855.5 847.1 855.5 847.7 839.3 857.1 839.3 856.5"/></g><g id="log-stand"><ellipse class="cls-59" cx="797" cy="577.2" rx="3.4" ry="2"/><rect class="cls-60" x="802.2" y="606.9" width="13.2" height="17.33" rx="6.6"/><path class="cls-61" d="M830.7,593.9c7.6,7.1-1.2,22.1-16.4,22.1s-28.7-8.2-28.7-23.3,4.9-28.1,20-28.1h.7C821.1,564.9,830.7,579,830.7,593.9Z"/><path class="cls-62" d="M808.8,573.5c-21.4,23.4-13.3,42.8-13.3,42.8s-13.5-11.2-8.9-38.7C789.4,561.3,808.8,573.5,808.8,573.5Z"/><path class="cls-62" d="M818.3,572.4s19.5,11.8,14,28.7C832.3,601.1,846.8,582,818.3,572.4Z"/><g class="cls-1"><path class="cls-63" d="M832.9,582.6l.8.5a1.1,1.1,0,0,1,.4.5,4.6,4.6,0,0,1,.3,2,15.3,15.3,0,0,1-1.7,6.9l-.8-.4a16.2,16.2,0,0,0,1.8-7,4.6,4.6,0,0,0-.4-2A1,1,0,0,0,832.9,582.6Z"/><path class="cls-63" d="M824.6,597.6l-.8-.4a4,4,0,0,0,3.9-.3,11.8,11.8,0,0,0,4.2-4.8l.8.4a11.8,11.8,0,0,1-4.2,4.8A3.7,3.7,0,0,1,824.6,597.6Z"/><path class="cls-63" d="M821.3,592.7c.1,0,.2-.2.3-.4l.8.5c-.1.1-.2.3-.4.4h-.2l-.7-.4Z"/><path class="cls-63" d="M821.5,591.8l.8.5c.1,0,.2.2.1.5l-.8-.5C821.7,592.1,821.7,591.9,821.5,591.8Z"/><path class="cls-63" d="M821.5,591.8l.8.5h-.1l-.7-.4Z"/><path class="cls-63" d="M820.9,592.8h.2l.7.4h-.1Z"/><path class="cls-63" d="M822.9,597.8c-1.2-.9-2-2.6-2-5l.7.4h.1a6.5,6.5,0,0,0,1.9,5.1l.4.3-.7-.5C823.1,598,823,598,822.9,597.8Z"/><path class="cls-63" d="M820,592.8l-.8-.5a3.4,3.4,0,0,1,1.7-.5h.6l.7.4h-.5A4.9,4.9,0,0,0,820,592.8Z"/><path class="cls-63" d="M833.4,581.7l.8.4a2.1,2.1,0,0,0-1.4-.1,11.4,11.4,0,0,0-2.8,1.3l-1.7,1-1.6.9a12.5,12.5,0,0,0-3.6,2.8,11.3,11.3,0,0,0-1.1,2.2,6.4,6.4,0,0,0-.3,2l-.8-.4a13.3,13.3,0,0,1,.3-2.1,7.2,7.2,0,0,1,1.2-2.1,9.7,9.7,0,0,1,3.5-2.8l1.7-1,1.6-.9a9,9,0,0,1,2.9-1.3A1.4,1.4,0,0,1,833.4,581.7Z"/><path class="cls-63" d="M834.8,582.8a4.7,4.7,0,0,1,.4,2.3,16.8,16.8,0,0,1-1.9,7.6,13.1,13.1,0,0,1-4.8,5.5c-1.9,1.1-3.6,1.1-4.9.1a6.5,6.5,0,0,1-1.9-5.1h.3c.2-.1.3-.3.4-.4s0-.6-.2-.6h-.5a6.4,6.4,0,0,1,.3-2,11.3,11.3,0,0,1,1.1-2.2,12.5,12.5,0,0,1,3.6-2.8l1.6-.9,1.7-1a11.4,11.4,0,0,1,2.8-1.3A1.6,1.6,0,0,1,834.8,582.8Zm-2.1,9.7a15.3,15.3,0,0,0,1.7-6.9,4.6,4.6,0,0,0-.3-2,1.3,1.3,0,0,0-.9-.7,8.2,8.2,0,0,0-3.1,1.2H830l-1.7,1-1.6.9h-.2a24.9,24.9,0,0,0-2.4,1.7,5.5,5.5,0,0,0-1.4,2.2,7.8,7.8,0,0,0-.3,2.4c0,2.3.7,4,1.8,4.9a3.8,3.8,0,0,0,4.3-.1,11.8,11.8,0,0,0,4.2-4.8"/><path class="cls-63" d="M817.5,594.8l.2-.2.8.4-.2.2Z"/><path class="cls-63" d="M817.3,595a.2.2,0,0,0,.2-.2l.8.4-.2.3Z"/><path class="cls-63" d="M817,595a.2.2,0,0,0,.3,0l.8.5h-.3Z"/><path class="cls-63" d="M817.8,595.5l-.8-.5h0l.8.5Z"/><path class="cls-63" d="M817.8,595.5l-.8-.5c-.1,0-.1-.1-.1-.2l.8.4A.4.4,0,0,0,817.8,595.5Z"/><path class="cls-63" d="M817.8,594.8l-.7-.4a2.1,2.1,0,0,1,.6-.8,6.7,6.7,0,0,1,1.5-1.3l.8.5a7.5,7.5,0,0,0-1.6,1.3C818.1,594.5,817.9,594.8,817.8,594.8Z"/><path class="cls-63" d="M817.7,595.2l-.8-.4.2-.4.7.4A.6.6,0,0,0,817.7,595.2Z"/><path class="cls-63" d="M820,592.8a4.9,4.9,0,0,1,1.7-.6h.5c.2,0,.3.3.2.6s-.2.3-.4.4h-.3a3.1,3.1,0,0,0-1.7.5,5.1,5.1,0,0,0-1.5,1.3l-.2.2-.2.3h-.3a.4.4,0,0,1-.1-.3.6.6,0,0,1,.1-.4c.1,0,.3-.3.6-.7A7.5,7.5,0,0,1,820,592.8Z"/><path class="cls-63" d="M816.1,592.3l.8.4c.2.1.3.3.5.5a4.9,4.9,0,0,1,.3,2l-.8-.4a4.6,4.6,0,0,0-.3-2A.8.8,0,0,0,816.1,592.3Z"/><path class="cls-63" d="M807.9,607.3l-.8-.5a3.7,3.7,0,0,0,3.8-.2,11.3,11.3,0,0,0,4.2-4.9,15.4,15.4,0,0,0,1.8-6.9l.8.4a15.8,15.8,0,0,1-1.8,7,11.1,11.1,0,0,1-4.2,4.8A3.6,3.6,0,0,1,807.9,607.3Z"/><path class="cls-63" d="M815.3,591.2a2.2,2.2,0,0,1,1.4.1l.8.5a2.2,2.2,0,0,0-1.4-.1,11.4,11.4,0,0,0-2.8,1.3l-.8-.5A11.4,11.4,0,0,1,815.3,591.2Z"/><path class="cls-63" d="M813.3,593a11.4,11.4,0,0,1,2.8-1.3,1.6,1.6,0,0,1,2,.8,3.2,3.2,0,0,1,.3,1.6c-.3.4-.5.7-.6.7a.6.6,0,0,0-.1.4,4.9,4.9,0,0,0-.3-2,1.3,1.3,0,0,0-.9-.6,5.8,5.8,0,0,0-3.1,1.2h-.1l-1.7.9-1.7,1h-.1a9.2,9.2,0,0,0-2.4,1.7,4.2,4.2,0,0,0-1.4,2.2,7.8,7.8,0,0,0-.3,2.4c0,2.3.7,4,1.8,4.8a3.4,3.4,0,0,0,4.2,0,11.1,11.1,0,0,0,4.2-4.8,15.8,15.8,0,0,0,1.8-7,.4.4,0,0,0,.1.3h.3l.2-.3.2-.2a17.8,17.8,0,0,1-2,7.4,13.1,13.1,0,0,1-4.8,5.5c-1.9,1.1-3.6,1-4.8.1s-2-2.9-2-5.4a8.6,8.6,0,0,1,.4-2.8,5.3,5.3,0,0,1,1.1-2.1,12,12,0,0,1,3.5-2.8l1.7-1Z"/><path class="cls-63" d="M810.8,593.5l1.7-1,.8.5-1.7.9-1.7,1a12,12,0,0,0-3.5,2.8,5.3,5.3,0,0,0-1.1,2.1,8.6,8.6,0,0,0-.4,2.8c0,2.5.8,4.4,2,5.4l.4.2-.8-.4-.4-.3c-1.2-1-2-2.8-2-5.3a11.1,11.1,0,0,1,.4-2.8,7.6,7.6,0,0,1,1.1-2.2,12.5,12.5,0,0,1,3.6-2.8Z"/></g><path class="cls-62" d="M816.1,566.8s8.1,24.6,26.4,26.3C842.5,593.1,822.3,595.4,816.1,566.8Z"/><ellipse class="cls-61" cx="779.8" cy="674.1" rx="8.3" ry="7.1" transform="translate(-76.6 1247.6) rotate(-74.6)"/><path class="cls-64" d="M779.4,675.9h0c5.5,1.3,11.2-3,12.7-9.6l4.3-38.9c.4-3.5-1.5-6.6-4.3-7.2h0c-2.9-.7-5.9,1.3-7,4.6l-13,37C770.6,668.3,773.9,674.7,779.4,675.9Z"/><path class="cls-62" d="M810.2,568.6s19.7-.7,28.9,8.6C839.1,577.2,831.5,562,810.2,568.6Z"/><path class="cls-63" d="M789,726.3c1.1,1.8,6.2,1.6,10,.1l5-52.2c0-6-4.6-10.9-10.2-10.9h0c-5.6,0-10.1,4.8-10.1,10.8h0l4.7,48.6C788.4,725.7,787.9,724.5,789,726.3Z"/><g class="cls-1"><path class="cls-63" d="M796,650.1l-9.7,5.6c1.5-.9,3.5-.7,5.7.5l9.7-5.6C799.4,649.3,797.4,649.2,796,650.1Z"/><path class="cls-63" d="M815.1,698.6l9.7-5.7c1.4-.8,2.3-2.6,2.3-5.1l-9.7,5.7C817.4,696,816.5,697.7,815.1,698.6Z"/><polygon class="cls-63" points="817.4 693.5 827.1 687.8 827.2 674.5 817.5 680.1 817.4 693.5"/><polygon class="cls-63" points="809.5 666.4 819.2 660.8 801.7 650.6 792 656.2 809.5 666.4"/><path class="cls-63" d="M817.5,680.1l9.7-5.6c0-5.1-3.6-11.2-8-13.7l-9.7,5.6C813.9,668.9,817.5,675.1,817.5,680.1Z"/><path class="cls-63" d="M792,656.2c-4.4-2.5-8-.5-8,4.6v13.3c0,5.1,3.6,11.2,8,13.8L809.4,698c4.4,2.5,8,.5,8-4.5V680.1c0-5-3.6-11.2-8-13.7Z"/></g><path class="cls-63" d="M812.5,741.4c1.1,1.7,9.1,2.4,9.1-3.3l5-50a10.4,10.4,0,0,0-10.2-10.4h0a10.3,10.3,0,0,0-10.1,10.4l4.7,46.6A12.3,12.3,0,0,0,812.5,741.4Z"/><g class="cls-1"><path class="cls-65" d="M788.7,661.4l9.7-5.6a1.2,1.2,0,0,1-.6-1.2l-9.7,5.6A1.1,1.1,0,0,0,788.7,661.4Z"/><polygon class="cls-65" points="788.1 660.2 797.8 654.6 798 650.3 788.3 656 788.1 660.2"/><path class="cls-65" d="M798,650.3c0-.1.1-.3.2-.3l-9.7,5.6c-.1,0-.1.2-.2.4Z"/><path class="cls-66" d="M788.9,655.4l9.7-5.6h-.3a.1.1,0,0,0-.1.1l-9.7,5.6h.1Z"/><path class="cls-65" d="M798.6,649.8c1.3-.8,1.3-3.5,1.2-4.9-3.2,1.9-6.4,3.8-9.7,5.6.1,1.5.1,4.2-1.2,4.9Z"/><polygon class="cls-66" points="806.6 659.2 816.3 653.6 800.5 644.5 790.8 650.1 806.6 659.2"/><path class="cls-65" d="M799.8,644.9a.8.8,0,0,1,.2-.5l-9.7,5.7c-.1,0-.2.2-.2.4h0c3.3-1.8,6.5-3.7,9.7-5.6Z"/><path class="cls-66" d="M800,644.4l-9.7,5.7a.5.5,0,0,1,.5,0l9.7-5.6Z"/><polygon class="cls-65" points="808.3 673 818 667.4 798.4 655.8 788.7 661.4 808.3 673"/><path class="cls-65" d="M818.5,667.4a.4.4,0,0,1-.5,0l-9.7,5.6a.4.4,0,0,0,.5,0Z"/><path class="cls-66" d="M808.8,673l9.7-5.6a.5.5,0,0,0,.2-.4l-9.7,5.6C809,672.8,808.9,673,808.8,673Z"/><polygon class="cls-66" points="809 672.6 818.7 667 818.7 662.2 809 667.9 809 672.6"/><path class="cls-66" d="M809,667.9l9.7-5.7a1.6,1.6,0,0,0-.5-1c-.6-.6-1.8-2.3-1.2-6.3a1.6,1.6,0,0,0-.7-1.3l-9.7,5.6a1.9,1.9,0,0,1,.7,1.3c-.6,4,.6,5.7,1.3,6.4A1.5,1.5,0,0,1,809,667.9Z"/><path class="cls-65" d="M817,678.6l9.7-5.6c4.6-2.7,7.1-8.8,6.2-17.5l-9.7,5.6C824.1,669.8,821.6,676,817,678.6Z"/><polygon class="cls-65" points="823.2 661.1 832.9 655.5 831.2 639.1 821.5 644.7 823.2 661.1"/><path class="cls-65" d="M789.8,625.2c1.5-7.8,8.2-10.2,15.8-5.8l.7.4c7.8,4.9,14.2,15.4,15.2,24.9l1.7,16.4c1.7,16.2-8.6,23.7-21.9,16l-10.9-6.3c-4.4-2.5-7.7-9-6.8-13.5Z"/><path class="cls-65" d="M803.9,612.7l-9.7,5.6c2.9-1.7,7-1.4,11.4,1.1l.7.4c7.8,4.9,14.2,15.4,15.2,24.9l9.7-5.6c-1-9.5-7.4-20-15.2-24.9l-.7-.4C810.9,611.3,806.8,611,803.9,612.7Z"/></g><path class="cls-66" d="M816.1,633c-3.7,1.8-16,5.4-19.1,3.5-6.3-4,.6-20.6.6-20.6s21.2-3.9,27.6,6.5C829.8,629.9,819.8,631.1,816.1,633Z"/><circle class="cls-62" cx="783.3" cy="608.4" r="8.4"/><path class="cls-62" d="M810.8,572.3s48.8,29.7,8.6,39.3C856.8,607.3,835.6,572.6,810.8,572.3Z"/><path class="cls-62" d="M837.1,590.2c0,14.8-11.6,29.9-27.4,29.9s-30.1-15.4-30.1-30.2,12.7-26.7,28.4-26.7S837.1,575.5,837.1,590.2Z"/><path class="cls-62" d="M809.5,564.9s29.7,12.3,32.7,32.6C842.2,597.5,846,569.7,809.5,564.9Z"/><path class="cls-62" d="M794.9,564.1s-14.6,35.9-1.8,52.5C787.2,613.6,762,584.8,794.9,564.1Z"/><path class="cls-62" d="M808.4,581.2s4.1-3.6,6.4-1.6c0,0,.5-3.7,5.2-2.4C820,577.2,809,568.5,808.4,581.2Z"/><rect class="cls-35" x="771.8" y="591.4" width="2" height="15.94" transform="translate(-179.4 822.5) rotate(-51)"/><path class="cls-62" d="M786.7,574.3s19.2-24,40.6-3.6c0,0,5,11,16.5,10.5,0,0-9.8,4.1-24.5-6.1s-18.9,7.6-18.9,7.6Z"/><path class="cls-63" d="M829.9,730.3c-.9-1.4-13.7.3-13.7.3s-4.1,9.4-1.9,11,12.3.8,15.8-5.2A6.2,6.2,0,0,0,829.9,730.3Z"/><path class="cls-63" d="M806.8,715.5c-.9-1.4-13.7.4-13.7.4s-4.1,9.4-1.9,11,12.2.8,15.8-5.2A6.3,6.3,0,0,0,806.8,715.5Z"/></g><g id="log-stand-armR"><ellipse class="cls-61" cx="839.8" cy="693.1" rx="7.1" ry="8.3" transform="translate(-54.7 72.2) rotate(-4.8)"/><path class="cls-65" d="M840.5,693h0a14.3,14.3,0,0,0,9.8-17.7l-18.5-42.6a8.2,8.2,0,0,0-9.7-4.7h0a8.2,8.2,0,0,0-5.9,9.1l6.6,46A14.4,14.4,0,0,0,840.5,693Z"/></g><g id="log-stand-earR"><path class="cls-62" d="M832.6,579.7s3.9-17.6-1.5-24.5c0,0-11.7,7.7-12.7,16.3A16.4,16.4,0,0,0,832.6,579.7Z"/></g><g id="log-stand-earL"><path class="cls-62" d="M791.2,570.2s-.2-16.5,6.5-22.1c0,0,10.3,12.8,9.4,21.5C807.1,569.6,801.1,572.1,791.2,570.2Z"/></g><g id="morning"><polygon class="cls-67" points="169 390.8 689 90.6 1104.6 330.7 1104.9 771.1 585 1071.3 168.7 830.5 169 390.8"/></g></g></svg>