<svg xmlns="http://www.w3.org/2000/svg" xmlns:xlink="http://www.w3.org/1999/xlink" viewBox="0 0 1247.8896 1224">
  <defs>
    <style>
      .cls-1 {
        isolation: isolate;
      }

      .cls-2 {
        mix-blend-mode: color;
      }

      .cls-3 {
        opacity: 0.5;
      }

      .cls-4 {
        mix-blend-mode: multiply;
        opacity: 0.65;
      }

      .cls-5 {
        fill: #b4aeaa;
      }

      .cls-6 {
        fill: #e9f0f3;
      }

      .cls-7 {
        fill: #f0e8e2;
      }

      .cls-8 {
        fill: #d8e0e5;
      }

      .cls-9 {
        fill: #c4d0d8;
      }

      .cls-10 {
        fill: #878380;
      }

      .cls-11 {
        fill: #a6c2cd;
      }

      .cls-12 {
        fill: #b3b3b3;
      }

      .cls-13, .cls-42 {
        fill: gray;
      }

      .cls-14 {
        fill: #666;
      }

      .cls-15 {
        fill: #303030;
      }

      .cls-16 {
        fill: #b3e1e5;
      }

      .cls-17 {
        fill: #8baeb3;
      }

      .cls-18 {
        fill: #d5f1f5;
      }

      .cls-19 {
        fill: #b9e8ef;
      }

      .cls-20 {
        fill: #e1f3f5;
      }

      .cls-21 {
        fill: #353030;
      }

      .cls-22 {
        fill: #3d3a3a;
      }

      .cls-23 {
        fill: #cdcdcd;
      }

      .cls-24 {
        fill: #b4b4b4;
      }

      .cls-25 {
        fill: #3f3f3f;
      }

      .cls-26 {
        fill: #2b2828;
      }

      .cls-27 {
        fill: #ebebeb;
      }

      .cls-28 {
        fill: #fff;
      }

      .cls-29 {
        fill: #cbcbcb;
      }

      .cls-30 {
        fill: #d8d8d8;
      }

      .cls-31, .cls-32 {
        fill: none;
        stroke: #b0b0b0;
        stroke-miterlimit: 10;
      }

      .cls-31, .cls-32, .cls-42, .cls-62 {
        stroke-linecap: round;
      }

      .cls-31 {
        stroke-width: 0.75px;
      }

      .cls-32, .cls-42 {
        stroke-width: 2px;
      }

      .cls-33 {
        fill: #d1d1d1;
      }

      .cls-34 {
        fill: #e8e8e8;
      }

      .cls-35 {
        fill: #ceab89;
      }

      .cls-36 {
        fill: #aaaaa9;
      }

      .cls-37 {
        fill: #999997;
      }

      .cls-38 {
        fill: #adadac;
      }

      .cls-39 {
        fill: #c1c1c1;
      }

      .cls-40 {
        fill: #efefef;
      }

      .cls-41 {
        fill: #f0f0f0;
      }

      .cls-42 {
        stroke: #686868;
      }

      .cls-42, .cls-62 {
        stroke-linejoin: round;
      }

      .cls-43 {
        fill: #595959;
      }

      .cls-44 {
        fill: #f9f9f9;
      }

      .cls-45 {
        fill: #2b2727;
      }

      .cls-46 {
        fill: #20201d;
      }

      .cls-47 {
        fill: #9d9d9d;
      }

      .cls-48 {
        fill: #696969;
      }

      .cls-49 {
        fill: #b3b3b1;
      }

      .cls-50 {
        fill: #cccccb;
      }

      .cls-51 {
        fill: #e0e0e0;
      }

      .cls-52 {
        fill: #999998;
      }

      .cls-53 {
        fill: #737372;
      }

      .cls-54 {
        fill: #d6b79d;
      }

      .cls-55 {
        fill: #b28d6f;
      }

      .cls-56 {
        fill: #181818;
      }

      .cls-57 {
        fill: #0c0c0c;
      }

      .cls-58 {
        fill: #242424;
      }

      .cls-59 {
        fill: #60605e;
      }

      .cls-60 {
        fill: #e0b899;
      }

      .cls-61 {
        fill: #f4dac4;
      }

      .cls-62, .cls-63 {
        fill: #131111;
      }

      .cls-62 {
        stroke: #131111;
        stroke-width: 1.1px;
      }

      .cls-64 {
        fill: #ccc0b4;
      }

      .cls-65 {
        fill: #d0c3b5;
      }

      .cls-66 {
        fill: #bfb0a1;
      }

      .cls-67 {
        mix-blend-mode: overlay;
        opacity: 0.92;
        fill: url(#Orange_Yellow);
      }
    </style>
    <linearGradient id="Orange_Yellow" data-name="Orange, Yellow" x1="303.9295" y1="794.78731" x2="1091.65507" y2="288.89217" gradientUnits="userSpaceOnUse">
      <stop offset="0" stop-color="#fff33b"/>
      <stop offset="0.04011" stop-color="#fee72e"/>
      <stop offset="0.11709" stop-color="#fed51b"/>
      <stop offset="0.19641" stop-color="#fdca10"/>
      <stop offset="0.2809" stop-color="#fdc70c"/>
      <stop offset="0.66854" stop-color="#f3903f"/>
      <stop offset="0.88764" stop-color="#ed683c"/>
      <stop offset="1" stop-color="#e93e3a"/>
    </linearGradient>
  </defs>
  <g class="cls-1">
    <g id="room-base">
      <g>
        <g>
          <polygon class="cls-5" points="154.462 821.011 154.462 840.258 585.759 1090.117 585.756 1071.567 154.462 821.011"/>
          <polygon class="cls-6" points="1120.732 322.189 1105.415 331.032 689.748 90.927 169.794 391.118 154.255 382.15 689.716 72.72 1120.732 322.189"/>
          <polygon class="cls-7" points="169.526 830.859 689.797 530.751 1105.71 771.37 585.756 1071.567 169.526 830.859"/>
          <polygon class="cls-8" points="169.794 391.118 689.748 90.927 689.737 531.476 169.794 831.409 169.794 391.118"/>
          <polygon class="cls-9" points="1105.673 331.105 1105.71 771.37 690.028 531.322 689.748 90.927 1105.673 331.105"/>
          <polygon class="cls-10" points="585.759 1090.117 1123.305 781.621 1122.389 761.741 585.759 1071.567 585.759 1090.117"/>
          <polygon class="cls-11" points="169.795 831.357 154.463 822.556 154.256 382.098 169.795 391.066 169.795 831.357"/>
          <polygon class="cls-11" points="1105.71 331.084 1121.027 322.24 1122.389 761.741 1105.71 771.37 1105.71 331.084"/>
        </g>
        <g>
          <g>
            <polygon class="cls-12" points="713.583 874.445 713.583 869.884 720.45 873.848 720.45 878.41 713.583 874.445"/>
            <g>
              <polygon class="cls-13" points="741.05 854.026 761.65 842.133 768.516 846.097 747.916 857.991 768.516 869.884 761.65 873.848 741.05 861.955 720.45 873.848 713.583 869.884 734.183 857.991 713.583 846.097 720.45 842.133 741.05 854.026"/>
              <polygon class="cls-14" points="720.45 878.41 720.45 873.848 741.05 861.955 761.65 873.848 761.65 878.41 741.05 866.516 720.45 878.41"/>
              <polygon class="cls-15" points="761.65 878.41 761.65 873.848 768.516 869.884 768.516 874.445 761.65 878.41"/>
              <polygon class="cls-12" points="713.583 850.659 713.583 846.097 734.183 857.962 730.253 860.26 713.583 850.659"/>
              <polygon class="cls-15" points="751.818 860.243 747.916 857.991 768.516 846.097 768.516 850.659 751.818 860.243"/>
              <polygon class="cls-14" points="734.183 857.962 734.183 818.658 741.05 822.311 741.05 861.955 734.183 857.962"/>
              <polygon class="cls-15" points="747.916 857.991 747.916 818.658 741.05 822.311 741.05 861.955 747.916 857.991"/>
            </g>
          </g>
          <g>
            <g>
              <polygon class="cls-16" points="707.628 814.612 748.828 790.826 790.028 814.612 748.828 838.399 707.628 814.612"/>
              <polygon class="cls-17" points="748.828 846.328 748.828 838.399 790.028 814.612 790.028 822.541 748.828 846.328"/>
              <polygon class="cls-18" points="700.762 818.577 707.628 814.612 748.828 838.399 748.828 846.328 700.762 818.577"/>
            </g>
            <g>
              <polygon class="cls-19" points="707.628 814.612 707.628 759.11 748.814 735.238 748.828 790.826 707.628 814.612"/>
              <polygon class="cls-20" points="707.628 814.612 707.628 759.11 700.776 755.117 700.762 818.577 707.628 814.612"/>
              <polygon class="cls-18" points="741.915 731.332 748.814 735.238 707.628 759.11 700.776 755.117 741.915 731.332"/>
            </g>
          </g>
        </g>
        <g>
          <polygon class="cls-21" points="420.344 660.879 317.095 720.489 213.847 780.1 317.095 839.71 420.344 780.1 523.592 720.489 420.344 660.879"/>
          <g>
            <path class="cls-21" d="M213.84733,795.21116l-.00013-56.34861a5.83046,5.83046,0,0,1,2.91524-5.04935l91.5873-52.87793a5.83047,5.83047,0,0,1,8.74571,5.04934l0,49.61611Z"/>
            <path class="cls-21" d="M317.09558,735.60073l-.00013-56.13061a5.84645,5.84645,0,0,1,2.92323-5.06319L411.574,621.54746a5.84644,5.84644,0,0,1,8.76967,5.06317v49.37966Z"/>
            <path class="cls-22" d="M414.99025,663.96984l-81.834,47.2468a10.70718,10.70718,0,0,0,0,18.54538l81.834,47.2469a10.7072,10.7072,0,0,0,10.70718,0l81.83391-47.24684a10.70718,10.70718,0,0,0,0-18.54537l-81.83392-47.24687A10.70718,10.70718,0,0,0,414.99025,663.96984Z"/>
            <g>
              <polygon class="cls-23" points="213.847 812.223 216.982 814.033 216.982 797.06 213.847 795.251 213.847 812.223"/>
              <polygon class="cls-24" points="220.195 795.211 216.983 797.065 216.983 814.073 220.181 812.226 220.195 795.211"/>
            </g>
            <path class="cls-22" d="M230.47073,770.50223l81.08356-46.81371a11.08231,11.08231,0,0,1,11.08231,0l81.08376,46.81374a11.0823,11.0823,0,0,1,0,19.19512l-81.08388,46.81369a11.08231,11.08231,0,0,1-11.08231,0l-81.08344-46.81372A11.08231,11.08231,0,0,1,230.47073,770.50223Z"/>
            <path class="cls-25" d="M317.09531,854.82163l-103.248-59.61047-.00011-50.20433a5.50325,5.50325,0,0,1,8.24557-4.77134l92.2416,53.01606a5.50326,5.50326,0,0,1,2.76092,4.77132Z"/>
            <g>
              <polygon class="cls-23" points="310.787 869.194 313.922 871.005 313.922 854.032 310.787 852.222 310.787 869.194"/>
              <polygon class="cls-24" points="317.134 852.183 313.922 854.036 313.922 871.044 317.121 869.197 317.134 852.183"/>
            </g>
            <path class="cls-25" d="M313.93621,856.40113l-103.248-59.61048-.00011-50.20433a5.50326,5.50326,0,0,1,8.24558-4.77133l92.24159,53.01606a5.50325,5.50325,0,0,1,2.76093,4.77131Z"/>
            <g>
              <polygon class="cls-23" points="515.638 753.308 518.773 755.118 518.773 738.145 515.638 736.336 515.638 753.308"/>
              <polygon class="cls-24" points="521.986 736.296 518.774 738.15 518.774 755.158 521.972 753.311 521.986 736.296"/>
            </g>
            <polygon class="cls-26" points="317.095 839.71 523.592 720.489 523.592 735.601 317.095 854.822 317.095 839.71"/>
            <polygon class="cls-25" points="317.096 854.826 313.936 856.401 313.936 799.602 317.095 798.023 317.096 854.826"/>
          </g>
        </g>
        <g>
          <g>
            <polygon class="cls-27" points="633.759 443.291 689.455 411.135 759.075 450.875 759.075 579.498 703.379 611.654 633.759 571.915 633.759 443.291"/>
            <polygon class="cls-28" points="703.379 611.654 703.379 483.486 633.759 443.291 633.759 571.915 703.379 611.654"/>
            <polygon class="cls-29" points="645.883 482.481 645.866 533.619 640.939 530.804 640.956 479.637 645.883 482.481"/>
          </g>
          <polygon class="cls-30" points="703.379 483.486 759.075 450.875 759.075 579.498 703.379 611.654 703.379 483.486"/>
          <polyline class="cls-31" points="709.901 608.394 709.901 479.838 640.07 439.803"/>
          <polyline class="cls-32" points="709.901 532.961 703.379 536.514 633.759 496.319"/>
        </g>
        <g>
          <polygon class="cls-33" points="714.616 568.226 846.082 644.495 911.816 606.544 780.349 530.275 714.616 568.226"/>
          <polygon class="cls-34" points="714.616 564.8 911.816 678.653 977.549 640.702 780.349 526.849 714.616 564.8"/>
          <polygon class="cls-35" points="716.512 622.776 716.512 565.849 911.816 678.653 911.816 735.58 716.512 622.776"/>
          <polygon class="cls-36" points="760.424 572.243 813.011 602.751 846.082 583.775 793.496 553.268 760.424 572.243"/>
          <polygon class="cls-37" points="771.153 578.441 813.057 602.751 835.116 589.853 793.212 565.543 771.153 578.441"/>
          <polygon class="cls-38" points="805.246 558.377 833.448 574.794 840.507 570.666 812.305 554.25 805.246 558.377"/>
          <polygon class="cls-39" points="911.816 678.653 977.549 640.702 977.549 697.629 911.816 735.58 911.816 678.653"/>
          <polygon class="cls-40" points="714.616 564.8 714.616 568.226 846.082 644.495 846.082 640.702 714.616 564.8"/>
          <polygon class="cls-41" points="846.082 640.702 911.816 602.751 977.549 640.702 911.816 678.653 846.082 640.702"/>
          <polygon class="cls-28" points="846.082 640.702 846.082 697.629 911.816 735.58 911.816 678.653 846.082 640.702"/>
          <polygon class="cls-42" points="857.914 660.625 857.914 687.576 899.984 711.865 899.984 684.913 857.914 660.625"/>
          <ellipse class="cls-43" cx="911.81575" cy="659.67759" rx="12.98696" ry="7.79217"/>
          <ellipse class="cls-43" cx="941.83798" cy="643.54651" rx="12.98696" ry="7.79217"/>
          <ellipse class="cls-43" cx="878.94906" cy="640.70206" rx="12.98696" ry="7.79217"/>
          <ellipse class="cls-43" cx="908.97127" cy="624.57095" rx="12.98696" ry="7.79217"/>
          <polygon class="cls-44" points="911.816 602.751 911.816 587.568 977.549 625.519 977.549 640.702 911.816 602.751"/>
          <polygon class="cls-45" points="908.971 604.62 908.971 589.437 974.705 627.388 974.705 642.571 908.971 604.62"/>
          <polygon points="977.549 625.519 974.705 627.388 974.705 642.571 977.549 640.702 977.549 625.519"/>
          <polygon class="cls-46" points="908.971 589.437 911.816 587.568 977.549 625.519 974.705 627.388 908.971 589.437"/>
          <polygon class="cls-47" points="854.088 655.823 849.056 658.71 898.702 687.373 903.735 684.487 902.178 683.588 898.702 685.497 852.154 658.568 855.4 656.58 854.088 655.823"/>
          <polygon class="cls-47" points="854.088 658.136 849.056 661.022 898.702 689.686 903.735 686.799 902.178 685.901 898.702 687.81 852.154 660.88 855.4 658.893 854.088 658.136"/>
          <polygon class="cls-33" points="849.056 661.022 849.056 658.71 898.702 687.373 898.702 689.686 849.056 661.022"/>
          <g>
            <polygon class="cls-48" points="903.735 684.487 903.735 686.799 898.702 689.686 898.702 687.373 903.735 684.487"/>
            <polygon class="cls-48" points="855.4 658.893 855.4 656.58 852.154 658.568 854.096 659.691 855.4 658.893"/>
          </g>
          <polygon class="cls-49" points="793.496 553.268 793.212 565.543 835.116 589.853 846.082 583.775 793.496 553.268"/>
          <polygon class="cls-50" points="821.005 544.486 822.607 545.287 810.821 552.103 809.219 551.302 821.005 544.486"/>
          <polyline class="cls-51" points="810.821 553.045 810.821 552.103 809.219 551.302 809.219 552.174 810.821 553.045"/>
          <polygon class="cls-52" points="821.249 546.071 822.607 545.287 822.607 564.742 821.249 565.543 821.249 546.071"/>
          <polygon class="cls-52" points="810.821 552.103 810.821 553.045 821.249 547.032 821.249 546.071 810.821 552.103"/>
          <polygon class="cls-53" points="819.647 547.955 821.249 547.032 821.249 565.543 819.647 564.742 819.647 547.955"/>
        </g>
        <path class="cls-22" d="M442.20741,975.75559l49.89019-28.642a4.42237,4.42237,0,0,1,4.41879.00873l87.06118,50.44026a4.42237,4.42237,0,0,1,.00727,7.64887l-49.1407,28.59529a4.42242,4.42242,0,0,1-4.42546.0133L442.208,983.42648A4.42237,4.42237,0,0,1,442.20741,975.75559Z"/>
      </g>
      <g>
        <g>
          <polygon points="718.06 847.631 714.122 849.905 714.122 909.188 718.06 906.915 718.06 847.631"/>
          <polygon class="cls-15" points="710.184 906.915 710.184 847.631 714.122 849.905 714.122 909.188 710.184 906.915"/>
        </g>
        <g>
          <polygon points="791.133 889.82 787.195 892.094 787.195 951.377 791.133 949.104 791.133 889.82"/>
          <polygon class="cls-15" points="783.257 949.104 783.257 889.82 787.195 892.094 787.195 951.377 783.257 949.104"/>
        </g>
        <g>
          <polygon points="915.548 818.093 911.61 820.367 911.61 879.65 915.548 877.377 915.548 818.093"/>
          <polygon class="cls-15" points="907.672 877.377 907.672 818.093 911.61 820.367 911.61 879.65 907.672 877.377"/>
        </g>
        <polygon class="cls-35" points="710.184 847.631 838.536 773.527 915.368 818.093 787.195 892.094 710.184 847.631"/>
        <polygon class="cls-35" points="710.184 842.839 838.536 768.734 915.368 813.301 787.195 887.301 710.184 842.839"/>
        <polygon class="cls-54" points="710.184 847.631 710.184 842.839 787.195 887.301 787.195 892.094 710.184 847.631"/>
        <polygon class="cls-55" points="915.368 813.301 915.368 818.093 787.195 892.094 787.195 887.301 915.368 813.301"/>
        <g>
          <path class="cls-19" d="M728.07377,838.7341l73.14076-42.76117a6.46127,6.46127,0,0,1,6.46127,0l22.61756,13.05825a6.46126,6.46126,0,0,1,0,11.19124l-68.08226,39.84046a6.46127,6.46127,0,0,1-6.46123,0l-27.67607-15.9786A3.08893,3.08893,0,0,1,728.07377,838.7341Z"/>
          <path class="cls-28" d="M817.07822,801.40141l22.90713,13.22539-77.684,45.38394a6.64183,6.64183,0,0,1-6.64182,0L736.135,848.73838Z"/>
        </g>
        <g>
          <polygon class="cls-15" points="799.664 817.064 872.098 775.244 872.098 817.064 799.664 858.884 799.664 817.064"/>
          <polygon class="cls-56" points="811.086 821.243 869.034 787.787 869.033 821.243 811.086 854.699 811.086 821.243"/>
          <polygon class="cls-57" points="824.769 851.818 841.163 842.353 849.362 847.118 833.164 856.459 824.769 851.818"/>
          <polygon class="cls-57" points="824.769 852.41 841.163 842.945 849.362 847.709 833.164 857.051 824.769 852.41"/>
          <polygon class="cls-58" points="834.612 853.067 834.612 838.757 843.906 833.391 843.906 847.677 834.612 853.067"/>
          <polygon class="cls-15" points="799.664 817.064 811.086 821.243 869.034 787.787 872.098 775.244 799.664 817.064"/>
          <polygon class="cls-43" points="811.086 854.699 799.664 858.884 799.664 817.064 811.086 821.243 811.086 854.699"/>
          <polygon class="cls-57" points="869.034 787.787 872.098 775.244 872.098 817.064 869.033 821.243 869.034 787.787"/>
          <polygon class="cls-58" points="824.769 851.818 824.769 852.41 833.164 857.051 833.164 856.459 824.769 851.818"/>
          <polygon points="833.164 856.459 849.362 847.118 849.362 847.709 833.164 857.051 833.164 856.459"/>
        </g>
      </g>
      <path class="cls-25" d="M314.32555,793.2437a5.50327,5.50327,0,0,1,2.76093,4.77132v56.79876l-103.248-59.61047-.00011-50.20434a5.50326,5.50326,0,0,1,8.24558-4.77133"/>
      <line class="cls-25" x1="222.08396" y1="740.22764" x2="314.32555" y2="793.2437"/>
      <path class="cls-25" d="M313.92737,856.39328l-103.248-59.61048-.00011-50.20433a5.50325,5.50325,0,0,1,8.24557-4.77133l92.24159,53.01606a5.50323,5.50323,0,0,1,2.76093,4.77131Z"/>
      <polygon class="cls-25" points="317.087 854.818 313.927 856.393 313.927 799.595 317.086 798.015 317.087 854.818"/>
    </g>
    <g id="log-stand">
      <ellipse class="cls-59" cx="797.01925" cy="577.1862" rx="3.40155" ry="2.04093"/>
      <rect class="cls-60" x="802.23876" y="606.92569" width="13.21901" height="17.33386" rx="6.6095"/>
      <path class="cls-61" d="M830.73393,593.88655c7.52244,7.14761-1.28012,22.12913-16.41253,22.12913s-28.75489-8.19048-28.75489-23.3229,4.95071-28.13131,20.08312-28.13131q.31778,0,.63383.00719C821.12311,564.9055,830.73393,578.966,830.73393,593.88655Z"/>
      <path class="cls-62" d="M808.813,573.51043c-21.41774,23.42341-13.35437,42.75284-13.35437,42.75284s-13.4413-11.16121-8.82833-38.65684C789.36522,561.30459,808.813,573.51043,808.813,573.51043Z"/>
      <path class="cls-62" d="M818.25086,572.43906s19.559,11.73916,14.07867,28.70848C832.32953,601.14754,846.80381,582.04347,818.25086,572.43906Z"/>
      <g class="cls-1">
        <path class="cls-63" d="M832.88377,582.62938l.77526.45054a1.13013,1.13013,0,0,1,.43236.48706,4.61273,4.61273,0,0,1,.33825,2.00927,15.58566,15.58566,0,0,1-1.7646,6.927l-.77528-.45054a15.58569,15.58569,0,0,0,1.7646-6.92695,4.61276,4.61276,0,0,0-.33824-2.00927A1.13023,1.13023,0,0,0,832.88377,582.62938Z"/>
        <path class="cls-63" d="M824.60516,597.62786l-.77527-.45052a3.73515,3.73515,0,0,0,3.84644-.28178,11.75048,11.75048,0,0,0,4.21343-4.8429l.77528.45054a11.75063,11.75063,0,0,1-4.21343,4.8429A3.73512,3.73512,0,0,1,824.60516,597.62786Z"/>
        <path class="cls-63" d="M821.26707,592.72792a.82646.82646,0,0,0,.33369-.41527l.77527.45055a.82637.82637,0,0,1-.33369.41526.33569.33569,0,0,1-.19576.05206l-.77528-.45052A.3359.3359,0,0,0,821.26707,592.72792Z"/>
        <path class="cls-63" d="M821.54213,591.80906l.77527.45055c.11889.06907.14832.27476.05864.50358l-.77528-.45054C821.69045,592.08383,821.661,591.87814,821.54213,591.80906Z"/>
        <path class="cls-63" d="M821.54214,591.80907l.77526.45054a.18487.18487,0,0,0-.08354-.02426l-.77527-.45054A.185.185,0,0,1,821.54214,591.80907Z"/>
        <path class="cls-63" d="M820.88254,592.771q.09326.00138.18876.009l.77526.45055q-.09544-.00771-.18874-.009Z"/>
        <path class="cls-63" d="M822.85711,597.84819c-1.1802-.93383-1.91671-2.69085-1.97457-5.07717q.34235.19894.68473.39794l.09054.05261c.05787,2.38631.79437,4.14333,1.97458,5.07716a3.47531,3.47531,0,0,0,.41234.28142l-.77528-.45053A3.47659,3.47659,0,0,1,822.85711,597.84819Z"/>
        <path class="cls-63" d="M820.00354,592.78818l-.77527-.45054a4.04882,4.04882,0,0,1,1.669-.55414,3.18109,3.18109,0,0,1,.5613.00131l.77527.45054a3.181,3.181,0,0,0-.56129-.00131A4.04891,4.04891,0,0,0,820.00354,592.78818Z"/>
        <path class="cls-63" d="M833.43337,581.68153l.77527.45055a1.8446,1.8446,0,0,0-1.3687-.12061,11.13262,11.13262,0,0,0-2.83577,1.29188c-.54271.31333-1.10451.65235-1.67274.98042-.57462.33175-1.13011.6378-1.66644.94746a11.50593,11.50593,0,0,0-3.535,2.7831,6.712,6.712,0,0,0-1.10663,2.16,8.56527,8.56527,0,0,0-.35081,2.05967l-.77529-.45053a8.56575,8.56575,0,0,1,.35083-2.05968,6.71186,6.71186,0,0,1,1.10663-2.16,11.50611,11.50611,0,0,1,3.535-2.78311c.53633-.30965,1.09182-.6157,1.66644-.94745.56822-.32807,1.13-.66709,1.67273-.98042a11.13262,11.13262,0,0,1,2.83577-1.29188A1.84468,1.84468,0,0,1,833.43337,581.68153Z"/>
        <path class="cls-63" d="M834.79905,582.791a5.23805,5.23805,0,0,1,.4095,2.33555,17.14546,17.14546,0,0,1-1.94172,7.60974,13.40033,13.40033,0,0,1-4.81268,5.50487c-1.88986,1.09111-3.60394,1.02257-4.82176.05758-1.18021-.93383-1.91671-2.69085-1.97457-5.07717q.09326.00138.18876.009a.33569.33569,0,0,0,.19576-.05206.82642.82642,0,0,0,.3337-.41527c.108-.27544.04331-.51735-.14218-.52785a3.18012,3.18012,0,0,0-.5613-.0013,8.56527,8.56527,0,0,1,.35081-2.05967,6.712,6.712,0,0,1,1.10663-2.16,11.50593,11.50593,0,0,1,3.535-2.7831c.53633-.30966,1.09182-.61571,1.66644-.94746.56823-.32807,1.13-.66709,1.67274-.98042a11.13262,11.13262,0,0,1,2.83577-1.29188A1.56707,1.56707,0,0,1,834.79905,582.791Zm-2.134,9.71221a15.58566,15.58566,0,0,0,1.7646-6.927,4.61273,4.61273,0,0,0-.33825-2.00927,1.03411,1.03411,0,0,0-.85868-.62122,6.31727,6.31727,0,0,0-3.09624,1.1847l-.12974.07527c-.52994.306-1.09176.63767-1.67276.97311-.5874.33913-1.14286.65249-1.66642.95476q-.07986.04551-.15848.09093a12.75873,12.75873,0,0,0-2.37539,1.66593,4.91791,4.91791,0,0,0-1.39424,2.22321,8.03073,8.03073,0,0,0-.30657,2.38891c.00657,2.31831.69562,4.00746,1.798,4.87006,1.096.86631,2.58621.91714,4.2207-.02654a11.75063,11.75063,0,0,0,4.21343-4.8429"/>
        <path class="cls-63" d="M817.54689,594.78542c.01257-.01812.06208-.08757.14393-.19012l.77527.45055c-.08185.10254-.13135.172-.14392.19011Z"/>
        <path class="cls-63" d="M817.30581,595.017a.78467.78467,0,0,0,.24108-.23158l.77528.45054a.7848.7848,0,0,1-.24109.23158Z"/>
        <path class="cls-63" d="M817.02918,595.04475a.27609.27609,0,0,0,.27663-.02775l.77527.45056a.27612.27612,0,0,1-.27663.02773Z"/>
        <path class="cls-63" d="M817.80446,595.49529l-.77529-.45054a.19185.19185,0,0,1-.03158-.023l.77527.45054A.191.191,0,0,0,817.80446,595.49529Z"/>
        <path class="cls-63" d="M817.77287,595.47227l-.77529-.45054a.30053.30053,0,0,1-.08344-.23105l.77528.45054A.30042.30042,0,0,0,817.77287,595.47227Z"/>
        <path class="cls-63" d="M817.84131,594.80079l-.77528-.45054a7.13043,7.13043,0,0,1,.60081-.73806,6.82617,6.82617,0,0,1,1.56143-1.27455l.77527.45054a6.82607,6.82607,0,0,0-1.56142,1.27456A7.12816,7.12816,0,0,0,817.84131,594.80079Z"/>
        <path class="cls-63" d="M817.68942,595.24122l-.77528-.45054a.82556.82556,0,0,1,.15189-.44043l.77528.45054A.82556.82556,0,0,0,817.68942,595.24122Z"/>
        <path class="cls-63" d="M820.00354,592.78818a4.04891,4.04891,0,0,1,1.669-.55414,3.181,3.181,0,0,1,.56129.00131c.1855.01049.25014.25242.14219.52784a.82643.82643,0,0,1-.3337.41527.33578.33578,0,0,1-.19576.05207q-.09547-.0077-.18877-.009a3.17915,3.17915,0,0,0-1.65174.46167,5.807,5.807,0,0,0-1.54,1.36261c-.08185.10255-.13135.172-.14392.19012a.7848.7848,0,0,1-.24109.23158.25627.25627,0,0,1-.30821.00473.30042.30042,0,0,1-.08345-.231.82556.82556,0,0,1,.15189-.44043,7.12816,7.12816,0,0,1,.60081-.73805A6.82607,6.82607,0,0,1,820.00354,592.78818Z"/>
        <path class="cls-63" d="M816.13941,592.29095l.77527.45055a1.139,1.139,0,0,1,.43614.49066,4.51077,4.51077,0,0,1,.3386,2.00906l-.77529-.45053a4.51068,4.51068,0,0,0-.33859-2.00907A1.13908,1.13908,0,0,0,816.13941,592.29095Z"/>
        <path class="cls-63" d="M807.85647,607.28616l-.77529-.45053a3.74591,3.74591,0,0,0,3.861-.27857,11.7055,11.7055,0,0,0,4.207-4.83922,15.51364,15.51364,0,0,0,1.76461-6.927l.77526.45054a15.51323,15.51323,0,0,1-1.7646,6.927,11.70559,11.70559,0,0,1-4.207,4.83923A3.74587,3.74587,0,0,1,807.85647,607.28616Z"/>
        <path class="cls-63" d="M815.33049,591.22242a1.84463,1.84463,0,0,1,1.36869.12059l.77527.45055a1.84456,1.84456,0,0,0-1.36868-.1206,11.16311,11.16311,0,0,0-2.83577,1.29187l-.77529-.45053A11.16318,11.16318,0,0,1,815.33049,591.22242Z"/>
        <path class="cls-63" d="M813.27,592.96483a11.16311,11.16311,0,0,1,2.83577-1.29187,1.56705,1.56705,0,0,1,1.95911.77953,4.204,4.204,0,0,1,.37724,1.61025,7.12816,7.12816,0,0,0-.60081.73805.82556.82556,0,0,0-.15189.44043,4.51077,4.51077,0,0,0-.3386-2.00906,1.0451,1.0451,0,0,0-.85232-.62489,6.35085,6.35085,0,0,0-3.09678,1.185l-.12916.07492c-.53632.30965-1.09814.64137-1.67915.97681s-1.14287.65248-1.66.95107q-.07985.04551-.15847.09092a12.75858,12.75858,0,0,0-2.3754,1.66594,4.90692,4.90692,0,0,0-1.40062,2.2269,8.227,8.227,0,0,0-.3066,2.38891c.00658,2.31832.702,4.00376,1.79806,4.87006,1.1024.86261,2.5926.91346,4.22708-.03021a11.70559,11.70559,0,0,0,4.207-4.83923,15.51337,15.51337,0,0,0,1.76461-6.927.3017.3017,0,0,0,.0838.23085.25627.25627,0,0,0,.30821-.00473.7848.7848,0,0,0,.24109-.23158c.01257-.01812.06207-.08757.14392-.19012a17.20624,17.20624,0,0,1-1.93982,7.35561,13.37678,13.37678,0,0,1-4.8063,5.5012c-1.89625,1.0948-3.604,1.02257-4.82814.06125-1.21782-.97234-1.9713-2.8227-1.97846-5.34643a9.43434,9.43434,0,0,1,.36944-2.77792,6.65477,6.65477,0,0,1,1.113-2.16371,11.4857,11.4857,0,0,1,3.535-2.78313c.52992-.30595,1.08544-.612,1.66-.94376S812.72729,593.27816,813.27,592.96483Z"/>
        <path class="cls-63" d="M810.8156,593.49841c.57462-.33175,1.13642-.67079,1.67913-.98412l.77527.45055c-.54271.31332-1.10451.65236-1.67913.98411s-1.13013.63781-1.66.94376a11.4857,11.4857,0,0,0-3.535,2.78313,6.65477,6.65477,0,0,0-1.113,2.16371,9.43434,9.43434,0,0,0-.36944,2.77792c.00716,2.52373.76064,4.37409,1.97846,5.34643a3.5265,3.5265,0,0,0,.40641.27609l-.77528-.45053a3.52959,3.52959,0,0,1-.40641-.2761c-1.21782-.97234-1.9713-2.8227-1.97845-5.34643a9.43413,9.43413,0,0,1,.36944-2.77793,6.6548,6.6548,0,0,1,1.113-2.1637,11.48575,11.48575,0,0,1,3.535-2.78313C809.68546,594.13622,810.241,593.83017,810.8156,593.49841Z"/>
      </g>
      <g>
        <path class="cls-62" d="M816.08088,566.76969S824.2,591.418,842.46665,593.12242C842.46665,593.12242,822.32306,595.41472,816.08088,566.76969Z"/>
        <g>
          <g>
            <ellipse class="cls-61" cx="779.82976" cy="674.05373" rx="8.27958" ry="7.11085" transform="translate(-76.61093 1247.63218) rotate(-74.64998)"/>
            <path class="cls-64" d="M779.38557,675.93583h0c5.52609,1.25775,11.21677-3.04288,12.71048-9.60573l4.31137-38.95893c.38289-3.45985-1.46895-6.5271-4.33445-7.1793h0c-2.8655-.65219-5.86239,1.31149-7.01458,4.59624L772.0843,661.7754C770.59059,668.33824,773.85948,674.67809,779.38557,675.93583Z"/>
          </g>
          <g>
            <path class="cls-62" d="M810.15329,568.638s19.72973-.78356,28.93576,8.53559C839.08905,577.17355,831.4613,562.00787,810.15329,568.638Z"/>
            <path class="cls-63" d="M789.0086,726.25561c1.08639,1.79574,6.15731,1.66292,10.03636.12727l4.93965-52.22034c0-5.99024-4.54667-10.84628-10.15527-10.84628h0c-5.58814,0-10.12209,4.82068-10.15509,10.78078a1.28153,1.28153,0,0,0,.0061.13026l4.71324,48.6186C788.39357,725.73577,787.92221,724.45987,789.0086,726.25561Z"/>
            <g class="cls-1">
              <path class="cls-63" d="M795.99759,650.05581l-9.69094,5.63176c1.44477-.83961,3.44506-.72157,5.6539.55371l9.69094-5.63176C799.44265,649.33424,797.44236,649.2162,795.99759,650.05581Z"/>
              <path class="cls-63" d="M815.11125,698.55778l9.691-5.63176c1.4263-.82888,2.3107-2.59084,2.3178-5.09655l-9.69094,5.63176C817.422,695.96694,816.53756,697.7289,815.11125,698.55778Z"/>
              <polygon class="cls-63" points="817.429 693.461 827.12 687.829 827.158 674.492 817.467 680.124 817.429 693.461"/>
              <polygon class="cls-63" points="809.538 666.389 819.228 660.758 801.651 650.61 791.961 656.241 809.538 666.389"/>
              <path class="cls-63" d="M817.46688,680.12355l9.69094-5.63176c.01431-5.04748-3.53672-11.19812-7.92936-13.7342l-9.69094,5.63176C813.93016,668.92544,817.48119,675.07608,817.46688,680.12355Z"/>
              <path class="cls-63" d="M791.96055,656.24128c-4.39266-2.5361-7.96052-.49556-7.97483,4.55191l-.03781,13.33769c-.01431,5.0475,3.53036,11.18711,7.923,13.72321l17.577,10.14807c4.39263,2.53609,7.96686.50657,7.98117-4.54093l.03781-13.33768c.01431-5.04747-3.53672-11.19811-7.92936-13.7342Z"/>
            </g>
            <path class="cls-63" d="M812.475,741.3563c1.08639,1.71982,9.14957,2.4832,9.14957-3.25379l4.93966-50.01272A10.27348,10.27348,0,0,0,816.409,677.702h0a10.27348,10.27348,0,0,0-10.15527,10.38775l4.71952,46.62526A12.12935,12.12935,0,0,0,812.475,741.3563Z"/>
            <g class="cls-1">
              <path class="cls-65" d="M788.72075,661.438l9.69094-5.63176a1.44,1.44,0,0,1-.65528-1.20134l-9.69094,5.63176A1.44,1.44,0,0,0,788.72075,661.438Z"/>
              <polygon class="cls-65" points="788.065 660.237 797.756 654.605 798.037 650.336 788.346 655.968 788.065 660.237"/>
              <path class="cls-65" d="M798.0371,650.33576a.4602.4602,0,0,1,.18858-.38545l-9.69093,5.63177a.46014.46014,0,0,0-.18859.38544C791.25345,654.278,795.12982,652.02529,798.0371,650.33576Z"/>
              <path class="cls-66" d="M788.8625,655.43337l9.691-5.63175a1.51192,1.51192,0,0,1-.27219.124.28206.28206,0,0,0-.05558.0247l-9.69094,5.63177a.28151.28151,0,0,1,.05558-.02471A1.51045,1.51045,0,0,0,788.8625,655.43337Z"/>
              <path class="cls-65" d="M798.55339,649.80164c1.33183-.77391,1.35708-3.48289,1.27694-4.88975q-4.84553,2.81589-9.69093,5.63176c.08012,1.40686.05488,4.11584-1.277,4.88975C791.76974,653.74388,795.64609,651.49112,798.55339,649.80164Z"/>
              <polygon class="cls-66" points="806.608 659.236 816.299 653.604 800.503 644.484 790.812 650.116 806.608 659.236"/>
              <path class="cls-65" d="M799.83032,644.91178a.48692.48692,0,0,1,.19227-.47534l-9.69093,5.63176a.48691.48691,0,0,0-.19228.47534l0,.00011q4.84555-2.81588,9.69095-5.63176Z"/>
              <path class="cls-66" d="M800.0226,644.43645l-9.69093,5.63177a.4764.4764,0,0,1,.48038.048l9.691-5.63176A.47646.47646,0,0,0,800.0226,644.43645Z"/>
              <polygon class="cls-65" points="808.333 672.989 818.024 667.357 798.412 655.806 788.721 661.438 808.333 672.989"/>
              <path class="cls-65" d="M818.49529,667.40253a.46757.46757,0,0,1-.47177-.04554l-9.69093,5.63176a.46755.46755,0,0,0,.47176.04554C811.71164,671.34477,815.588,669.09207,818.49529,667.40253Z"/>
              <path class="cls-66" d="M808.80573,673.03185l9.69095-5.63175a.46821.46821,0,0,0,.19421-.42948L809,672.60238A.46818.46818,0,0,1,808.80573,673.03185Z"/>
              <polygon class="cls-66" points="809 672.602 818.691 666.971 818.704 662.224 809.013 667.856 809 672.602"/>
              <path class="cls-66" d="M809.01341,667.85569l9.69094-5.63176a1.47717,1.47717,0,0,0-.45762-.99173c-.67606-.64749-1.81591-2.36378-1.28658-6.36437a1.44032,1.44032,0,0,0-.66149-1.26374l-9.691,5.63176a1.44033,1.44033,0,0,1,.6615,1.26374c-.52933,4.00059.61052,5.71688,1.28657,6.36437A1.47714,1.47714,0,0,1,809.01341,667.85569Z"/>
              <path class="cls-65" d="M816.96142,678.64628l9.691-5.63176c4.61352-2.6811,7.16368-8.86321,6.26186-17.53331l-9.69094,5.63176C824.1251,669.78307,821.57495,675.96518,816.96142,678.64628Z"/>
              <polygon class="cls-65" points="823.223 661.113 832.914 655.481 831.208 639.079 821.518 644.711 823.223 661.113"/>
              <path class="cls-65" d="M789.82107,625.22064c1.51992-7.81338,8.15719-10.1947,15.78947-5.78776.22145.12788.44459.26194.66762.40127,7.8138,4.87138,14.24947,15.377,15.23935,24.87688l1.70578,16.40194c1.68085,16.15973-8.63018,23.67641-21.94219,15.99071l-10.89863-6.29232c-4.37986-2.52871-7.65493-9.02708-6.79177-13.47426Z"/>
              <path class="cls-65" d="M803.8802,612.6896l-9.69094,5.63176c2.949-1.71379,7.01969-1.43,11.42128,1.11152.22145.12788.44459.26194.66762.40127,7.8138,4.87138,14.24947,15.377,15.23935,24.87688l9.69094-5.63176c-.98987-9.4999-7.42555-20.0055-15.23935-24.87688-.223-.13933-.44617-.27339-.66762-.40127C810.89989,611.25961,806.82923,610.97581,803.8802,612.6896Z"/>
            </g>
            <path class="cls-66" d="M816.09763,632.96645c-3.66582,1.88292-15.95235,5.44079-19.07564,3.49843-6.33337-3.9387.54464-20.59491.54464-20.59491s21.19959-3.87239,27.5977,6.50974C829.80412,629.90862,819.76345,631.08353,816.09763,632.96645Z"/>
            <circle class="cls-62" cx="783.32491" cy="608.375" r="8.44747"/>
            <path class="cls-62" d="M810.82211,572.33887s48.74515,29.65293,8.533,39.22461C856.76864,607.25979,835.64261,572.57739,810.82211,572.33887Z"/>
            <path class="cls-62" d="M837.13228,590.24492c0,14.77332-11.67236,29.89373-27.38366,29.89373s-30.183-15.44432-30.183-30.21764,12.73653-26.74945,28.44784-26.74945S837.13228,575.4716,837.13228,590.24492Z"/>
            <path class="cls-62" d="M809.52851,564.89407s29.69876,12.29536,32.65378,32.61371C842.18229,597.50778,846.01686,569.693,809.52851,564.89407Z"/>
            <path class="cls-62" d="M794.89335,564.09846S780.31206,600.039,793.07891,616.636C787.17626,613.64846,761.97858,584.833,794.89335,564.09846Z"/>
            <path class="cls-62" d="M808.38538,581.20536s4.10052-3.647,6.4104-1.61293c0,0,.49206-3.69156,5.24974-2.347C820.04552,577.24543,809.02717,568.4899,808.38538,581.20536Z"/>
            <rect class="cls-35" x="771.78847" y="591.37583" width="2.04492" height="15.93508" transform="translate(-179.36439 822.52798) rotate(-50.98656)"/>
            <path class="cls-62" d="M786.69416,574.32609s19.21054-23.98576,40.61042-3.661c0,0,4.97753,11.06174,16.52782,10.5414,0,0-9.8642,4.04515-24.50165-6.11s-18.90961,7.56385-18.90961,7.56385Z"/>
            <path class="cls-63" d="M829.94046,730.25942c-.95491-1.37673-13.73433.33969-13.73433.33969s-4.09112,9.39359-1.89841,11.01467,12.27748.82525,15.82789-5.194A6.32791,6.32791,0,0,0,829.94046,730.25942Z"/>
            <path class="cls-63" d="M806.80522,715.52046c-.95492-1.37673-13.73434.33969-13.73434.33969s-4.09112,9.39359-1.89841,11.01468,12.27748.82524,15.82789-5.194A6.328,6.328,0,0,0,806.80522,715.52046Z"/>
          </g>
        </g>
      </g>
    </g>
    <g id="log-stand-armR">
      <g>
        <ellipse class="cls-61" cx="839.76175" cy="693.05982" rx="7.11085" ry="8.27958" transform="translate(-54.7231 72.23089) rotate(-4.76995)"/>
        <path class="cls-65" d="M840.473,693.03986h0a14.33682,14.33682,0,0,0,9.80028-17.74893l-18.49169-42.60387a8.19179,8.19179,0,0,0-9.73086-4.66087h0a8.1918,8.1918,0,0,0-5.83928,9.07283l6.607,45.9715A14.33681,14.33681,0,0,0,840.473,693.03986Z"/>
      </g>
    </g>
    <g id="log-stand-earR">
      <path class="cls-62" d="M832.5501,579.721s3.98058-17.64461-1.41637-24.54094c0,0-11.7104,7.70561-12.71734,16.34905A16.5379,16.5379,0,0,0,832.5501,579.721Z"/>
    </g>
    <g id="log-stand-earL">
      <path class="cls-62" d="M791.19764,570.19507s-.22887-16.51568,6.49986-22.12019c0,0,10.25358,12.81832,9.41693,21.47991C807.11443,569.55479,801.14593,572.07264,791.19764,570.19507Z"/>
    </g>
    <g id="morning">
      <polygon class="cls-67" points="169.012 390.75 688.965 90.61 1104.632 330.715 1104.927 771.053 584.973 1071.25 168.743 830.543 169.012 390.75"/>
    </g>
  </g>
</svg>
