<svg xmlns="http://www.w3.org/2000/svg" viewBox="0 0 205.4 182.6"><defs><style>.cls-1{fill:#303030;}.cls-2{fill:#ceab89;}.cls-3{fill:#d6b79d;}.cls-4{fill:#b28d6f;}.cls-5{fill:#b9e8ef;}.cls-6{fill:#fff;}.cls-7{fill:#181818;}.cls-8{fill:#0c0c0c;}.cls-9{fill:#242424;}.cls-10{fill:#595959;}</style></defs><g id="Layer_2" data-name="Layer 2"><g id="Layer_4" data-name="Layer 4"><polygon points="7.9 78.9 3.9 81.2 3.9 140.5 7.9 138.2 7.9 78.9"/><polygon class="cls-1" points="0 138.2 0 78.9 3.9 81.2 3.9 140.5 0 138.2"/><polygon points="81 121.1 77 123.4 77 182.6 81 180.4 81 121.1"/><polygon class="cls-1" points="73.1 180.4 73.1 121.1 77 123.4 77 182.6 73.1 180.4"/><polygon points="205.4 49.4 201.4 51.6 201.4 110.9 205.4 108.6 205.4 49.4"/><polygon class="cls-1" points="197.5 108.6 197.5 49.4 201.4 51.6 201.4 110.9 197.5 108.6"/><polygon class="cls-2" points="0 78.9 128.4 4.8 205.2 49.4 77 123.4 0 78.9"/><polygon class="cls-2" points="0 74.1 128.4 0 205.2 44.6 77 118.6 0 74.1"/><polygon class="cls-3" points="0 78.9 0 74.1 77 118.6 77 123.4 0 78.9"/><polygon class="cls-4" points="205.2 44.6 205.2 49.4 77 123.4 77 118.6 205.2 44.6"/><path class="cls-5" d="M17.9,70,91,27.2a6.8,6.8,0,0,1,6.5,0l22.6,13.1a6.5,6.5,0,0,1,0,11.2L52,91.3a6.1,6.1,0,0,1-6.4,0l-27.7-16A3,3,0,0,1,17.9,70Z"/><path class="cls-6" d="M106.9,32.7l22.9,13.2L52.1,91.3a6.5,6.5,0,0,1-6.6,0L26,80Z"/><polygon class="cls-1" points="89.5 48.3 161.9 6.5 161.9 48.3 89.5 90.1 89.5 48.3"/><polygon class="cls-7" points="100.9 52.5 158.8 19.1 158.8 52.5 100.9 86 100.9 52.5"/><polygon class="cls-8" points="114.6 83.1 131 73.6 139.2 78.4 123 87.7 114.6 83.1"/><polygon class="cls-8" points="114.6 83.7 131 74.2 139.2 79 123 88.3 114.6 83.7"/><polygon class="cls-9" points="124.4 84.3 124.4 70 133.7 64.7 133.7 78.9 124.4 84.3"/><polygon class="cls-1" points="89.5 48.3 100.9 52.5 158.8 19.1 161.9 6.5 89.5 48.3"/><polygon class="cls-10" points="100.9 86 89.5 90.1 89.5 48.3 100.9 52.5 100.9 86"/><polygon class="cls-8" points="158.8 19.1 161.9 6.5 161.9 48.3 158.8 52.5 158.8 19.1"/><polygon class="cls-9" points="114.6 83.1 114.6 83.7 123 88.3 123 87.7 114.6 83.1"/><polygon points="123 87.7 139.2 78.4 139.2 79 123 88.3 123 87.7"/></g></g></svg>