<svg xmlns="http://www.w3.org/2000/svg" xmlns:xlink="http://www.w3.org/1999/xlink" viewBox="0 0 1247.8896 1224">
  <defs>
    <style>
      .cls-1 {
        isolation: isolate;
      }

      .cls-2, .cls-24 {
        opacity: 0.5;
      }

      .cls-24, .cls-3 {
        mix-blend-mode: multiply;
      }

      .cls-3 {
        opacity: 0.65;
      }

      .cls-22, .cls-4 {
        fill: #131111;
      }

      .cls-5 {
        fill: #303030;
      }

      .cls-6 {
        fill: #ceab89;
      }

      .cls-7 {
        fill: #d6b79d;
      }

      .cls-8 {
        fill: #b28d6f;
      }

      .cls-9 {
        fill: #b9e8ef;
      }

      .cls-10 {
        fill: #fff;
      }

      .cls-11 {
        fill: #181818;
      }

      .cls-12 {
        fill: #0c0c0c;
      }

      .cls-13 {
        fill: #242424;
      }

      .cls-14 {
        fill: #595959;
      }

      .cls-15 {
        fill: #3f3f3f;
      }

      .cls-16 {
        fill: #f4dac4;
      }

      .cls-17 {
        fill: #ccc0b4;
      }

      .cls-18 {
        fill: #d0c3b5;
      }

      .cls-19 {
        fill: #bfb0a1;
      }

      .cls-20 {
        fill: none;
        stroke: #383838;
        stroke-miterlimit: 10;
        stroke-width: 0.55px;
      }

      .cls-20, .cls-22 {
        stroke-linecap: round;
      }

      .cls-21 {
        fill: #383838;
      }

      .cls-22 {
        stroke: #131111;
        stroke-linejoin: round;
        stroke-width: 1.1px;
      }

      .cls-23 {
        fill: #e0b899;
      }

      .cls-24 {
        fill: url(#linear-gradient);
      }
    </style>
    <linearGradient id="linear-gradient" x1="420.53312" y1="996.58658" x2="840.67932" y2="196.93746" gradientUnits="userSpaceOnUse">
      <stop offset="0.0419" stop-color="#ffd26a"/>
      <stop offset="0.06342" stop-color="#fac861"/>
      <stop offset="0.20312" stop-color="#da8a2d"/>
      <stop offset="0.30556" stop-color="#c7640c"/>
      <stop offset="0.35911" stop-color="#bf5500"/>
      <stop offset="0.43428" stop-color="#b64e06"/>
      <stop offset="0.55499" stop-color="#9f3b17"/>
      <stop offset="0.70528" stop-color="#791d32"/>
      <stop offset="0.82619" stop-color="#55004b"/>
      <stop offset="0.94693" stop-color="#2d003f"/>
    </linearGradient>
  </defs>
  <g class="cls-1">
    <g id="log-sit">
      <g>
        <g class="cls-1">
          <path class="cls-4" d="M748.79079,782.58535l9.69094,5.63178c-1.44683-.84082-3.45129-.7215-5.66326.55558l-9.69094-5.63176C745.3395,781.86387,747.34395,781.74454,748.79079,782.58535Z"/>
          <path class="cls-4" d="M729.67729,831.08729l-9.69095-5.63176c-1.4284-.8301-2.31381-2.59628-2.32092-5.10567l9.69094,5.63176C727.36347,828.491,728.24888,830.25719,729.67729,831.08729Z"/>
          <polygon class="cls-4" points="727.356 825.982 717.665 820.35 717.628 807.012 727.319 812.644 727.356 825.982"/>
          <polygon class="cls-4" points="735.241 798.921 725.55 793.289 743.128 783.141 752.818 788.773 735.241 798.921"/>
          <path class="cls-4" d="M727.31855,812.64393l-9.69095-5.63176c-.01431-5.04747,3.53032-11.18706,7.92289-13.72311l9.69094,5.63176C730.84886,801.45687,727.30424,807.59646,727.31855,812.64393Z"/>
          <path class="cls-4" d="M752.81847,788.77271c4.39257-2.536,7.96677-.50652,7.98108,4.541l.03781,13.33769c.01431,5.0475-3.5367,11.1981-7.92927,13.73415l-17.577,10.14811c-4.39257,2.53605-7.96039.49551-7.9747-4.552l-.03781-13.33769c-.01431-5.04747,3.53031-11.18706,7.92288-13.72311Z"/>
        </g>
        <path class="cls-4" d="M763.75077,885.79015c-1.08639,1.71983-2.53616,2.67692-5.37831,3.01022s-11.89965-5.92054-11.89965-11.65754l-4.93965-50.01271a10.27348,10.27348,0,0,1,10.15526-10.38776h0a10.27349,10.27349,0,0,1,10.15527,10.38776l-4.71951,46.62526C757.1242,876.52307,764.83716,884.07033,763.75077,885.79015Z"/>
        <path class="cls-4" d="M770.73259,864.3466c-1.08639,1.71982-2.53616,2.67691-5.37831,3.01022s-11.89965-5.92055-11.89965-11.65754L748.515,805.68656a10.27349,10.27349,0,0,1,10.15527-10.38776h0c5.6086,0,24.6075,9.76911,24.6075,15.5061L764.106,852.31182C764.106,855.07952,771.819,862.62677,770.73259,864.3466Z"/>
      </g>
    </g>
    <g id="overlap-parts">
      <g>
        <g>
          <polygon points="718.06 847.631 714.122 849.905 714.122 909.188 718.06 906.915 718.06 847.631"/>
          <polygon class="cls-5" points="710.184 906.915 710.184 847.631 714.122 849.905 714.122 909.188 710.184 906.915"/>
        </g>
        <g>
          <polygon points="791.133 889.82 787.195 892.094 787.195 951.377 791.133 949.104 791.133 889.82"/>
          <polygon class="cls-5" points="783.257 949.104 783.257 889.82 787.195 892.094 787.195 951.377 783.257 949.104"/>
        </g>
        <g>
          <polygon points="915.548 818.093 911.61 820.367 911.61 879.65 915.548 877.377 915.548 818.093"/>
          <polygon class="cls-5" points="907.672 877.377 907.672 818.093 911.61 820.367 911.61 879.65 907.672 877.377"/>
        </g>
        <polygon class="cls-6" points="710.184 847.631 838.536 773.527 915.368 818.093 787.195 892.094 710.184 847.631"/>
        <polygon class="cls-6" points="710.184 842.839 838.536 768.734 915.368 813.301 787.195 887.301 710.184 842.839"/>
        <polygon class="cls-7" points="710.184 847.631 710.184 842.839 787.195 887.301 787.195 892.094 710.184 847.631"/>
        <polygon class="cls-8" points="915.368 813.301 915.368 818.093 787.195 892.094 787.195 887.301 915.368 813.301"/>
        <g>
          <path class="cls-9" d="M728.07377,838.7341l73.14076-42.76117a6.46127,6.46127,0,0,1,6.46127,0l22.61756,13.05825a6.46126,6.46126,0,0,1,0,11.19124l-68.08226,39.84046a6.46127,6.46127,0,0,1-6.46123,0l-27.67607-15.9786A3.08893,3.08893,0,0,1,728.07377,838.7341Z"/>
          <path class="cls-10" d="M817.07822,801.40141l22.90713,13.22539-77.684,45.38394a6.64183,6.64183,0,0,1-6.64182,0L736.135,848.73838Z"/>
        </g>
        <g>
          <polygon class="cls-5" points="799.664 817.064 872.098 775.244 872.098 817.064 799.664 858.884 799.664 817.064"/>
          <polygon class="cls-11" points="811.086 821.243 869.034 787.787 869.033 821.243 811.086 854.699 811.086 821.243"/>
          <polygon class="cls-12" points="824.769 851.818 841.163 842.353 849.362 847.118 833.164 856.459 824.769 851.818"/>
          <polygon class="cls-12" points="824.769 852.41 841.163 842.945 849.362 847.709 833.164 857.051 824.769 852.41"/>
          <polygon class="cls-13" points="834.612 853.067 834.612 838.757 843.906 833.391 843.906 847.677 834.612 853.067"/>
          <polygon class="cls-5" points="799.664 817.064 811.086 821.243 869.034 787.787 872.098 775.244 799.664 817.064"/>
          <polygon class="cls-14" points="811.086 854.699 799.664 858.884 799.664 817.064 811.086 821.243 811.086 854.699"/>
          <polygon class="cls-12" points="869.034 787.787 872.098 775.244 872.098 817.064 869.033 821.243 869.034 787.787"/>
          <polygon class="cls-13" points="824.769 851.818 824.769 852.41 833.164 857.051 833.164 856.459 824.769 851.818"/>
          <polygon points="833.164 856.459 849.362 847.118 849.362 847.709 833.164 857.051 833.164 856.459"/>
        </g>
      </g>
      <path class="cls-15" d="M314.32555,793.2437a5.50327,5.50327,0,0,1,2.76093,4.77132v56.79876l-103.248-59.61047-.00011-50.20434a5.50326,5.50326,0,0,1,8.24558-4.77133"/>
      <line class="cls-15" x1="222.08396" y1="740.22764" x2="314.32555" y2="793.2437"/>
      <path class="cls-15" d="M313.92737,856.39328l-103.248-59.61048-.00011-50.20433a5.50325,5.50325,0,0,1,8.24557-4.77133l92.24159,53.01606a5.50323,5.50323,0,0,1,2.76093,4.77131Z"/>
      <polygon class="cls-15" points="317.087 854.818 313.927 856.393 313.927 799.595 317.086 798.015 317.087 854.818"/>
    </g>
    <g id="log-sit-armR">
      <g>
        <ellipse class="cls-16" cx="796.26803" cy="794.62076" rx="7.45211" ry="8.72512" transform="translate(-325.3312 881.10825) rotate(-49.35008)"/>
        <path class="cls-17" d="M795.62536,794.847l0,0c-3.65092,5.97939-11.42572,6.90316-17.3655,2.06329l-31.50642-32.69053c-2.798-2.90316-3.473-7.38146-1.57981-10.482v0c1.89315-3.10056,5.7715-3.86872,9.07778-1.798L791.481,775.257C797.42079,780.09685,799.27628,788.8676,795.62536,794.847Z"/>
      </g>
    </g>
    <g id="log-sit-upper">
      <g>
        <g class="cls-1">
          <path class="cls-18" d="M756.057,793.9667l-9.69094-5.63176a1.449,1.449,0,0,0,.6553-1.20135l9.69094,5.63176A1.449,1.449,0,0,1,756.057,793.9667Z"/>
          <polygon class="cls-18" points="756.712 792.765 747.021 787.134 746.741 782.865 756.432 788.496 756.712 792.765"/>
          <path class="cls-18" d="M746.74056,782.86459a.47138.47138,0,0,0-.1849-.39767l9.69093,5.63176a.47136.47136,0,0,1,.18491.39767C753.52422,786.80683,749.64784,784.55413,746.74056,782.86459Z"/>
          <path class="cls-19" d="M755.91585,787.94915l-9.69095-5.63175a1.51742,1.51742,0,0,0,.27785.126.26735.26735,0,0,1,.0529.02349l9.69093,5.63176a.26675.26675,0,0,0-.05289-.02349A1.51639,1.51639,0,0,1,755.91585,787.94915Z"/>
          <path class="cls-18" d="M746.225,782.31746c-1.33266-.77433-1.35769-3.47838-1.27763-4.87674q4.84553,2.81589,9.69093,5.63176c-.08,1.39836-.055,4.10241,1.27765,4.87674C753.00866,786.2597,749.13235,784.00688,746.225,782.31746Z"/>
          <polygon class="cls-19" points="738.17 791.757 728.479 786.126 744.281 777.002 753.972 782.634 738.17 791.757"/>
          <path class="cls-18" d="M744.94737,777.4406a.48892.48892,0,0,0-.19053-.4845l9.69093,5.63176a.48892.48892,0,0,1,.19055.4845l0,.00012q-4.84555-2.81588-9.691-5.63176Z"/>
          <path class="cls-19" d="M744.75683,776.9561l9.69094,5.63176a.47221.47221,0,0,0-.4758.04617l-9.69094-5.63176A.47221.47221,0,0,1,744.75683,776.9561Z"/>
          <polygon class="cls-18" points="736.445 805.51 726.754 799.878 746.366 788.335 756.057 793.967 736.445 805.51"/>
          <polygon class="cls-19" points="735.778 805.131 726.087 799.499 726.073 794.745 735.764 800.377 735.778 805.131"/>
          <path class="cls-18" d="M735.97166,805.55584l-9.691-5.63176a.46939.46939,0,0,0,.47342-.04559l9.69094,5.63176A.46937.46937,0,0,1,735.97166,805.55584Z"/>
          <path class="cls-19" d="M735.97026,805.55338l-9.691-5.63174a.46045.46045,0,0,1-.19259-.42216l9.69095,5.63176A.46037.46037,0,0,0,735.97026,805.55338Z"/>
          <path class="cls-19" d="M735.76419,800.37721l-9.69094-5.63176a1.47747,1.47747,0,0,1,.45777-.99179c.67594-.64745,1.81586-2.36378,1.28651-6.36435a1.45054,1.45054,0,0,1,.66154-1.26377L738.17,791.7573a1.45051,1.45051,0,0,0-.66153,1.26377c.52934,4.00057-.61057,5.7169-1.28652,6.36435A1.47747,1.47747,0,0,0,735.76419,800.37721Z"/>
          <path class="cls-19" d="M753.972,782.634c.38311-.22118.697-.0276.66636.43833-.08529,1.48952-.05137,4.46076,1.55536,5.00282.14725.04725.22456.20839.23782.42117l.28082,4.269a1.449,1.449,0,0,1-.65529,1.20136l-19.60037,11.53675c-.37669.21758-.67781.04884-.679-.37222l-.01348-4.754a1.47747,1.47747,0,0,1,.45777-.99179c.676-.64745,1.81586-2.36378,1.28652-6.36435a1.45051,1.45051,0,0,1,.66153-1.26377Z"/>
          <path class="cls-18" d="M727.81758,811.17285l-9.691-5.63175c-4.61347-2.68107-7.16492-8.86177-6.2632-17.53105l9.69094,5.63176C720.65265,802.31109,723.2041,808.4918,727.81758,811.17285Z"/>
          <polygon class="cls-18" points="721.554 793.642 711.863 788.01 713.576 771.597 723.267 777.229 721.554 793.642"/>
          <path class="cls-18" d="M761.18693,789.8586c.8696,4.44347-2.41186,10.95283-6.79179,13.48158l-10.89847,6.29224c-13.3057,7.68205-23.62311.16908-21.9423-15.99061l1.7122-16.413c.98342-9.49616,7.41918-20.00184,15.23289-24.87316.2187-.13641.43813-.26815.65531-.39356,7.63773-4.41038,14.28106-2.03063,15.80189,5.78Zm-5.1299,4.1081a1.449,1.449,0,0,0,.6553-1.20135l-.28083-4.269c-.01327-.21278-.09056-.37392-.23782-.42116-1.60672-.54209-1.64065-3.51332-1.55536-5.00283.0306-.46593-.28325-.65953-.66636-.43834l-15.802,9.12327a1.45056,1.45056,0,0,0-.66152,1.26377c.52935,4.00058-.61057,5.7169-1.28651,6.36435a1.47748,1.47748,0,0,0-.45778.99179l.01348,4.754c.00119.42106.30231.58981.66741.379l19.612-11.54355"/>
          <path class="cls-18" d="M740.89863,745.21681l9.69094,5.63177c-2.95184-1.71543-7.02778-1.4313-11.4348,1.11352-.21718.12541-.43661.25715-.65531.39356-7.81371,4.87132-14.24947,15.377-15.23289,24.87316l-9.69094-5.63176c.98342-9.49616,7.41917-20.00184,15.23289-24.87316.2187-.13641.43813-.26815.65531-.39356C733.87085,743.78552,737.94679,743.50139,740.89863,745.21681Z"/>
        </g>
        <g>
          <line class="cls-20" x1="737.06233" y1="760.45944" x2="737.32942" y2="771.54553"/>
          <path class="cls-21" d="M736.70857,771.52945a.62042.62042,0,1,0,.60523-.6351A.62049.62049,0,0,0,736.70857,771.52945Z"/>
        </g>
        <g>
          <line class="cls-20" x1="747.20345" y1="754.79161" x2="748.08382" y2="766.99115"/>
          <path class="cls-21" d="M747.463,767.00485a.62026.62026,0,1,0,.574-.66339A.62028.62028,0,0,0,747.463,767.00485Z"/>
        </g>
        <path class="cls-19" d="M726.42441,759.60309c3.66581,1.88292,15.804,1.83938,18.92732-.103,6.33338-3.9387,1.8608-11.1089,1.8608-11.1089s-21.58817-8.26816-27.98628,2.114C714.58646,758.03409,722.75859,757.72018,726.42441,759.60309Z"/>
      </g>
      <g>
        <path class="cls-22" d="M744.38008,710.9603s18.191,10.55012,12.7106,27.51944C757.09068,738.47974,772.933,720.56472,744.38008,710.9603Z"/>
        <g>
          <path class="cls-22" d="M742.2101,705.29093s8.11909,24.64835,26.38578,26.35274C768.59588,731.64367,748.45228,733.936,742.2101,705.29093Z"/>
          <path class="cls-22" d="M758.17423,729.33024c0,14.77331-10.60125,25.55755-26.31255,25.55755s-28.44783-11.97614-28.44783-26.74945,12.73652-26.74946,28.44783-26.74946S758.17423,714.55692,758.17423,729.33024Z"/>
          <path class="cls-22" d="M736.28252,707.1592s19.72973-.78355,28.93576,8.53559C765.21828,715.69479,757.59053,700.52912,736.28252,707.1592Z"/>
          <rect class="cls-23" x="729.36798" y="739.44693" width="13.21901" height="17.33386" rx="6.6095"/>
          <path class="cls-16" d="M756.86316,732.4078c7.52244,7.14761-1.28012,22.12912-16.41253,22.12912s-28.75489-8.19048-28.75489-23.32289,4.9507-28.13131,20.08312-28.13131q.31776,0,.63383.00718C747.25234,703.42675,756.86316,717.48723,756.86316,732.4078Z"/>
          <circle class="cls-22" cx="709.45413" cy="746.89624" r="8.44747"/>
          <path class="cls-22" d="M736.95132,710.86011s39.43828,27.77706,19.58849,37.067C775.72125,742.11255,760.42945,711.25024,736.95132,710.86011Z"/>
          <path class="cls-22" d="M735.65774,703.41531s29.69876,12.29537,32.65377,32.61372C768.31151,736.029,772.14609,708.21425,735.65774,703.41531Z"/>
          <rect class="cls-6" x="697.9177" y="729.89707" width="2.04492" height="15.93508" transform="translate(-314.3641 816.45227) rotate(-50.98656)"/>
          <g class="cls-1">
            <path class="cls-4" d="M759.44362,721.63816a1.13946,1.13946,0,0,0-.43614-.49061l.77526.45055a1.13926,1.13926,0,0,1,.43615.4906,4.61429,4.61429,0,0,1,.33826,2.00925,15.5872,15.5872,0,0,1-1.7646,6.927,11.79788,11.79788,0,0,1-4.21359,4.843,3.75159,3.75159,0,0,1-3.84874.28012l-.77528-.45053a3.75164,3.75164,0,0,0,3.84875-.28013,11.798,11.798,0,0,0,4.21359-4.843,15.5872,15.5872,0,0,0,1.7646-6.927A4.6146,4.6146,0,0,0,759.44362,721.63816Z"/>
            <path class="cls-4" d="M747.97407,731.75226l-.77528-.45053a.33592.33592,0,0,0,.1959-.05217.85581.85581,0,0,0,.33987-.41884.73163.73163,0,0,0,.0509-.221l.77527.45055a.7316.7316,0,0,1-.05089.221.85594.85594,0,0,1-.33987.41885A.33591.33591,0,0,1,747.97407,731.75226Z"/>
            <path class="cls-4" d="M747.78525,730.53814a.26358.26358,0,0,0-.11359-.2177l.77527.45055a.26355.26355,0,0,1,.1136.21769Z"/>
            <path class="cls-4" d="M748.98457,736.36994c-1.18023-.93383-1.91678-2.69776-1.97454-5.07808q.19379.11263.38764.22542l.29709.17251.09055.05262c.05775,2.38031.7943,4.14424,1.97454,5.07807a3.52752,3.52752,0,0,0,.40655.27617l-.77529-.45053A3.5305,3.5305,0,0,1,748.98457,736.36994Z"/>
            <path class="cls-4" d="M747.78531,731.7424l-.77529-.45053c.0623.00114.12511.00439.18878.00985l.77527.45054C747.9104,731.7468,747.8476,731.74355,747.78531,731.7424Z"/>
            <path class="cls-4" d="M747.67167,730.32045l.77527.45055a.1927.1927,0,0,0-.0793-.0249,3.24264,3.24264,0,0,0-.5671.00095,3.98794,3.98794,0,0,0-1.6335.54188l-.77528-.45054a3.98794,3.98794,0,0,1,1.6335-.54188,3.24264,3.24264,0,0,1,.5671-.00095A.19288.19288,0,0,1,747.67167,730.32045Z"/>
            <path class="cls-4" d="M759.56353,720.20234l.77527.45054a1.86643,1.86643,0,0,0-1.36506-.13065,11.53491,11.53491,0,0,0-2.84206,1.30281c-.54278.31338-1.10459.65244-1.67283.98052-.57466.33178-1.13016.63779-1.66636.94737a11.50707,11.50707,0,0,0-3.53506,2.78316,6.70971,6.70971,0,0,0-1.10656,2.16,8.55137,8.55137,0,0,0-.35035,2.05094l-.77529-.45053a8.55284,8.55284,0,0,1,.35036-2.051,6.70971,6.70971,0,0,1,1.10656-2.16,11.50723,11.50723,0,0,1,3.53507-2.78316c.5362-.30958,1.09169-.61559,1.66635-.94737.56825-.32808,1.13-.66714,1.67284-.98052a11.535,11.535,0,0,1,2.842-1.30281A1.86641,1.86641,0,0,1,759.56353,720.20234Z"/>
            <path class="cls-4" d="M743.67439,733.30716a2.02659,2.02659,0,0,1,.15035-.20243l.77526.45056a2.02581,2.02581,0,0,0-.15034.20241Z"/>
            <path class="cls-4" d="M743.92735,734.01318l-.77528-.45054a.28553.28553,0,0,0,.28512-.02841.7685.7685,0,0,0,.2372-.22707l.77527.45054a.76848.76848,0,0,1-.23719.22707A.28551.28551,0,0,1,743.92735,734.01318Z"/>
            <path class="cls-4" d="M746.167,731.28893a3.98794,3.98794,0,0,1,1.6335-.54188,3.24264,3.24264,0,0,1,.5671-.00095c.114.01094.1821.10666.1929.24257a.519.519,0,0,1,.0002.07161.73159.73159,0,0,1-.0509.221.85581.85581,0,0,1-.33987.41883.33593.33593,0,0,1-.19588.05215c-.06368-.00545-.12649-.00871-.18877-.00984a3.17571,3.17571,0,0,0-1.65177.46255l-.01957.01125a5.74875,5.74875,0,0,0-1.514,1.339c-.08574.10659-.13758.1784-.15037.19509a.72.72,0,0,1-.23717.23441.2677.2677,0,0,1-.31224.0093.318.318,0,0,1-.08063-.23268.81129.81129,0,0,1,.14916-.43884,7.13815,7.13815,0,0,1,.60611-.74378,6.81978,6.81978,0,0,1,1.55614-1.26884Z"/>
            <path class="cls-4" d="M760.9328,721.30911a5.37,5.37,0,0,1,.40321,2.33917,17.09774,17.09774,0,0,1-1.94169,7.60974,13.40045,13.40045,0,0,1-4.81282,5.505c-1.88973,1.091-3.59748,1.01884-4.82165.05751-1.18024-.93383-1.91679-2.69776-1.97454-5.07808.06229.00115.12509.0044.18876.00986a.33591.33591,0,0,0,.1959-.05215.85594.85594,0,0,0,.33987-.41885.7316.7316,0,0,0,.05089-.221c.01362,2.29977.701,3.97592,1.79758,4.83416,1.09608.86625,2.58619.90979,4.22065-.02652a11.79788,11.79788,0,0,0,4.21359-4.843,15.5872,15.5872,0,0,0,1.7646-6.927,4.61429,4.61429,0,0,0-.33826-2.00925,1.04535,1.04535,0,0,0-.85234-.62486,6.365,6.365,0,0,0-3.10257,1.18835l-.12974.07524c-.53.306-1.0918.63771-1.67285.97319-.58731.33908-1.14277.65241-1.66634.95469-.05334.03042-.106.06063-.15847.09093a12.8,12.8,0,0,0-2.3754,1.66594,4.9171,4.9171,0,0,0-1.3942,2.2232,7.9869,7.9869,0,0,0-.30645,2.3533c-.0108-.13592-.07891-.23163-.1929-.24258a3.24277,3.24277,0,0,0-.56711.00094,8.55137,8.55137,0,0,1,.35035-2.05094,6.70971,6.70971,0,0,1,1.10656-2.16,11.50707,11.50707,0,0,1,3.53506-2.78316c.5362-.30958,1.0917-.61559,1.66636-.94737.56824-.32808,1.13-.66714,1.67283-.98052a11.53491,11.53491,0,0,1,2.84206-1.30281A1.59052,1.59052,0,0,1,760.9328,721.30911Z"/>
            <path class="cls-4" d="M746.131,731.30993l-.77529-.45054.036-.021.77527.45054Z"/>
            <path class="cls-4" d="M743.92735,734.01318l-.77528-.45054a.19249.19249,0,0,1-.02711-.01911l.77526.45055A.194.194,0,0,0,743.92735,734.01318Z"/>
            <path class="cls-4" d="M743.90023,733.99407l-.77528-.45053a.3181.3181,0,0,1-.08063-.23269l.77528.45054A.318.318,0,0,0,743.90023,733.99407Z"/>
            <path class="cls-4" d="M743.96876,733.32255l-.77527-.45054a7.13721,7.13721,0,0,1,.6061-.74378,6.81963,6.81963,0,0,1,1.55615-1.26884l.77527.45055a6.8195,6.8195,0,0,0-1.55614,1.26883A7.13815,7.13815,0,0,0,743.96876,733.32255Z"/>
            <path class="cls-4" d="M743.8196,733.76139l-.77528-.45054a.81123.81123,0,0,1,.14917-.43884l.77527.45054A.81129.81129,0,0,0,743.8196,733.76139Z"/>
            <path class="cls-4" d="M742.27017,730.814l.77527.45055a1.16947,1.16947,0,0,1,.4392.48565,4.685,4.685,0,0,1,.335,2.01115l-.77528-.45053a4.68482,4.68482,0,0,0-.335-2.01116A1.16942,1.16942,0,0,0,742.27017,730.814Z"/>
            <path class="cls-4" d="M733.98181,745.80648l-.77529-.45053a3.7625,3.7625,0,0,0,3.86309-.27713,11.79794,11.79794,0,0,0,4.21342-4.84291,15.56224,15.56224,0,0,0,1.75818-6.92326l.77527.45054a15.56211,15.56211,0,0,1-1.75818,6.92326,11.79787,11.79787,0,0,1-4.21342,4.84291A3.76244,3.76244,0,0,1,733.98181,745.80648Z"/>
            <path class="cls-4" d="M741.458,729.73682a1.86366,1.86366,0,0,1,1.36707.12664l.77527.45054a1.86366,1.86366,0,0,0-1.36707-.12664,11.47924,11.47924,0,0,0-2.83581,1.29923l-.77529-.45053A11.47921,11.47921,0,0,1,741.458,729.73682Z"/>
            <path class="cls-4" d="M736.94307,732.02016c.57466-.33179,1.13646-.67083,1.67908-.98411l.77528.45054c-.54262.31328-1.10442.65233-1.67908.98411-.56826.32808-1.13014.63779-1.66012.94377a11.5054,11.5054,0,0,0-3.53488,2.78307,6.65555,6.65555,0,0,0-1.11315,2.16381,9.43788,9.43788,0,0,0-.36944,2.77791c.00713,2.51641.76061,4.37411,1.98482,5.34276a3.49259,3.49259,0,0,0,.41426.28274l-.77529-.45053a3.4954,3.4954,0,0,1-.41425-.28275c-1.22421-.96866-1.97768-2.82635-1.98482-5.34277a9.43819,9.43819,0,0,1,.36944-2.7779,6.6557,6.6557,0,0,1,1.11315-2.16382,11.50544,11.50544,0,0,1,3.53489-2.78306C735.81293,732.658,736.37482,732.34824,736.94307,732.02016Z"/>
            <path class="cls-4" d="M739.39743,731.48659a11.47924,11.47924,0,0,1,2.83581-1.29923,1.57783,1.57783,0,0,1,1.95907.78688,4.21424,4.21424,0,0,1,.38256,1.60453,7.13815,7.13815,0,0,0-.60611.74378.81129.81129,0,0,0-.14916.43884,4.685,4.685,0,0,0-.335-2.01115,1.06514,1.06514,0,0,0-.85875-.62117,6.35036,6.35036,0,0,0-3.0967,1.185l-.1292.07495c-.53.306-1.0918.6377-1.67911.97678-.58106.33548-1.13652.64882-1.66009.95111q-.07975.04547-.15848.09092a12.75912,12.75912,0,0,0-2.3754,1.66595,4.85063,4.85063,0,0,0-1.39418,2.22319,8.03424,8.03424,0,0,0-.31294,2.39256c.00657,2.31833.702,4.00381,1.798,4.87008,1.1023.86268,2.5926.90611,4.22706-.0302a11.79787,11.79787,0,0,0,4.21342-4.84291,15.56211,15.56211,0,0,0,1.75818-6.92326.33153.33153,0,0,0,.08375.23088.2677.2677,0,0,0,.31224-.0093.76848.76848,0,0,0,.23719-.22707,2.02659,2.02659,0,0,1,.15035-.20243,17.2538,17.2538,0,0,1-1.94635,7.368,13.37626,13.37626,0,0,1-4.80624,5.50115c-1.89631,1.09484-3.60389,1.02254-4.82184.05762-1.22421-.96865-1.97769-2.82635-1.98482-5.34276a9.43788,9.43788,0,0,1,.36944-2.77791,6.65555,6.65555,0,0,1,1.11315-2.16381,11.5054,11.5054,0,0,1,3.53488-2.78307c.53-.306,1.09186-.61569,1.66012-.94377C738.293,732.13892,738.85481,731.79987,739.39743,731.48659Z"/>
          </g>
          <path class="cls-22" d="M712.82338,712.84734s19.21055-23.98576,40.61043-3.661c0,0,4.97753,11.06173,16.52782,10.5414,0,0-9.8642,4.04514-24.50165-6.11s-18.90962,7.56385-18.90962,7.56385Z"/>
          <path class="cls-22" d="M740.7829,712.61575c-21.41774,23.42341-9.61733,44.18929-9.61733,44.18929s-17.17833-12.59766-12.56537-40.09329C721.33517,700.40991,740.7829,712.61575,740.7829,712.61575Z"/>
          <path class="cls-22" d="M726.86331,703.20377s-14.5813,35.94059-1.81445,52.53749C719.14622,752.75378,693.94853,723.93835,726.86331,703.20377Z"/>
        </g>
      </g>
    </g>
    <g id="log-sit-armL">
      <g>
        <ellipse class="cls-16" cx="749.73623" cy="822.44429" rx="7.2029" ry="8.35105" transform="translate(-363.13605 828.30196) rotate(-47.94943)"/>
        <path class="cls-18" d="M749.17643,822.9012l0,0a15.33663,15.33663,0,0,1-19.99252-6.5206l-15.79023-43.58612a7.91892,7.91892,0,0,1,4.17949-9.89291h0a8.81047,8.81047,0,0,1,10.85547,2.7816L755.695,803.84125A13.8244,13.8244,0,0,1,749.17643,822.9012Z"/>
      </g>
    </g>
    <g id="log-sit-earR">
      <path class="cls-22" d="M752.58152,708.71632s.22887-16.51568-6.49986-22.1202c0,0-10.25359,12.81833-9.41693,21.47991C736.66473,708.076,742.63323,710.59389,752.58152,708.71632Z"/>
    </g>
    <g id="log-sit-earL">
      <path class="cls-22" d="M711.22905,718.24221s-3.98057-17.64462,1.41638-24.54094c0,0,11.7104,7.7056,12.71733,16.34905A16.5379,16.5379,0,0,1,711.22905,718.24221Z"/>
    </g>
    <g id="dusk">
      <polygon class="cls-24" points="170.245 392.153 690.197 92.014 1105.865 332.118 1106.16 772.457 586.206 1072.653 169.975 831.946 170.245 392.153"/>
    </g>
  </g>
</svg>
