<svg xmlns="http://www.w3.org/2000/svg" viewBox="0 0 262.9 208.7"><defs><style>.cls-1{fill:#d1d1d1;}.cls-2{fill:#e8e8e8;}.cls-3{fill:#ceab89;}.cls-4{fill:#aaaaa9;}.cls-5{fill:#999997;}.cls-6{fill:#adadac;}.cls-7{fill:#c1c1c1;}.cls-8{fill:#efefef;}.cls-9{fill:#f0f0f0;}.cls-10{fill:#fff;}.cls-11{fill:gray;stroke:#686868;stroke-linecap:round;stroke-linejoin:round;stroke-width:2px;}.cls-12{fill:#595959;}.cls-13{fill:#f9f9f9;}.cls-14{fill:#2b2727;}.cls-15{fill:#20201d;}.cls-16{fill:#9d9d9d;}.cls-17{fill:#696969;}.cls-18{fill:#b3b3b1;}.cls-19{fill:#cccccb;}.cls-20{fill:#e0e0e0;}.cls-21{fill:#999998;}.cls-22{fill:#737372;}</style></defs><g id="Layer_2" data-name="Layer 2"><g id="Layer_4" data-name="Layer 4"><polygon class="cls-1" points="0 41.4 131.5 117.6 197.2 79.7 65.7 3.4 0 41.4"/><polygon class="cls-2" points="0 38 197.2 151.8 262.9 113.9 65.7 0 0 38"/><polygon class="cls-3" points="1.9 95.9 1.9 39 197.2 151.8 197.2 208.7 1.9 95.9"/><polygon class="cls-4" points="45.8 45.4 98.4 75.9 131.5 56.9 78.9 26.4 45.8 45.4"/><polygon class="cls-5" points="56.5 51.6 98.4 75.9 120.5 63 78.6 38.7 56.5 51.6"/><polygon class="cls-6" points="90.6 31.5 118.8 47.9 125.9 43.8 97.7 27.4 90.6 31.5"/><polygon class="cls-7" points="197.2 151.8 262.9 113.9 262.9 170.8 197.2 208.7 197.2 151.8"/><polygon class="cls-8" points="0 38 0 41.4 131.5 117.6 131.5 113.9 0 38"/><polygon class="cls-9" points="131.5 113.9 197.2 75.9 262.9 113.9 197.2 151.8 131.5 113.9"/><polygon class="cls-10" points="131.5 113.9 131.5 170.8 197.2 208.7 197.2 151.8 131.5 113.9"/><polygon class="cls-11" points="143.3 133.8 143.3 160.7 185.4 185 185.4 158.1 143.3 133.8"/><ellipse class="cls-12" cx="197.2" cy="132.8" rx="13" ry="7.8"/><ellipse class="cls-12" cx="227.2" cy="116.7" rx="13" ry="7.8"/><ellipse class="cls-12" cx="164.3" cy="113.9" rx="13" ry="7.8"/><ellipse class="cls-12" cx="194.4" cy="97.7" rx="13" ry="7.8"/><polygon class="cls-13" points="197.2 75.9 197.2 60.7 262.9 98.7 262.9 113.9 197.2 75.9"/><polygon class="cls-14" points="194.4 77.8 194.4 62.6 260.1 100.5 260.1 115.7 194.4 77.8"/><polygon points="262.9 98.7 260.1 100.5 260.1 115.7 262.9 113.9 262.9 98.7"/><polygon class="cls-15" points="194.4 62.6 197.2 60.7 262.9 98.7 260.1 100.5 194.4 62.6"/><polygon class="cls-16" points="139.5 129 134.4 131.9 184.1 160.5 189.1 157.6 187.6 156.7 184.1 158.6 137.5 131.7 140.8 129.7 139.5 129"/><polygon class="cls-16" points="139.5 131.3 134.4 134.2 184.1 162.8 189.1 160 187.6 159.1 184.1 161 137.5 134 140.8 132 139.5 131.3"/><polygon class="cls-1" points="134.4 134.2 134.4 131.9 184.1 160.5 184.1 162.8 134.4 134.2"/><polygon class="cls-17" points="189.1 157.6 189.1 160 184.1 162.8 184.1 160.5 189.1 157.6"/><polygon class="cls-17" points="140.8 132 140.8 129.7 137.5 131.7 139.5 132.8 140.8 132"/><polygon class="cls-18" points="78.9 26.4 78.6 38.7 120.5 63 131.5 56.9 78.9 26.4"/><polygon class="cls-19" points="106.4 17.6 108 18.4 96.2 25.3 94.6 24.5 106.4 17.6"/><polyline class="cls-20" points="96.2 26.2 96.2 25.3 94.6 24.5 94.6 25.3 96.2 26.2"/><polygon class="cls-21" points="106.6 19.2 108 18.4 108 37.9 106.6 38.7 106.6 19.2"/><polygon class="cls-21" points="96.2 25.3 96.2 26.2 106.6 20.2 106.6 19.2 96.2 25.3"/><polygon class="cls-22" points="105 21.1 106.6 20.2 106.6 38.7 105 37.9 105 21.1"/></g></g></svg>