<svg xmlns="http://www.w3.org/2000/svg" xmlns:xlink="http://www.w3.org/1999/xlink" viewBox="0 0 1247.8896 1224">
  <defs>
    <style>
      .cls-1 {
        isolation: isolate;
      }

      .cls-2 {
        opacity: 0.5;
      }

      .cls-24, .cls-3 {
        mix-blend-mode: multiply;
        opacity: 0.65;
      }

      .cls-4 {
        fill: #303030;
      }

      .cls-5 {
        fill: #ceab89;
      }

      .cls-6 {
        fill: #d6b79d;
      }

      .cls-7 {
        fill: #b28d6f;
      }

      .cls-8 {
        fill: #b9e8ef;
      }

      .cls-9 {
        fill: #fff;
      }

      .cls-10 {
        fill: #181818;
      }

      .cls-11 {
        fill: #0c0c0c;
      }

      .cls-12 {
        fill: #242424;
      }

      .cls-13 {
        fill: #595959;
      }

      .cls-14, .cls-17 {
        fill: #131111;
      }

      .cls-14 {
        stroke: #131111;
        stroke-linejoin: round;
        stroke-width: 1.1px;
      }

      .cls-14, .cls-20 {
        stroke-linecap: round;
      }

      .cls-15 {
        fill: #f4dac4;
      }

      .cls-16 {
        fill: #ccc0b4;
      }

      .cls-18 {
        fill: #d0c3b5;
      }

      .cls-19 {
        fill: #bfb0a1;
      }

      .cls-20 {
        fill: none;
        stroke: #383838;
        stroke-miterlimit: 10;
        stroke-width: 0.55px;
      }

      .cls-21 {
        fill: #383838;
      }

      .cls-22 {
        fill: #e0b899;
      }

      .cls-23 {
        fill: #3f3f3f;
      }

      .cls-24 {
        fill: url(#linear-gradient);
      }
    </style>
    <linearGradient id="linear-gradient" x1="419.80455" y1="994.83021" x2="839.95075" y2="195.18109" gradientUnits="userSpaceOnUse">
      <stop offset="0.01676" stop-color="#aad3ff"/>
      <stop offset="0.03173" stop-color="#9ecaff"/>
      <stop offset="0.07962" stop-color="#7cb2ff"/>
      <stop offset="0.12854" stop-color="#619fff"/>
      <stop offset="0.17826" stop-color="#4e91ff"/>
      <stop offset="0.22932" stop-color="#4389ff"/>
      <stop offset="0.28369" stop-color="#3f86ff"/>
      <stop offset="0.48697" stop-color="#154bff"/>
      <stop offset="0.71725" stop-color="#001194"/>
      <stop offset="0.89665" stop-color="#22006a"/>
    </linearGradient>
  </defs>
  <g class="cls-1">
    <g id="overlap-parts">
      <g>
        <g>
          <polygon points="718.06 847.631 714.122 849.905 714.122 909.188 718.06 906.915 718.06 847.631"/>
          <polygon class="cls-4" points="710.184 906.915 710.184 847.631 714.122 849.905 714.122 909.188 710.184 906.915"/>
        </g>
        <g>
          <polygon points="791.133 889.82 787.195 892.094 787.195 951.377 791.133 949.104 791.133 889.82"/>
          <polygon class="cls-4" points="783.257 949.104 783.257 889.82 787.195 892.094 787.195 951.377 783.257 949.104"/>
        </g>
        <g>
          <polygon points="915.548 818.093 911.61 820.367 911.61 879.65 915.548 877.377 915.548 818.093"/>
          <polygon class="cls-4" points="907.672 877.377 907.672 818.093 911.61 820.367 911.61 879.65 907.672 877.377"/>
        </g>
        <polygon class="cls-5" points="710.184 847.631 838.536 773.527 915.368 818.093 787.195 892.094 710.184 847.631"/>
        <polygon class="cls-5" points="710.184 842.839 838.536 768.734 915.368 813.301 787.195 887.301 710.184 842.839"/>
        <polygon class="cls-6" points="710.184 847.631 710.184 842.839 787.195 887.301 787.195 892.094 710.184 847.631"/>
        <polygon class="cls-7" points="915.368 813.301 915.368 818.093 787.195 892.094 787.195 887.301 915.368 813.301"/>
        <g>
          <path class="cls-8" d="M728.07377,838.7341l73.14076-42.76117a6.46127,6.46127,0,0,1,6.46127,0l22.61756,13.05825a6.46126,6.46126,0,0,1,0,11.19124l-68.08226,39.84046a6.46127,6.46127,0,0,1-6.46123,0l-27.67607-15.9786A3.08893,3.08893,0,0,1,728.07377,838.7341Z"/>
          <path class="cls-9" d="M817.07822,801.40141l22.90713,13.22539-77.684,45.38394a6.64183,6.64183,0,0,1-6.64182,0L736.135,848.73838Z"/>
        </g>
        <g>
          <polygon class="cls-4" points="799.664 817.064 872.098 775.244 872.098 817.064 799.664 858.884 799.664 817.064"/>
          <polygon class="cls-10" points="811.086 821.243 869.034 787.787 869.033 821.243 811.086 854.699 811.086 821.243"/>
          <polygon class="cls-11" points="824.769 851.818 841.163 842.353 849.362 847.118 833.164 856.459 824.769 851.818"/>
          <polygon class="cls-11" points="824.769 852.41 841.163 842.945 849.362 847.709 833.164 857.051 824.769 852.41"/>
          <polygon class="cls-12" points="834.612 853.067 834.612 838.757 843.906 833.391 843.906 847.677 834.612 853.067"/>
          <polygon class="cls-4" points="799.664 817.064 811.086 821.243 869.034 787.787 872.098 775.244 799.664 817.064"/>
          <polygon class="cls-13" points="811.086 854.699 799.664 858.884 799.664 817.064 811.086 821.243 811.086 854.699"/>
          <polygon class="cls-11" points="869.034 787.787 872.098 775.244 872.098 817.064 869.033 821.243 869.034 787.787"/>
          <polygon class="cls-12" points="824.769 851.818 824.769 852.41 833.164 857.051 833.164 856.459 824.769 851.818"/>
          <polygon points="833.164 856.459 849.362 847.118 849.362 847.709 833.164 857.051 833.164 856.459"/>
        </g>
      </g>
    </g>
    <g id="log-sleep">
      <g>
        <path class="cls-14" d="M269.82632,756.14752s-14.7497,7.43414-16.60756,15.99187c0,0,16.107,3.16412,23.4-1.583C276.61875,770.55644,276.09132,764.1001,269.82632,756.14752Z"/>
        <ellipse class="cls-15" cx="350.81659" cy="696.92837" rx="8.27958" ry="7.11085" transform="translate(-420.90159 581.89583) rotate(-54.80234)"/>
        <path class="cls-16" d="M351.98761,695.38944l0,0c4.48265,3.46777,4.778,10.59463.65959,15.91827l-27.34268,28.08494c-2.42824,2.49416-5.97335,3.0133-8.29778,1.21512l0,0c-2.32444-1.79818-2.7125-5.36-.90832-8.337l20.31567-33.521C340.53246,693.42614,347.505,691.92166,351.98761,695.38944Z"/>
        <path class="cls-17" d="M411.95732,671.38716c2.09458.13289,3.651.95624,5.27388,3.31535s.0213,13.40958-5.29,16.17955l-44.01775,28.52722c-5.31133,2.77-11.71946.9841-14.31295-3.98884l0,0c-2.584-4.95481-.40626-11.20405,4.86308-13.98934a1.28321,1.28321,0,0,1,.11833-.05483l45.28783-18.30285C406.44205,681.73709,409.86274,671.25427,411.95732,671.38716Z"/>
        <g class="cls-1">
          <path class="cls-17" d="M342.8565,723.47106l.51226-11.19681c-.07639,1.66954.95481,3.38916,3.10849,4.75894L345.965,728.23C343.81131,726.86023,342.78011,725.14061,342.8565,723.47106Z"/>
          <path class="cls-17" d="M394.70061,717.99187l-.51224,11.19682c-.07546,1.649-1.22878,3.24863-3.44477,4.41232l.51225-11.19681C393.47185,721.24051,394.62517,719.64086,394.70061,717.99187Z"/>
          <polygon class="cls-17" points="391.256 722.404 390.744 733.601 378.929 739.805 379.441 728.609 391.256 722.404"/>
          <polygon class="cls-17" points="363.603 727.925 363.091 739.122 345.965 728.23 346.477 717.033 363.603 727.925"/>
          <path class="cls-17" d="M379.44077,728.60868l-.51226,11.19681c-4.46877,2.3467-11.55787,2.03886-15.83776-.68322l.51226-11.19682C367.88289,730.64753,374.972,730.95538,379.44077,728.60868Z"/>
          <path class="cls-17" d="M346.47725,717.03319c-4.27988-2.72207-4.12693-6.82573.34184-9.17243l11.81509-6.20448c4.4623-2.3433,11.5517-2.04283,15.83158.67925l17.12576,10.89226c4.27988,2.72207,4.12663,6.83311-.33567,9.17641l-11.81508,6.20448c-4.46878,2.3467-11.55788,2.03885-15.83776-.68323Z"/>
        </g>
        <path class="cls-14" d="M271.585,766.92743s18.10043-18.59664,11.16488-35.5812C282.74992,731.34623,294.0971,748.14685,271.585,766.92743Z"/>
        <path class="cls-17" d="M432.45139,686.16492c2.02727.168,3.54628,1.01088,5.15606,3.37679s.253,13.28873-4.83376,15.9416l-42.06033,27.50638a10.27347,10.27347,0,0,1-13.90638-4.20087l0,0a10.27348,10.27348,0,0,1,4.51451-13.80775l43.52333-17.37554C427.29882,696.32569,430.42412,685.99693,432.45139,686.16492Z"/>
        <g class="cls-1">
          <path class="cls-18" d="M349.58609,711.758l-.51225,11.19681a1.45951,1.45951,0,0,0-1.36823-.02549l.51225-11.19682A1.45948,1.45948,0,0,1,349.58609,711.758Z"/>
          <polygon class="cls-18" points="348.218 711.732 347.706 722.929 344.05 725.152 344.562 713.955 348.218 711.732"/>
          <path class="cls-18" d="M344.05019,725.15223a.47015.47015,0,0,0-.25935.35707l.51226-11.1968a.47014.47014,0,0,1,.25935-.35709C344.40878,717.31446,344.20388,721.79319,344.05019,725.15223Z"/>
          <path class="cls-19" d="M344.32111,714.66366l-.51224,11.19681a1.512,1.512,0,0,0-.01592-.2987.3062.3062,0,0,1-.00212-.05246l.51227-11.19681a.30506.30506,0,0,0,.00211.05245A1.51133,1.51133,0,0,1,344.32111,714.66366Z"/>
          <path class="cls-18" d="M343.80887,725.86042c-.07034,1.5387-2.46023,2.81357-3.73859,3.38985q.25611-5.59848.51226-11.19681c1.27835-.57628,3.66825-1.85115,3.73858-3.38985C344.16745,718.02265,343.96248,722.50137,343.80887,725.86042Z"/>
          <polygon class="cls-19" points="355.905 728.636 355.393 739.833 340.002 730.044 340.515 718.848 355.905 728.636"/>
          <path class="cls-18" d="M340.07017,729.25032a.4869.4869,0,0,0-.33256.39027l.51227-11.19682a.48687.48687,0,0,1,.33255-.39027l.0001,0q-.25608,5.5985-.51225,11.19682Z"/>
          <path class="cls-19" d="M339.73761,729.6406l.51227-11.19681a.47645.47645,0,0,0,.26472.40375l-.51225,11.19681A.47648.47648,0,0,1,339.73761,729.6406Z"/>
          <polygon class="cls-18" points="368.885 723.799 368.373 734.995 349.074 722.955 349.586 711.758 368.885 723.799"/>
          <polygon class="cls-19" points="368.863 724.576 368.35 735.773 364.148 737.98 364.66 726.783 368.863 724.576"/>
          <path class="cls-18" d="M368.60972,735.25163a.59022.59022,0,0,0-.23675-.25615l.51227-11.19681a.59029.59029,0,0,1,.23673.25612Q368.86587,729.6533,368.60972,735.25163Z"/>
          <path class="cls-18" d="M368.60972,735.25163a2.1669,2.1669,0,0,1,.01972-.4306q.24654-5.38318.49254-10.76624a.344.344,0,0,1,.02827.15088l-.51225,11.19681A.34405.34405,0,0,0,368.60972,735.25163Z"/>
          <path class="cls-19" d="M369.15025,724.20565l-.51225,11.19682a.46507.46507,0,0,1-.28766.37053l.51226-11.19681A.46507.46507,0,0,0,369.15025,724.20565Z"/>
          <path class="cls-19" d="M364.6601,726.78305l-.51225,11.19682a1.50891,1.50891,0,0,1-1.09745.05623c-.88674-.3-2.9356-.517-6.23147,1.79881a1.4321,1.4321,0,0,1-1.42642-.00216l.51226-11.19682a1.43205,1.43205,0,0,0,1.42641.00216c3.29587-2.31584,5.34474-2.09881,6.23147-1.7988A1.5089,1.5089,0,0,0,364.6601,726.78305Z"/>
          <path class="cls-18" d="M343.57131,709.109c3.55055-2.8252,10.82684-2.92623,15.09427-.21208l10.61885,6.75376c12.97028,8.24931,11.07349,20.86755-4.032,26.84969l-15.33177,6.072c-8.881,3.51519-21.17186,2.66685-29.11084-2.00537-.22211-.13081-.44024-.26439-.65185-.399-7.44231-4.73267-8.40418-11.72365-2.17562-16.68715Zm6.01478,2.64894a1.45948,1.45948,0,0,0-1.36823-.0255l-3.65541,2.223a.43945.43945,0,0,0-.25724.40956c.25612,1.67129-2.36262,3.07539-3.72278,3.68853-.41464.18883-.44729.55271-.06783.794l15.39017,9.7884a1.4321,1.4321,0,0,0,1.42642.00215c3.29587-2.31584,5.34473-2.09881,6.23147-1.7988a1.50883,1.50883,0,0,0,1.09744-.05624l4.20249-2.20686c.37672-.19783.38343-.54806.02263-.77754L349.58609,711.758"/>
          <path class="cls-19" d="M340.5146,718.84754c-.37947-.24135-.34681-.60521.06783-.79406,1.36016-.61314,3.9789-2.01722,3.72278-3.68853a.43947.43947,0,0,1,.25723-.40956l3.65543-2.22295a1.45947,1.45947,0,0,1,1.36821.02549l19.29914,12.04072c.3608.22947.35409.57971-.02262.77754l-4.2025,2.20686a1.5089,1.5089,0,0,1-1.09745.05624c-.88673-.3-2.9356-.517-6.23147,1.7988a1.43205,1.43205,0,0,1-1.42641-.00216Z"/>
          <path class="cls-18" d="M377.903,728.84056l-.51224,11.19682c-.24389,5.33042-4.54612,10.45025-12.65061,13.65981l.51226-11.19681C373.35688,739.29081,377.65912,734.171,377.903,728.84056Z"/>
          <polygon class="cls-18" points="365.252 742.5 364.74 753.697 349.408 759.769 349.921 748.572 365.252 742.5"/>
          <path class="cls-18" d="M313.37189,747.74295l.51227-11.19681c-.156,3.41033,1.98066,6.89186,6.27378,9.62192.21161.13459.42974.26817.65185.399,7.939,4.67222,20.22986,5.52056,29.11084,2.00537l-.51225,11.19682c-8.881,3.51519-21.17186,2.66684-29.11085-2.00537-.2221-.13082-.44024-.2644-.65185-.399C315.35256,754.63482,313.21587,751.15329,313.37189,747.74295Z"/>
        </g>
        <g>
          <line class="cls-20" x1="328.66379" y1="744.09325" x2="338.36988" y2="738.73004"/>
          <path class="cls-21" d="M338.64277,739.288a.62036.62036,0,1,0-.843-.24295A.62042.62042,0,0,0,338.64277,739.288Z"/>
        </g>
        <g>
          <line class="cls-20" x1="318.94893" y1="737.72238" x2="329.35871" y2="731.30055"/>
          <path class="cls-21" d="M329.658,731.84481a.62036.62036,0,1,0-.85368-.20227A.62043.62043,0,0,0,329.658,731.84481Z"/>
        </g>
        <path class="cls-19" d="M332.82361,753.92153c-.02561-4.121-5.67709-14.86343-8.84356-16.73456-6.421-3.79427-10.71033,3.487-10.71033,3.487s2.65158,22.96477,14.81562,23.83691C336.90646,765.14334,332.84922,758.04257,332.82361,753.92153Z"/>
        <path class="cls-14" d="M275.98256,771.31929s-9.818-17.13132-5.81209-29.60328C270.17047,741.716,260.25079,755.49208,275.98256,771.31929Z"/>
        <path class="cls-14" d="M285.5178,741.6565c13.099-6.83139,27.56313-2.41842,34.82826,11.51223s2.53585,30.76161-10.56312,37.593-29.60733,1.07629-36.87245-12.85437S272.41883,748.48788,285.5178,741.6565Z"/>
        <circle class="cls-14" cx="323.62179" cy="776.73211" r="8.44747"/>
        <rect class="cls-22" x="311.60954" y="742.09701" width="13.21901" height="17.33386" rx="6.6095" transform="translate(-200.30854 1380.08022) rotate(-117.54289)"/>
        <path class="cls-15" d="M288.85282,741.39587c2.859-9.975,20.21305-9.09777,27.21049,4.3196s6.03445,29.28332-7.38292,36.28076-27.23231,8.61869-34.22975-4.79868q-.14694-.28176-.28671-.56532C267.60053,763.31868,275.62328,748.29535,288.85282,741.39587Z"/>
        <path class="cls-14" d="M278.73965,764.80578c30.67256,8.159,43.62825-11.9064,43.62825-11.9064s-3.2264,21.05675-29.73889,29.681C276.91007,787.69354,278.73965,764.80578,278.73965,764.80578Z"/>
        <path class="cls-14" d="M278.95476,769.01493s6.39212-47.813,23.808-34.50871C288.73743,720.18746,268.44406,748.01731,278.95476,769.01493Z"/>
        <path class="cls-14" d="M272.9519,773.60449s-2.83125-32.01838,13.81786-44.034C286.76976,729.57052,260.33423,739.03247,272.9519,773.60449Z"/>
        <path class="cls-14" d="M275.60844,762.38179s.94266-21.0078,18.52294-23.99541C294.13138,738.38638,270.92105,732.62369,275.60844,762.38179Z"/>
        <path class="cls-14" d="M276.831,781.5s38.60983-3.6907,47.42214-22.68525C324.33371,765.42988,310.43585,801.09641,276.831,781.5Z"/>
        <path class="cls-14" d="M287.94313,767.07549s-5.1298-1.94935-4.39438-4.938c0,0-3.50071,1.27074-4.50855-3.56947C279.0402,758.568,276.372,772.38624,287.94313,767.07549Z"/>
        <rect class="cls-5" x="319.45312" y="782.26328" width="2.04492" height="15.93508" transform="translate(477.40294 1628.40929) rotate(-168.52954)"/>
        <ellipse class="cls-15" cx="399.48157" cy="739.82031" rx="8.27958" ry="7.11085" transform="translate(-296.82755 268.57385) rotate(-27.54297)"/>
        <path class="cls-18" d="M399.84491,740.43209l0,0a14.39976,14.39976,0,0,1-9.87993,17.80519l-46.26876,7.25738a8.216,8.216,0,0,1-9.19924-5.71516l0,0a8.216,8.216,0,0,1,4.60506-9.80217l42.762-19.10177A14.39975,14.39975,0,0,1,399.84491,740.43209Z"/>
        <path class="cls-14" d="M297.39454,788.40837S283.59036,800.09691,274.98,798.50058c0,0,1.41723-13.94636,8.61545-18.836A16.5379,16.5379,0,0,1,297.39454,788.40837Z"/>
        <g class="cls-1">
          <path class="cls-17" d="M277.87636,744.70271l.041-.89575a1.15086,1.15086,0,0,1,.23623-.61755,4.59009,4.59009,0,0,1,1.62514-1.229,15.6108,15.6108,0,0,1,6.95787-1.63852l-.041.89574a15.61067,15.61067,0,0,0-6.95787,1.63853,4.59021,4.59021,0,0,0-1.62514,1.229A1.151,1.151,0,0,0,277.87636,744.70271Z"/>
          <path class="cls-17" d="M295.00711,745.10146l-.041.89575a3.73975,3.73975,0,0,0-2.03461-3.27972,11.727,11.727,0,0,0-6.23591-1.49988l.041-.89574a11.72685,11.72685,0,0,1,6.23591,1.49988A3.73974,3.73974,0,0,1,295.00711,745.10146Z"/>
          <path class="cls-17" d="M292.20618,750.324a.85582.85582,0,0,0-.52851-.10765l.041-.89575a.85589.85589,0,0,1,.52851.10766Z"/>
          <path class="cls-17" d="M292.3431,750.47364a.33594.33594,0,0,0-.13692-.14966l.041-.89574a.336.336,0,0,1,.13692.14965Z"/>
          <path class="cls-17" d="M291.25812,750.5059l.041-.89573c.00639-.14.175-.25719.41954-.28959l-.041.89575C291.43314,750.24873,291.26452,750.36589,291.25812,750.5059Z"/>
          <path class="cls-17" d="M292.421,750.64593q-.04134-.08368-.07789-.17229l.041-.89574q.03648.08871.0779.17229Z"/>
          <path class="cls-17" d="M296.0046,746.55c-.276,1.47515-1.49944,2.94391-3.58361,4.0959l.02063-.44792.01558-.34319.00479-.10462c2.08415-1.152,3.30759-2.62077,3.58359-4.09592a3.45262,3.45262,0,0,0,.06093-.50507l-.041.89575A3.45417,3.45417,0,0,1,296.0046,746.55Z"/>
          <path class="cls-17" d="M291.25811,750.50589l.041-.89574a.19767.19767,0,0,0,.017.08793,3.18317,3.18317,0,0,0,.2582.498,4.04875,4.04875,0,0,0,1.26329,1.22391l-.041.89575a4.04878,4.04878,0,0,1-1.26329-1.22392,3.18144,3.18144,0,0,1-.2582-.498A.1978.1978,0,0,1,291.25811,750.50589Z"/>
          <path class="cls-17" d="M277.30562,745.91744a1.84287,1.84287,0,0,1-.52322-1.2697l.041-.89574a1.84281,1.84281,0,0,0,.52321,1.2697,11.18236,11.18236,0,0,0,2.46323,1.9136c.52878.33631,1.08914.67768,1.64278,1.0298.55987.35609,1.08813.7071,1.61067,1.03944a11.50584,11.50584,0,0,0,4.10234,1.84741,6.67343,6.67343,0,0,0,2.42046-.01422,8.59546,8.59546,0,0,0,1.98825-.64163l-.041.89574a8.5952,8.5952,0,0,1-1.98826.64163,6.67344,6.67344,0,0,1-2.42046.01423,11.50584,11.50584,0,0,1-4.10234-1.84741c-.52254-.33235-1.0508-.68336-1.61067-1.03945-.55364-.35212-1.114-.69349-1.64278-1.0298A11.18206,11.18206,0,0,1,277.30562,745.91744Z"/>
          <path class="cls-17" d="M295.7445,752.67466c-.02189-.00277-.1065-.01454-.23541-.03975l.041-.89574c.12889.02521.2135.037.23539.03975Z"/>
          <path class="cls-17" d="M296.255,752.1171l-.041.89575a.27663.27663,0,0,0-.15178-.23411.75972.75972,0,0,0-.31772-.10408l.041-.89574a.75972.75972,0,0,1,.31772.10408A.27655.27655,0,0,1,296.255,752.1171Z"/>
          <path class="cls-17" d="M292.83761,751.42a4.04875,4.04875,0,0,1-1.26329-1.22391,3.18317,3.18317,0,0,1-.2582-.498c-.07619-.17669.10816-.3385.40252-.37751a.85585.85585,0,0,1,.52851.10766.33605.33605,0,0,1,.13693.14965q.03648.08871.0779.1723a3.19653,3.19653,0,0,0,1.16809,1.25368,5.80675,5.80675,0,0,0,1.92.7353c.12891.02522.21352.037.23541.03976a.75972.75972,0,0,1,.31772.10408.25765.25765,0,0,1,.14581.27369.28571.28571,0,0,1-.15986.17739.80049.80049,0,0,1-.46068.069,6.54432,6.54432,0,0,1-.9354-.18974A6.92931,6.92931,0,0,1,292.83761,751.42Z"/>
          <path class="cls-17" d="M277.13182,742.92419a5.27333,5.27333,0,0,1,1.888-1.44649,17.11494,17.11494,0,0,1,7.63867-1.79378,13.35368,13.35368,0,0,1,7.10646,1.72171c1.84134,1.17112,2.57966,2.71923,2.28067,4.24865-.276,1.47515-1.49944,2.94392-3.5836,4.09591q-.04135-.08369-.0779-.1723a.336.336,0,0,0-.13692-.14965.85589.85589,0,0,0-.52851-.10766c-.29436.039-.47872.20083-.40253.3775a3.18074,3.18074,0,0,0,.25821.498,8.59546,8.59546,0,0,1-1.98825.64163,6.67343,6.67343,0,0,1-2.42046.01422,11.50584,11.50584,0,0,1-4.10234-1.84741c-.52254-.33234-1.0508-.68335-1.61067-1.03944-.55364-.35212-1.114-.69349-1.64278-1.0298a11.18236,11.18236,0,0,1-2.46323-1.9136A1.57428,1.57428,0,0,1,277.13182,742.92419Zm9.60477-2.60232a15.6108,15.6108,0,0,0-6.95787,1.63852,4.59009,4.59009,0,0,0-1.62514,1.229,1.03109,1.03109,0,0,0-.15992,1.04467,6.35755,6.35755,0,0,0,2.489,2.20933l.1196.07577c.51633.32839,1.07675.66973,1.64283,1.02977.57232.364,1.10053.71505,1.61062,1.03948a13.30294,13.30294,0,0,0,2.736,1.43088,4.91783,4.91783,0,0,0,2.616.20817,8.02994,8.02994,0,0,0,2.25989-.83282c2.04605-1.07445,3.2316-2.4699,3.48669-3.84625.26131-1.37239-.3892-2.7138-1.98171-3.72666a11.72685,11.72685,0,0,0-6.23591-1.49988"/>
          <path class="cls-17" d="M296.255,752.1171l-.041.89575a.19718.19718,0,0,1-.006.03959l.041-.89574A.19717.19717,0,0,0,296.255,752.1171Z"/>
          <path class="cls-17" d="M296.249,752.15669l-.041.89575a.28583.28583,0,0,1-.15987.17739l.041-.89575A.28571.28571,0,0,0,296.249,752.15669Z"/>
          <path class="cls-17" d="M295.62847,752.40311l-.041.89574a6.54341,6.54341,0,0,1-.9354-.18973,6.92963,6.92963,0,0,1-1.85546-.79337l.041-.89575a6.92931,6.92931,0,0,0,1.85546.79337A6.54432,6.54432,0,0,0,295.62847,752.40311Z"/>
          <path class="cls-17" d="M296.08915,752.33408l-.041.89575a.80041.80041,0,0,1-.46068.069l.041-.89574A.80049.80049,0,0,0,296.08915,752.33408Z"/>
          <path class="cls-17" d="M294.18689,755.07334l.041-.89574a1.18247,1.18247,0,0,1,.23032-.6182,4.633,4.633,0,0,1,1.631-1.22532l-.041.89576a4.63268,4.63268,0,0,0-1.631,1.22531A1.18244,1.18244,0,0,0,294.18689,755.07334Z"/>
          <path class="cls-17" d="M311.31562,755.48574l-.041.89575a3.75049,3.75049,0,0,0-2.03852-3.294,11.68219,11.68219,0,0,0-6.22968-1.49592,15.53826,15.53826,0,0,0-6.95788,1.63852l.041-.89574a15.5382,15.5382,0,0,1,6.95787-1.63853,11.68219,11.68219,0,0,1,6.22968,1.49593A3.75043,3.75043,0,0,1,311.31562,755.48574Z"/>
          <path class="cls-17" d="M293.61024,756.28744a1.84284,1.84284,0,0,1-.52323-1.26971l.041-.89575a1.84275,1.84275,0,0,0,.52321,1.26972,11.2127,11.2127,0,0,0,2.46323,1.91359l-.041.89574A11.21194,11.21194,0,0,1,293.61024,756.28744Z"/>
          <path class="cls-17" d="M296.11445,757.30529a11.2127,11.2127,0,0,1-2.46323-1.91359,1.57427,1.57427,0,0,1-.21478-2.09752,4.24558,4.24558,0,0,1,1.25663-1.08081,6.54432,6.54432,0,0,0,.9354.18974.80049.80049,0,0,0,.46068-.069,4.633,4.633,0,0,0-1.631,1.22532,1.051,1.051,0,0,0-.1537,1.04863,6.3443,6.3443,0,0,0,2.48332,2.20573l.11905.07541c.52254.33235,1.083.6737,1.649,1.03374s1.0943.71108,1.60441,1.03551a13.30214,13.30214,0,0,0,2.736,1.43088,4.90675,4.90675,0,0,0,2.62217.21212,8.22629,8.22629,0,0,0,2.25991-.83281c2.04606-1.07445,3.22539-2.47386,3.48669-3.84625.25508-1.37635-.39543-2.71776-1.98794-3.73062a11.68219,11.68219,0,0,0-6.22968-1.49593,15.53827,15.53827,0,0,0-6.95788,1.63853.28715.28715,0,0,0,.15946-.17765.25765.25765,0,0,0-.14581-.27369.75972.75972,0,0,0-.31772-.10408c-.02189-.00277-.1065-.01454-.23541-.03976a17.17092,17.17092,0,0,1,7.41922-1.6813,13.33,13.33,0,0,1,7.10022,1.71776c1.84757,1.17508,2.57969,2.71923,2.28691,4.25261-.29248,1.526-1.59119,3.05312-3.81913,4.22308a9.48545,9.48545,0,0,1-2.64037.96037,6.61712,6.61712,0,0,1-2.42668.01026,11.48551,11.48551,0,0,1-4.10233-1.8474c-.51633-.32839-1.04458-.67941-1.60445-1.03549S296.64321,757.64159,296.11445,757.30529Z"/>
          <path class="cls-17" d="M297.72248,759.23479c-.55987-.35608-1.12025-.69745-1.649-1.03376l.041-.89574c.52874.3363,1.08912.67767,1.649,1.03376s1.08812.7071,1.60445,1.03549a11.48551,11.48551,0,0,0,4.10233,1.8474,6.61712,6.61712,0,0,0,2.42668-.01026,9.48545,9.48545,0,0,0,2.64037-.96037c2.22794-1.17,3.52665-2.69708,3.81913-4.22308a3.50329,3.50329,0,0,0,.05891-.49736l-.041.89575a3.50609,3.50609,0,0,1-.05892.49735c-.29248,1.526-1.59119,3.05312-3.81913,4.22308a9.48517,9.48517,0,0,1-2.64037.96038,6.61734,6.61734,0,0,1-2.42668.01026,11.48586,11.48586,0,0,1-4.10233-1.8474C298.8106,759.9419,298.28235,759.59088,297.72248,759.23479Z"/>
        </g>
        <path class="cls-14" d="M291.87386,789.48939s-30.15054-5.942-22.02489-34.31492c0,0,7.50637-9.52849,1.704-19.52911,0,0,8.148,6.8757,5.91236,24.55009S292.916,773.4643,292.916,773.4643Z"/>
      </g>
    </g>
    <g id="couch-front">
      <path class="cls-23" d="M314.32555,793.2437a5.50327,5.50327,0,0,1,2.76093,4.77132v56.79876l-103.248-59.61047-.00011-50.20434a5.50326,5.50326,0,0,1,8.24558-4.77133"/>
      <line class="cls-23" x1="222.08396" y1="740.22764" x2="314.32555" y2="793.2437"/>
      <path class="cls-23" d="M313.92737,856.39328l-103.248-59.61048-.00011-50.20433a5.50325,5.50325,0,0,1,8.24557-4.77133l92.24159,53.01606a5.50323,5.50323,0,0,1,2.76093,4.77131Z"/>
      <polygon class="cls-23" points="317.087 854.818 313.927 856.393 313.927 799.595 317.086 798.015 317.087 854.818"/>
    </g>
    <g id="night">
      <polygon class="cls-24" points="169.516 390.397 689.469 90.257 1105.136 330.362 1105.431 770.7 585.477 1070.897 169.247 830.19 169.516 390.397"/>
    </g>
  </g>
</svg>
