<svg xmlns="http://www.w3.org/2000/svg" xmlns:xlink="http://www.w3.org/1999/xlink" viewBox="0 0 1247.9 3600">
<defs>
<style>.cls-1{isolation:isolate;}.cls-2{mix-blend-mode:color;}.cls-3{opacity:0.5;}.cls-4,.cls-63{mix-blend-mode:multiply;opacity:0.65;}.cls-5{fill:#b4aeaa;}.cls-6{fill:#e9f0f3;}.cls-7{fill:#f0e8e2;}.cls-8{fill:#d8e0e5;}.cls-9{fill:#c4d0d8;}.cls-10{fill:#878380;}.cls-11{fill:#a6c2cd;}.cls-12{fill:#b3b3b3;}.cls-13,.cls-42{fill:gray;}.cls-14{fill:#666;}.cls-15{fill:#303030;}.cls-16{fill:#b3e1e5;}.cls-17{fill:#8baeb3;}.cls-18{fill:#d5f1f5;}.cls-19{fill:#b9e8ef;}.cls-20{fill:#e1f3f5;}.cls-21{fill:#353030;}.cls-22{fill:#3d3a3a;}.cls-23{fill:#cdcdcd;}.cls-24{fill:#b4b4b4;}.cls-25{fill:#3f3f3f;}.cls-26{fill:#2b2828;}.cls-27{fill:#ebebeb;}.cls-28{fill:#fff;}.cls-29{fill:#cbcbcb;}.cls-30{fill:#d8d8d8;}.cls-31,.cls-32,.cls-60{fill:none;stroke-miterlimit:10;}.cls-31,.cls-32{stroke:#b0b0b0;}.cls-31,.cls-32,.cls-42,.cls-54,.cls-60{stroke-linecap:round;}.cls-31{stroke-width:0.75px;}.cls-32,.cls-42{stroke-width:2px;}.cls-33{fill:#d1d1d1;}.cls-34{fill:#e8e8e8;}.cls-35{fill:#ceab89;}.cls-36{fill:#aaaaa9;}.cls-37{fill:#999997;}.cls-38{fill:#adadac;}.cls-39{fill:#c1c1c1;}.cls-40{fill:#efefef;}.cls-41{fill:#f0f0f0;}.cls-42{stroke:#686868;}.cls-42,.cls-54{stroke-linejoin:round;}.cls-43{fill:#595959;}.cls-44{fill:#f9f9f9;}.cls-45{fill:#2b2727;}.cls-46{fill:#20201d;}.cls-47{fill:#9d9d9d;}.cls-48{fill:#696969;}.cls-49{fill:#b3b3b1;}.cls-50{fill:#cccccb;}.cls-51{fill:#e0e0e0;}.cls-52{fill:#999998;}.cls-53{fill:#737372;}.cls-54,.cls-57{fill:#131111;}.cls-54{stroke:#131111;stroke-width:1.1px;}.cls-55{fill:#f4dac4;}.cls-56{fill:#ccc0b4;}.cls-58{fill:#d0c3b5;}.cls-59{fill:#bfb0a1;}.cls-60{stroke:#383838;stroke-width:0.55px;}.cls-61{fill:#383838;}.cls-62{fill:#e0b899;}.cls-63{fill:url(#linear-gradient);}
</style>
<linearGradient id="linear-gradient" x1="419.8" y1="994.83" x2="839.95" y2="195.18" gradientUnits="userSpaceOnUse"><stop offset="0.02" stop-color="#aad3ff"/><stop offset="0.03" stop-color="#9ecaff"/><stop offset="0.08" stop-color="#7cb2ff"/><stop offset="0.13" stop-color="#619fff"/><stop offset="0.18" stop-color="#4e91ff"/><stop offset="0.23" stop-color="#4389ff"/><stop offset="0.28" stop-color="#3f86ff"/><stop offset="0.49" stop-color="#154bff"/><stop offset="0.72" stop-color="#001194"/><stop offset="0.9" stop-color="#22006a"/></linearGradient>
</defs>
<g class="cls-1">
<g id="room-base">
<polygon class="cls-5" points="154.5 821 154.5 840.3 585.8 1090.1 585.8 1071.6 154.5 821"/>
<polygon class="cls-6" points="1120.7 322.2 1105.4 331 689.7 90.9 169.8 391.1 154.3 382.1 689.7 72.7 1120.7 322.2"/>
<polygon class="cls-7" points="169.5 830.9 689.8 530.8 1105.7 771.4 585.8 1071.6 169.5 830.9"/>
<polygon class="cls-8" points="169.8 391.1 689.7 90.9 689.7 531.5 169.8 831.4 169.8 391.1"/>
<polygon class="cls-9" points="1105.7 331.1 1105.7 771.4 690 531.3 689.7 90.9 1105.7 331.1"/>
<polygon class="cls-10" points="585.8 1090.1 1123.3 781.6 1122.4 761.7 585.8 1071.6 585.8 1090.1"/>
<polygon class="cls-11" points="169.8 831.4 154.5 822.6 154.3 382.1 169.8 391.1 169.8 831.4"/>
<polygon class="cls-11" points="1105.7 331.1 1121 322.2 1122.4 761.7 1105.7 771.4 1105.7 331.1"/>
<polygon class="cls-12" points="713.6 874.4 713.6 869.9 720.5 873.8 720.5 878.4 713.6 874.4"/>
<polygon class="cls-13" points="741 854 761.6 842.1 768.5 846.1 747.9 858 768.5 869.9 761.6 873.8 741 862 720.5 873.8 713.6 869.9 734.2 858 713.6 846.1 720.5 842.1 741 854"/>
<polygon class="cls-14" points="720.5 878.4 720.5 873.8 741 862 761.6 873.8 761.6 878.4 741 866.5 720.5 878.4"/>
<polygon class="cls-15" points="761.6 878.4 761.6 873.8 768.5 869.9 768.5 874.4 761.6 878.4"/>
<polygon class="cls-12" points="713.6 850.7 713.6 846.1 734.2 858 730.3 860.3 713.6 850.7"/>
<polygon class="cls-15" points="751.8 860.2 747.9 858 768.5 846.1 768.5 850.7 751.8 860.2"/>
<polygon class="cls-14" points="734.2 858 734.2 818.7 741 822.3 741 862 734.2 858"/>
<polygon class="cls-15" points="747.9 858 747.9 818.7 741 822.3 741 862 747.9 858"/>
<polygon class="cls-16" points="707.6 814.6 748.8 790.8 790 814.6 748.8 838.4 707.6 814.6"/>
<polygon class="cls-17" points="748.8 846.3 748.8 838.4 790 814.6 790 822.5 748.8 846.3"/>
<polygon class="cls-18" points="700.8 818.6 707.6 814.6 748.8 838.4 748.8 846.3 700.8 818.6"/>
<polygon class="cls-19" points="707.6 814.6 707.6 759.1 748.8 735.2 748.8 790.8 707.6 814.6"/>
<polygon class="cls-20" points="707.6 814.6 707.6 759.1 700.8 755.1 700.8 818.6 707.6 814.6"/>
<polygon class="cls-18" points="741.9 731.3 748.8 735.2 707.6 759.1 700.8 755.1 741.9 731.3"/>
<polygon class="cls-21" points="420.3 660.9 317.1 720.5 213.8 780.1 317.1 839.7 420.3 780.1 523.6 720.5 420.3 660.9"/>
<path class="cls-21" d="M213.8,795.2V738.9a6.1,6.1,0,0,1,3-5.1l91.5-52.9a5.9,5.9,0,0,1,8.8,5.1v49.6Z"/>
<path class="cls-21" d="M317.1,735.6V679.5a6,6,0,0,1,2.9-5.1l91.6-52.9a5.8,5.8,0,0,1,8.7,5.1V676Z"/>
<path class="cls-22" d="M415,664l-81.8,47.2a10.7,10.7,0,0,0,0,18.6L415,777a10.8,10.8,0,0,0,10.7,0l81.8-47.2a10.7,10.7,0,0,0,0-18.6L425.7,664A10.8,10.8,0,0,0,415,664Z"/>
<polygon class="cls-23" points="213.8 812.2 217 814 217 797.1 213.8 795.3 213.8 812.2"/>
<polygon class="cls-24" points="220.2 795.2 217 797.1 217 814.1 220.2 812.2 220.2 795.2"/>
<path class="cls-22" d="M230.5,770.5l81.1-46.8a10.8,10.8,0,0,1,11,0l81.1,46.8a11.1,11.1,0,0,1,0,19.2l-81.1,46.8a10.8,10.8,0,0,1-11,0l-81.1-46.8A11.1,11.1,0,0,1,230.5,770.5Z"/>
<path class="cls-25" d="M317.1,854.8,213.8,795.2V745a5.6,5.6,0,0,1,8.3-4.8l92.2,53.1a5.4,5.4,0,0,1,2.8,4.7Z"/>
<polygon class="cls-23" points="310.8 869.2 313.9 871 313.9 854 310.8 852.2 310.8 869.2"/>
<polygon class="cls-24" points="317.1 852.2 313.9 854 313.9 871 317.1 869.2 317.1 852.2"/>
<path class="cls-25" d="M313.9,856.4,210.7,796.8V746.6a5.5,5.5,0,0,1,8.2-4.8l92.3,53a5.5,5.5,0,0,1,2.7,4.8Z"/>
<polygon class="cls-23" points="515.6 753.3 518.8 755.1 518.8 738.1 515.6 736.3 515.6 753.3"/>
<polygon class="cls-24" points="522 736.3 518.8 738.1 518.8 755.2 522 753.3 522 736.3"/>
<polygon class="cls-26" points="317.1 839.7 523.6 720.5 523.6 735.6 317.1 854.8 317.1 839.7"/>
<polygon class="cls-25" points="317.1 854.8 313.9 856.4 313.9 799.6 317.1 798 317.1 854.8"/>
<polygon class="cls-27" points="633.8 443.3 689.5 411.1 759.1 450.9 759.1 579.5 703.4 611.7 633.8 571.9 633.8 443.3"/>
<polygon class="cls-28" points="703.4 611.7 703.4 483.5 633.8 443.3 633.8 571.9 703.4 611.7"/>
<polygon class="cls-29" points="645.9 482.5 645.9 533.6 640.9 530.8 641 479.6 645.9 482.5"/>
<polygon class="cls-30" points="703.4 483.5 759.1 450.9 759.1 579.5 703.4 611.7 703.4 483.5"/>
<polyline class="cls-31" points="709.9 608.4 709.9 479.8 640.1 439.8"/>
<polyline class="cls-32" points="709.9 533 703.4 536.5 633.8 496.3"/>
<polygon class="cls-33" points="714.6 568.2 846.1 644.5 911.8 606.5 780.3 530.3 714.6 568.2"/>
<polygon class="cls-34" points="714.6 564.8 911.8 678.7 977.5 640.7 780.3 526.8 714.6 564.8"/>
<polygon class="cls-35" points="716.5 622.8 716.5 565.8 911.8 678.7 911.8 735.6 716.5 622.8"/>
<polygon class="cls-36" points="760.4 572.2 813 602.8 846.1 583.8 793.5 553.3 760.4 572.2"/>
<polygon class="cls-37" points="771.2 578.4 813.1 602.8 835.1 589.9 793.2 565.5 771.2 578.4"/>
<polygon class="cls-38" points="805.2 558.4 833.4 574.8 840.5 570.7 812.3 554.3 805.2 558.4"/>
<polygon class="cls-39" points="911.8 678.7 977.5 640.7 977.5 697.6 911.8 735.6 911.8 678.7"/>
<polygon class="cls-40" points="714.6 564.8 714.6 568.2 846.1 644.5 846.1 640.7 714.6 564.8"/>
<polygon class="cls-41" points="846.1 640.7 911.8 602.8 977.5 640.7 911.8 678.7 846.1 640.7"/>
<polygon class="cls-28" points="846.1 640.7 846.1 697.6 911.8 735.6 911.8 678.7 846.1 640.7"/>
<polygon class="cls-42" points="857.9 660.6 857.9 687.6 900 711.9 900 684.9 857.9 660.6"/>
<ellipse class="cls-43" cx="911.8" cy="659.7" rx="13" ry="7.8"/>
<ellipse class="cls-43" cx="941.8" cy="643.5" rx="13" ry="7.8"/>
<ellipse class="cls-43" cx="878.9" cy="640.7" rx="13" ry="7.8"/>
<ellipse class="cls-43" cx="909" cy="624.6" rx="13" ry="7.8"/>
<polygon class="cls-44" points="911.8 602.8 911.8 587.6 977.5 625.5 977.5 640.7 911.8 602.8"/>
<polygon class="cls-45" points="909 604.6 909 589.4 974.7 627.4 974.7 642.6 909 604.6"/>
<polygon points="977.5 625.5 974.7 627.4 974.7 642.6 977.5 640.7 977.5 625.5"/>
<polygon class="cls-46" points="909 589.4 911.8 587.6 977.5 625.5 974.7 627.4 909 589.4"/>
<polygon class="cls-47" points="854.1 655.8 849.1 658.7 898.7 687.4 903.7 684.5 902.2 683.6 898.7 685.5 852.2 658.6 855.4 656.6 854.1 655.8"/>
<polygon class="cls-47" points="854.1 658.1 849.1 661 898.7 689.7 903.7 686.8 902.2 685.9 898.7 687.8 852.2 660.9 855.4 658.9 854.1 658.1"/>
<polygon class="cls-33" points="849.1 661 849.1 658.7 898.7 687.4 898.7 689.7 849.1 661"/>
<polygon class="cls-48" points="903.7 684.5 903.7 686.8 898.7 689.7 898.7 687.4 903.7 684.5"/>
<polygon class="cls-48" points="855.4 658.9 855.4 656.6 852.2 658.6 854.1 659.7 855.4 658.9"/>
<polygon class="cls-49" points="793.5 553.3 793.2 565.5 835.1 589.9 846.1 583.8 793.5 553.3"/>
<polygon class="cls-50" points="821 544.5 822.6 545.3 810.8 552.1 809.2 551.3 821 544.5"/>
<polyline class="cls-51" points="810.8 553 810.8 552.1 809.2 551.3 809.2 552.2 810.8 553"/>
<polygon class="cls-52" points="821.2 546.1 822.6 545.3 822.6 564.7 821.2 565.5 821.2 546.1"/>
<polygon class="cls-52" points="810.8 552.1 810.8 553 821.2 547 821.2 546.1 810.8 552.1"/>
<polygon class="cls-53" points="819.6 548 821.2 547 821.2 565.5 819.6 564.7 819.6 548"/>
<path class="cls-22" d="M442.2,975.8l49.9-28.7a4.3,4.3,0,0,1,4.4,0l87.1,50.5a4.4,4.4,0,0,1,0,7.6l-49.2,28.6a4.3,4.3,0,0,1-4.4,0l-87.8-50.4A4.3,4.3,0,0,1,442.2,975.8Z"/></g><g id="log-sleep">
<path class="cls-54" d="M269.8,756.1s-14.7,7.5-16.6,16c0,0,16.1,3.2,23.4-1.5C276.6,770.6,276.1,764.1,269.8,756.1Z"/>
<ellipse class="cls-55" cx="350.8" cy="696.9" rx="8.3" ry="7.1" transform="translate(-420.9 581.9) rotate(-54.8)"/>
<path class="cls-56" d="M352,695.4h0c4.5,3.5,4.8,10.6.6,15.9l-27.3,28.1c-2.4,2.5-6,3-8.3,1.2h0c-2.3-1.8-2.7-5.4-.9-8.3l20.3-33.6C340.5,693.4,347.5,691.9,352,695.4Z"/>
<path class="cls-57" d="M412,671.4c2.1.1,3.6.9,5.2,3.3s.1,13.4-5.3,16.2l-44,28.5c-5.3,2.8-11.7,1-14.3-4h0c-2.6-4.9-.4-11.2,4.9-14h.1l45.3-18.3C406.4,681.7,409.9,671.3,412,671.4Z"/>
<g class="cls-1">
<path class="cls-57" d="M342.9,723.5l.5-11.2c-.1,1.6.9,3.4,3.1,4.7l-.5,11.2C343.8,726.9,342.8,725.1,342.9,723.5Z"/>
<path class="cls-57" d="M394.7,718l-.5,11.2c-.1,1.6-1.2,3.2-3.5,4.4l.6-11.2C393.5,721.2,394.6,719.6,394.7,718Z"/>
<polygon class="cls-57" points="391.3 722.4 390.7 733.6 378.9 739.8 379.4 728.6 391.3 722.4"/>
<polygon class="cls-57" points="363.6 727.9 363.1 739.1 346 728.2 346.5 717 363.6 727.9"/>
<path class="cls-57" d="M379.4,728.6l-.5,11.2c-4.4,2.4-11.5,2-15.8-.7l.5-11.2C367.9,730.6,375,731,379.4,728.6Z"/>
<path class="cls-57" d="M346.5,717c-4.3-2.7-4.1-6.8.3-9.1l11.8-6.2c4.5-2.4,11.6-2.1,15.9.6l17.1,10.9c4.3,2.7,4.1,6.9-.3,9.2l-11.9,6.2c-4.4,2.4-11.5,2-15.8-.7Z"/>
</g>
<path class="cls-54" d="M271.6,766.9s18.1-18.6,11.1-35.6C282.7,731.3,294.1,748.1,271.6,766.9Z"/>
<path class="cls-57" d="M432.5,686.2c2,.1,3.5,1,5.1,3.3s.3,13.3-4.8,16L390.7,733a10.3,10.3,0,0,1-13.9-4.2h0a10.2,10.2,0,0,1,4.5-13.8l43.5-17.4C427.3,696.3,430.4,686,432.5,686.2Z"/>
<g class="cls-1">
<path class="cls-58" d="M349.6,711.8l-.5,11.2a1.4,1.4,0,0,0-1.4-.1l.5-11.2A1.4,1.4,0,0,1,349.6,711.8Z"/>
<polygon class="cls-58" points="348.2 711.7 347.7 722.9 344.1 725.2 344.6 714 348.2 711.7"/>
<path class="cls-58" d="M344.1,725.2a.3.3,0,0,0-.3.3l.5-11.2q0-.1.3-.3C344.4,717.3,344.2,721.8,344.1,725.2Z"/>
<path class="cls-59" d="M344.3,714.7l-.5,11.2v-.3h0l.5-11.2h0Z"/>
<path class="cls-58" d="M343.8,725.9c-.1,1.5-2.5,2.8-3.7,3.4.1-3.8.3-7.5.5-11.2,1.3-.6,3.7-1.9,3.7-3.4C344.2,718,344,722.5,343.8,725.9Z"/>
<polygon class="cls-59" points="355.9 728.6 355.4 739.8 340 730 340.5 718.8 355.9 728.6"/>
<path class="cls-58" d="M340.1,729.3a.4.4,0,0,0-.4.3l.5-11.2.4-.3h0c-.2,3.7-.4,7.4-.5,11.2Z"/>
<path class="cls-59" d="M339.7,729.6l.5-11.2c0,.2.1.3.3.4L340,730C339.8,729.9,339.7,729.8,339.7,729.6Z"/>
<polygon class="cls-58" points="368.9 723.8 368.4 735 349.1 723 349.6 711.8 368.9 723.8"/>
<polygon class="cls-59" points="368.9 724.6 368.4 735.8 364.1 738 364.7 726.8 368.9 724.6"/>
<path class="cls-58" d="M368.6,735.3l-.2-.3.5-11.2c.1.1.2.2.2.3C369,727.8,368.8,731.5,368.6,735.3Z"/>
<path class="cls-58" d="M368.6,735.3v-.5c.2-3.6.4-7.2.5-10.7h.1l-.6,11.2Z"/>
<path class="cls-59" d="M369.2,724.2l-.6,11.2a.8.8,0,0,1-.2.4l.5-11.2Z"/>
<path class="cls-59" d="M364.7,726.8l-.6,11.2a1.2,1.2,0,0,1-1,0c-.9-.3-3-.5-6.3,1.8a1.2,1.2,0,0,1-1.4,0l.5-11.2a1.2,1.2,0,0,0,1.4,0c3.3-2.3,5.4-2.1,6.3-1.8A1.4,1.4,0,0,0,364.7,726.8Z"/>
<path class="cls-58" d="M343.6,709.1c3.5-2.8,10.8-2.9,15.1-.2l10.6,6.8c13,8.2,11.1,20.8-4,26.8l-15.4,6.1c-8.9,3.5-21.2,2.6-29.1-2l-.6-.4c-7.5-4.8-8.4-11.8-2.2-16.7Zm6,2.7a1.4,1.4,0,0,0-1.4-.1l-3.6,2.3c-.2.1-.3.2-.3.4s-2.4,3-3.7,3.7-.5.5-.1.7l15.4,9.8a1.2,1.2,0,0,0,1.4,0c3.3-2.3,5.4-2.1,6.3-1.8a1.4,1.4,0,0,0,1.1,0l4.2-2.2a.5.5,0,0,0,0-.8l-19.3-12"/>
<path class="cls-59" d="M340.5,718.8c-.4-.2-.3-.6.1-.7s4-2.1,3.7-3.7.1-.3.3-.4l3.6-2.3a1.4,1.4,0,0,1,1.4.1l19.3,12a.5.5,0,0,1,0,.8l-4.2,2.2a1.4,1.4,0,0,1-1.1,0c-.9-.3-3-.5-6.3,1.8a1.2,1.2,0,0,1-1.4,0Z"/>
<path class="cls-58" d="M377.9,728.8l-.5,11.2c-.3,5.4-4.6,10.5-12.7,13.7l.6-11.2C373.4,739.3,377.7,734.2,377.9,728.8Z"/>
<polygon class="cls-58" points="365.3 742.5 364.7 753.7 349.4 759.8 349.9 748.6 365.3 742.5"/>
<path class="cls-58" d="M313.4,747.7l.5-11.2c-.2,3.5,2,6.9,6.3,9.7l.6.4c7.9,4.6,20.2,5.5,29.1,2l-.5,11.2c-8.9,3.5-21.2,2.6-29.1-2l-.7-.4C315.4,754.6,313.2,751.2,313.4,747.7Z"/>
</g>
<line class="cls-60" x1="328.7" y1="744.1" x2="338.4" y2="738.7"/>
<path class="cls-61" d="M338.6,739.3a.7.7,0,0,0,.3-.9.7.7,0,0,0-.9-.2.5.5,0,0,0-.2.8C338,739.3,338.3,739.5,338.6,739.3Z"/>
<line class="cls-60" x1="318.9" y1="737.7" x2="329.4" y2="731.3"/>
<path class="cls-61" d="M329.7,731.8a.7.7,0,0,0,.2-.8.7.7,0,0,0-.9-.2.6.6,0,0,0-.2.8A.7.7,0,0,0,329.7,731.8Z"/>
<path class="cls-59" d="M332.8,753.9c0-4.1-5.7-14.8-8.8-16.7-6.4-3.8-10.7,3.5-10.7,3.5s2.6,22.9,14.8,23.8C336.9,765.1,332.8,758,332.8,753.9Z"/>
<path class="cls-54" d="M276,771.3s-9.8-17.1-5.8-29.6C270.2,741.7,260.3,755.5,276,771.3Z"/>
<path class="cls-54" d="M285.5,741.7c13.1-6.9,27.6-2.5,34.8,11.5s2.6,30.7-10.5,37.6-29.6,1-36.9-12.9S272.4,748.5,285.5,741.7Z"/>
<circle class="cls-54" cx="323.6" cy="776.7" r="8.4"/>
<rect class="cls-62" x="311.6" y="742.1" width="13.2" height="17.33" rx="6.6" transform="translate(-200.3 1380.1) rotate(-117.5)"/>
<path class="cls-55" d="M288.9,741.4c2.8-10,20.2-9.1,27.2,4.3s6,29.3-7.4,36.3-27.3,8.6-34.2-4.8l-.3-.6C267.6,763.3,275.6,748.3,288.9,741.4Z"/>
<path class="cls-54" d="M278.7,764.8c30.7,8.2,43.7-11.9,43.7-11.9s-3.3,21.1-29.8,29.7C276.9,787.7,278.7,764.8,278.7,764.8Z"/>
<path class="cls-54" d="M279,769s6.3-47.8,23.8-34.5C288.7,720.2,268.4,748,279,769Z"/>
<path class="cls-54" d="M273,773.6s-2.9-32,13.8-44C286.8,729.6,260.3,739,273,773.6Z"/>
<path class="cls-54" d="M275.6,762.4s1-21,18.5-24C294.1,738.4,270.9,732.6,275.6,762.4Z"/>
<path class="cls-54" d="M276.8,781.5s38.6-3.7,47.5-22.7C324.3,765.4,310.4,801.1,276.8,781.5Z"/>
<path class="cls-54" d="M287.9,767.1s-5.1-2-4.4-5c0,0-3.5,1.3-4.5-3.5C279,758.6,276.4,772.4,287.9,767.1Z"/>
<rect class="cls-35" x="319.5" y="782.3" width="2" height="15.94" transform="translate(477.4 1628.4) rotate(-168.5)"/>
<ellipse class="cls-55" cx="399.5" cy="739.8" rx="8.3" ry="7.1" transform="translate(-296.8 268.6) rotate(-27.5)"/>
<path class="cls-58" d="M399.8,740.4h0a14.2,14.2,0,0,1-9.8,17.8l-46.3,7.3a8.3,8.3,0,0,1-9.2-5.7h0a8.2,8.2,0,0,1,4.6-9.8l42.8-19.1A14.3,14.3,0,0,1,399.8,740.4Z"/>
<path class="cls-54" d="M297.4,788.4s-13.8,11.7-22.4,10.1c0,0,1.4-13.9,8.6-18.8A16.6,16.6,0,0,1,297.4,788.4Z"/>
<g class="cls-1">
<path class="cls-57" d="M277.9,744.7v-.9a.9.9,0,0,1,.3-.6,3.1,3.1,0,0,1,1.6-1.2,14.7,14.7,0,0,1,6.9-1.7v.9a15.4,15.4,0,0,0-7,1.7,4.4,4.4,0,0,0-1.6,1.2A1.4,1.4,0,0,0,277.9,744.7Z"/>
<path class="cls-57" d="M295,745.1v.9a3.8,3.8,0,0,0-2.1-3.3,11.9,11.9,0,0,0-6.2-1.5v-.9a12.2,12.2,0,0,1,6.3,1.5A3.7,3.7,0,0,1,295,745.1Z"/>
<path class="cls-57" d="M292.2,750.3h-.5v-.9h.5Z"/>
<path class="cls-57" d="M292.3,750.5c0-.1,0-.1-.1-.2v-.9c.1.1.2.1.2.2Z"/>
<path class="cls-57" d="M291.3,750.5v-.9c0-.1.2-.2.4-.3v.9C291.4,750.2,291.3,750.4,291.3,750.5Z"/>
<path class="cls-57" d="M292.4,750.6a.1.1,0,0,0-.1-.1v-.9a.3.3,0,0,0,.1.2Z"/>
<path class="cls-57" d="M296,746.6a6.5,6.5,0,0,1-3.6,4v-.7h0c2-1.2,3.3-2.7,3.5-4.1a1.3,1.3,0,0,0,.1-.6v.9C296.1,746.2,296,746.4,296,746.6Z"/>
<path class="cls-57" d="M291.3,750.5v-.9h0l.3.5a4.6,4.6,0,0,0,1.2,1.2v.9a4.9,4.9,0,0,1-1.3-1.2c-.1-.2-.2-.3-.2-.5Z"/>
<path class="cls-57" d="M277.3,745.9a2.1,2.1,0,0,1-.5-1.3v-.8a2.1,2.1,0,0,0,.5,1.2,10.2,10.2,0,0,0,2.5,1.9l1.7,1.1,1.6,1a11.8,11.8,0,0,0,4.1,1.9,6.6,6.6,0,0,0,2.4-.1l2-.6v.9a7.6,7.6,0,0,1-2,.6,4.9,4.9,0,0,1-2.4,0,11.4,11.4,0,0,1-4.1-1.8l-1.6-1-1.6-1.1A10.2,10.2,0,0,1,277.3,745.9Z"/>
<path class="cls-57" d="M295.7,752.7h-.2v-.9h.2Z"/>
<path class="cls-57" d="M296.3,752.1v.9c0-.1,0-.2-.1-.2h-.4v-.9h.3A.2.2,0,0,1,296.3,752.1Z"/>
<path class="cls-57" d="M292.8,751.4a4.6,4.6,0,0,1-1.2-1.2l-.3-.5c-.1-.2.1-.3.4-.4h.5c.1.1.2.1.2.2a.3.3,0,0,0,.1.2,3.2,3.2,0,0,0,1.1,1.2,4,4,0,0,0,2,.7h.5c.1.1.2.2.1.3h-.6l-.9-.2A7.1,7.1,0,0,1,292.8,751.4Z"/>
<path class="cls-57" d="M277.1,742.9a6.2,6.2,0,0,1,1.9-1.4,16.5,16.5,0,0,1,7.7-1.8,13.6,13.6,0,0,1,7.1,1.7c1.8,1.2,2.5,2.7,2.2,4.3s-1.5,2.9-3.5,4.1a.3.3,0,0,1-.1-.2c0-.1-.1-.1-.2-.2h-.5c-.3.1-.5.2-.4.4l.3.5-2,.6a6.6,6.6,0,0,1-2.4.1,11.8,11.8,0,0,1-4.1-1.9l-1.6-1-1.7-1.1a10.2,10.2,0,0,1-2.5-1.9A1.7,1.7,0,0,1,277.1,742.9Zm9.6-2.6a14.7,14.7,0,0,0-6.9,1.7,3.1,3.1,0,0,0-1.6,1.2,1,1,0,0,0-.2,1c.2.7,1.2,1.4,2.5,2.2h.1l1.6,1,1.7,1.1a11.6,11.6,0,0,0,2.7,1.4,4.6,4.6,0,0,0,2.6.2,9.1,9.1,0,0,0,2.3-.8c2-1.1,3.2-2.5,3.5-3.9a3.7,3.7,0,0,0-2-3.7,12.2,12.2,0,0,0-6.3-1.5"/>
<path class="cls-57" d="M296.3,752.1v.9h0v-.9Z"/>
<path class="cls-57" d="M296.2,752.2v.9H296v-.9Z"/>
<path class="cls-57" d="M295.6,752.4v.9l-.9-.2a5.2,5.2,0,0,1-1.9-.8v-.9a7.1,7.1,0,0,0,1.9.8Z"/><path class="cls-57" d="M296.1,752.3v.9h-.4v-.9Z"/><path class="cls-57" d="M294.2,755.1v-.9a.9.9,0,0,1,.3-.6,3.8,3.8,0,0,1,1.6-1.3v.9a5.8,5.8,0,0,0-1.6,1.3A1.4,1.4,0,0,0,294.2,755.1Z"/><path class="cls-57" d="M311.3,755.5v.9a3.8,3.8,0,0,0-2.1-3.3,11.9,11.9,0,0,0-6.2-1.5,16.7,16.7,0,0,0-7,1.6v-.9a16.2,16.2,0,0,1,6.9-1.6,12.2,12.2,0,0,1,6.3,1.5A3.7,3.7,0,0,1,311.3,755.5Z"/><path class="cls-57" d="M293.6,756.3a2.1,2.1,0,0,1-.5-1.3v-.9a1.8,1.8,0,0,0,.6,1.3,10,10,0,0,0,2.4,1.9v.9A13.5,13.5,0,0,1,293.6,756.3Z"/><path class="cls-57" d="M296.1,757.3a10,10,0,0,1-2.4-1.9,1.6,1.6,0,0,1-.3-2.1,5,5,0,0,1,1.3-1.1l.9.2h.5a3.8,3.8,0,0,0-1.6,1.3,1,1,0,0,0-.2,1,6.2,6.2,0,0,0,2.5,2.2h.1l1.7,1,1.6,1.1a11.6,11.6,0,0,0,2.7,1.4,4.6,4.6,0,0,0,2.6.2,9.1,9.1,0,0,0,2.3-.8c2-1.1,3.2-2.5,3.5-3.9a3.6,3.6,0,0,0-2-3.7,12.2,12.2,0,0,0-6.3-1.5,16.2,16.2,0,0,0-6.9,1.6h.1c.1-.1,0-.2-.1-.3h-.5a16.4,16.4,0,0,1,7.4-1.6,12.7,12.7,0,0,1,7.1,1.7c1.8,1.2,2.5,2.7,2.3,4.2s-1.6,3.1-3.9,4.3a10.1,10.1,0,0,1-2.6.9,4.9,4.9,0,0,1-2.4,0,11.7,11.7,0,0,1-4.1-1.8l-1.6-1.1Z"/><path class="cls-57" d="M297.7,759.2l-1.6-1v-.9l1.7,1,1.6,1.1a11.7,11.7,0,0,0,4.1,1.8,4.9,4.9,0,0,0,2.4,0,10.1,10.1,0,0,0,2.6-.9c2.3-1.2,3.6-2.7,3.9-4.3v.4a4.3,4.3,0,0,1-.1.5,6.6,6.6,0,0,1-3.8,4.2,10.6,10.6,0,0,1-2.6,1,5.3,5.3,0,0,1-2.5,0,13.5,13.5,0,0,1-4.1-1.8Z"/></g><path class="cls-54" d="M291.9,789.5s-30.2-6-22.1-34.3c0,0,7.6-9.6,1.8-19.6,0,0,8.1,6.9,5.9,24.6s15.4,13.3,15.4,13.3Z"/></g><g id="couch-front"><path class="cls-25" d="M314.3,793.2a5.6,5.6,0,0,1,2.8,4.8v56.8L213.8,795.2V745a5.6,5.6,0,0,1,8.3-4.8"/><path class="cls-25" d="M222.1,740.2l92.2,53"/><path class="cls-25" d="M313.9,856.4,210.7,796.8V746.6a5.5,5.5,0,0,1,8.2-4.8l92.3,53a5.5,5.5,0,0,1,2.7,4.8Z"/><polygon class="cls-25" points="317.1 854.8 313.9 856.4 313.9 799.6 317.1 798 317.1 854.8"/></g><g id="night"><polygon class="cls-63" points="169.5 390.4 689.5 90.3 1105.1 330.4 1105.4 770.7 585.5 1070.9 169.2 830.2 169.5 390.4"/></g></g></svg>