<svg xmlns="http://www.w3.org/2000/svg" viewBox="0 0 969.1 1017.4"><defs><style>.cls-1{fill:#b4aeaa;}.cls-2{fill:#e9f0f3;}.cls-3{fill:#f0e8e2;}.cls-4{fill:#d8e0e5;}.cls-5{fill:#c4d0d8;}.cls-6{fill:#878380;}.cls-7{fill:#a6c2cd;}.cls-8{fill:#b3b3b3;}.cls-38,.cls-9{fill:gray;}.cls-10{fill:#666;}.cls-11{fill:#303030;}.cls-12{fill:#b3e1e5;}.cls-13{fill:#8baeb3;}.cls-14{fill:#d5f1f5;}.cls-15{fill:#b9e8ef;}.cls-16{fill:#e1f3f5;}.cls-17{fill:#353030;}.cls-18{fill:#3d3a3a;}.cls-19{fill:#cdcdcd;}.cls-20{fill:#b4b4b4;}.cls-21{fill:#3f3f3f;}.cls-22{fill:#2b2828;}.cls-23{fill:#ebebeb;}.cls-24{fill:#fff;}.cls-25{fill:#cbcbcb;}.cls-26{fill:#d8d8d8;}.cls-27,.cls-28{fill:none;stroke:#b0b0b0;stroke-miterlimit:10;}.cls-27,.cls-28,.cls-38{stroke-linecap:round;}.cls-27{stroke-width:0.75px;}.cls-28,.cls-38{stroke-width:2px;}.cls-29{fill:#d1d1d1;}.cls-30{fill:#e8e8e8;}.cls-31{fill:#ceab89;}.cls-32{fill:#aaaaa9;}.cls-33{fill:#999997;}.cls-34{fill:#adadac;}.cls-35{fill:#c1c1c1;}.cls-36{fill:#efefef;}.cls-37{fill:#f0f0f0;}.cls-38{stroke:#686868;stroke-linejoin:round;}.cls-39{fill:#595959;}.cls-40{fill:#f9f9f9;}.cls-41{fill:#2b2727;}.cls-42{fill:#20201d;}.cls-43{fill:#9d9d9d;}.cls-44{fill:#696969;}.cls-45{fill:#b3b3b1;}.cls-46{fill:#cccccb;}.cls-47{fill:#e0e0e0;}.cls-48{fill:#999998;}.cls-49{fill:#737372;}</style></defs><g id="Layer_2" data-name="Layer 2"><g id="Layer_10" data-name="Layer 10"><polygon class="cls-1" points="0.2 748.3 0.2 767.5 431.5 1017.4 431.5 998.8 0.2 748.3"/><polygon class="cls-2" points="966.5 249.5 951.2 258.3 535.5 18.2 15.5 318.4 0 309.4 535.5 0 966.5 249.5"/><polygon class="cls-3" points="15.3 758.1 535.5 458 951.5 698.6 431.5 998.8 15.3 758.1"/><polygon class="cls-4" points="15.5 318.4 535.5 18.2 535.5 458.8 15.5 758.7 15.5 318.4"/><polygon class="cls-5" points="951.4 258.4 951.5 698.6 535.8 458.6 535.5 18.2 951.4 258.4"/><polygon class="cls-6" points="431.5 1017.4 969 708.9 968.1 689 431.5 998.8 431.5 1017.4"/><polygon class="cls-7" points="15.5 758.6 0.2 749.8 0 309.4 15.5 318.3 15.5 758.6"/><polygon class="cls-7" points="951.5 258.4 966.8 249.5 968.1 689 951.5 698.6 951.5 258.4"/><polygon class="cls-8" points="559.3 801.7 559.3 797.2 566.2 801.1 566.2 805.7 559.3 801.7"/><polygon class="cls-9" points="586.8 781.3 607.4 769.4 614.3 773.4 593.7 785.3 614.3 797.2 607.4 801.1 586.8 789.2 566.2 801.1 559.3 797.2 579.9 785.3 559.3 773.4 566.2 769.4 586.8 781.3"/><polygon class="cls-10" points="566.2 805.7 566.2 801.1 586.8 789.2 607.4 801.1 607.4 805.7 586.8 793.8 566.2 805.7"/><polygon class="cls-11" points="607.4 805.7 607.4 801.1 614.3 797.2 614.3 801.7 607.4 805.7"/><polygon class="cls-8" points="559.3 777.9 559.3 773.4 579.9 785.2 576 787.5 559.3 777.9"/><polygon class="cls-11" points="597.6 787.5 593.7 785.3 614.3 773.4 614.3 777.9 597.6 787.5"/><polygon class="cls-10" points="579.9 785.2 579.9 745.9 586.8 749.6 586.8 789.2 579.9 785.2"/><polygon class="cls-11" points="593.7 785.3 593.7 745.9 586.8 749.6 586.8 789.2 593.7 785.3"/><polygon class="cls-12" points="553.4 741.9 594.6 718.1 635.8 741.9 594.6 765.7 553.4 741.9"/><polygon class="cls-13" points="594.6 773.6 594.6 765.7 635.8 741.9 635.8 749.8 594.6 773.6"/><polygon class="cls-14" points="546.5 745.9 553.4 741.9 594.6 765.7 594.6 773.6 546.5 745.9"/><polygon class="cls-15" points="553.4 741.9 553.4 686.4 594.6 662.5 594.6 718.1 553.4 741.9"/><polygon class="cls-16" points="553.4 741.9 553.4 686.4 546.5 682.4 546.5 745.9 553.4 741.9"/><polygon class="cls-14" points="587.7 658.6 594.6 662.5 553.4 686.4 546.5 682.4 587.7 658.6"/><polygon class="cls-17" points="266.1 588.2 162.8 647.8 59.6 707.4 162.8 767 266.1 707.4 369.3 647.8 266.1 588.2"/><path class="cls-17" d="M59.6,722.5V666.1a5.8,5.8,0,0,1,2.9-5l91.6-52.9a5.8,5.8,0,0,1,8.7,5.1v49.6Z"/><path class="cls-17" d="M162.8,662.9V606.7a5.9,5.9,0,0,1,3-5l91.5-52.9a5.9,5.9,0,0,1,8.8,5.1v49.4Z"/><path class="cls-18" d="M260.7,591.2l-81.8,47.3a10.7,10.7,0,0,0,0,18.5l81.8,47.3a10.8,10.8,0,0,0,10.7,0L353.3,657a10.7,10.7,0,0,0,0-18.5l-81.9-47.3A10.8,10.8,0,0,0,260.7,591.2Z"/><polygon class="cls-19" points="59.6 739.5 62.7 741.3 62.7 724.3 59.6 722.5 59.6 739.5"/><polygon class="cls-20" points="65.9 722.5 62.7 724.3 62.7 741.4 65.9 739.5 65.9 722.5"/><path class="cls-18" d="M76.2,697.8,157.3,651a11,11,0,0,1,11.1,0l81.1,46.8a11.1,11.1,0,0,1,0,19.2l-81.1,46.8a11,11,0,0,1-11.1,0L76.2,717A11.1,11.1,0,0,1,76.2,697.8Z"/><path class="cls-21" d="M162.8,782.1,59.6,722.5V672.3a5.5,5.5,0,0,1,8.2-4.8l92.3,53a5.5,5.5,0,0,1,2.7,4.8Z"/><polygon class="cls-19" points="156.5 796.5 159.7 798.3 159.7 781.3 156.5 779.5 156.5 796.5"/><polygon class="cls-20" points="162.9 779.5 159.7 781.3 159.7 798.3 162.9 796.5 162.9 779.5"/><path class="cls-21" d="M159.7,783.7,56.4,724.1V673.9a5.5,5.5,0,0,1,8.3-4.8l92.2,53a5.6,5.6,0,0,1,2.8,4.8Z"/><polygon class="cls-19" points="361.4 680.6 364.5 682.4 364.5 665.4 361.4 663.6 361.4 680.6"/><polygon class="cls-20" points="367.7 663.6 364.5 665.4 364.5 682.4 367.7 680.6 367.7 663.6"/><polygon class="cls-22" points="162.8 767 369.3 647.8 369.3 662.9 162.8 782.1 162.8 767"/><polygon class="cls-21" points="162.8 782.1 159.7 783.7 159.7 726.9 162.8 725.3 162.8 782.1"/><polygon class="cls-23" points="479.5 370.6 535.2 338.4 604.8 378.2 604.8 506.8 549.1 538.9 479.5 499.2 479.5 370.6"/><polygon class="cls-24" points="549.1 538.9 549.1 410.8 479.5 370.6 479.5 499.2 549.1 538.9"/><polygon class="cls-25" points="491.6 409.8 491.6 460.9 486.7 458.1 486.7 406.9 491.6 409.8"/><polygon class="cls-26" points="549.1 410.8 604.8 378.2 604.8 506.8 549.1 538.9 549.1 410.8"/><polyline class="cls-27" points="555.6 535.7 555.6 407.1 485.8 367.1"/><polyline class="cls-28" points="555.6 460.2 549.1 463.8 479.5 423.6"/><polygon class="cls-29" points="560.4 495.5 691.8 571.8 757.6 533.8 626.1 457.6 560.4 495.5"/><polygon class="cls-30" points="560.4 492.1 757.6 605.9 823.3 568 626.1 454.1 560.4 492.1"/><polygon class="cls-31" points="562.3 550.1 562.3 493.1 757.6 605.9 757.6 662.9 562.3 550.1"/><polygon class="cls-32" points="606.2 499.5 658.8 530 691.8 511.1 639.2 480.5 606.2 499.5"/><polygon class="cls-33" points="616.9 505.7 658.8 530 680.9 517.1 639 492.8 616.9 505.7"/><polygon class="cls-34" points="651 485.7 679.2 502.1 686.3 497.9 658 481.5 651 485.7"/><polygon class="cls-35" points="757.6 605.9 823.3 568 823.3 624.9 757.6 662.9 757.6 605.9"/><polygon class="cls-36" points="560.4 492.1 560.4 495.5 691.8 571.8 691.8 568 560.4 492.1"/><polygon class="cls-37" points="691.8 568 757.6 530 823.3 568 757.6 605.9 691.8 568"/><polygon class="cls-24" points="691.8 568 691.8 624.9 757.6 662.9 757.6 605.9 691.8 568"/><polygon class="cls-38" points="703.7 587.9 703.7 614.9 745.7 639.1 745.7 612.2 703.7 587.9"/><ellipse class="cls-39" cx="757.6" cy="587" rx="13" ry="7.8"/><ellipse class="cls-39" cx="787.6" cy="570.8" rx="13" ry="7.8"/><ellipse class="cls-39" cx="724.7" cy="568" rx="13" ry="7.8"/><ellipse class="cls-39" cx="754.7" cy="551.9" rx="13" ry="7.8"/><polygon class="cls-40" points="757.6 530 757.6 514.8 823.3 552.8 823.3 568 757.6 530"/><polygon class="cls-41" points="754.7 531.9 754.7 516.7 820.5 554.7 820.5 569.9 754.7 531.9"/><polygon points="823.3 552.8 820.5 554.7 820.5 569.9 823.3 568 823.3 552.8"/><polygon class="cls-42" points="754.7 516.7 757.6 514.8 823.3 552.8 820.5 554.7 754.7 516.7"/><polygon class="cls-43" points="699.8 583.1 694.8 586 744.4 614.7 749.5 611.8 747.9 610.9 744.4 612.8 697.9 585.8 701.1 583.9 699.8 583.1"/><polygon class="cls-43" points="699.8 585.4 694.8 588.3 744.4 617 749.5 614.1 747.9 613.2 744.4 615.1 697.9 588.2 701.1 586.2 699.8 585.4"/><polygon class="cls-29" points="694.8 588.3 694.8 586 744.4 614.7 744.4 617 694.8 588.3"/><polygon class="cls-44" points="749.5 611.8 749.5 614.1 744.4 617 744.4 614.7 749.5 611.8"/><polygon class="cls-44" points="701.1 586.2 701.1 583.9 697.9 585.8 699.8 587 701.1 586.2"/><polygon class="cls-45" points="639.2 480.5 639 492.8 680.9 517.1 691.8 511.1 639.2 480.5"/><polygon class="cls-46" points="666.8 471.8 668.4 472.6 656.6 479.4 655 478.6 666.8 471.8"/><polyline class="cls-47" points="656.6 480.3 656.6 479.4 655 478.6 655 479.5 656.6 480.3"/><polygon class="cls-48" points="667 473.4 668.4 472.6 668.4 492 667 492.8 667 473.4"/><polygon class="cls-48" points="656.6 479.4 656.6 480.3 667 474.3 667 473.4 656.6 479.4"/><polygon class="cls-49" points="665.4 475.2 667 474.3 667 492.8 665.4 492 665.4 475.2"/><path class="cls-18" d="M288,903l49.8-28.6a4.5,4.5,0,0,1,4.5,0l87,50.4a4.4,4.4,0,0,1,0,7.7l-49.1,28.6a4.3,4.3,0,0,1-4.4,0L288,910.7A4.4,4.4,0,0,1,288,903Z"/></g></g></svg>