<svg xmlns="http://www.w3.org/2000/svg" viewBox="0 0 1247.8896 1224">
  <defs>
    <style>
      .cls-1 {
        isolation: isolate;
      }

      .cls-2 {
        opacity: 0.5;
      }

      .cls-3 {
        mix-blend-mode: multiply;
        opacity: 0.65;
      }

      .cls-4 {
        fill: #b4aeaa;
      }

      .cls-5 {
        fill: #e9f0f3;
      }

      .cls-6 {
        fill: #f0e8e2;
      }

      .cls-7 {
        fill: #d8e0e5;
      }

      .cls-8 {
        fill: #c4d0d8;
      }

      .cls-9 {
        fill: #878380;
      }

      .cls-10 {
        fill: #a6c2cd;
      }

      .cls-11 {
        fill: #b3b3b3;
      }

      .cls-12, .cls-41 {
        fill: gray;
      }

      .cls-13 {
        fill: #666;
      }

      .cls-14 {
        fill: #303030;
      }

      .cls-15 {
        fill: #b3e1e5;
      }

      .cls-16 {
        fill: #8baeb3;
      }

      .cls-17 {
        fill: #d5f1f5;
      }

      .cls-18 {
        fill: #b9e8ef;
      }

      .cls-19 {
        fill: #e1f3f5;
      }

      .cls-20 {
        fill: #353030;
      }

      .cls-21 {
        fill: #3d3a3a;
      }

      .cls-22 {
        fill: #cdcdcd;
      }

      .cls-23 {
        fill: #b4b4b4;
      }

      .cls-24 {
        fill: #3f3f3f;
      }

      .cls-25 {
        fill: #2b2828;
      }

      .cls-26 {
        fill: #ebebeb;
      }

      .cls-27 {
        fill: #fff;
      }

      .cls-28 {
        fill: #cbcbcb;
      }

      .cls-29 {
        fill: #d8d8d8;
      }

      .cls-30, .cls-31 {
        fill: none;
        stroke: #b0b0b0;
        stroke-miterlimit: 10;
      }

      .cls-30, .cls-31, .cls-41 {
        stroke-linecap: round;
      }

      .cls-30 {
        stroke-width: 0.75px;
      }

      .cls-31, .cls-41 {
        stroke-width: 2px;
      }

      .cls-32 {
        fill: #d1d1d1;
      }

      .cls-33 {
        fill: #e8e8e8;
      }

      .cls-34 {
        fill: #ceab89;
      }

      .cls-35 {
        fill: #aaaaa9;
      }

      .cls-36 {
        fill: #999997;
      }

      .cls-37 {
        fill: #adadac;
      }

      .cls-38 {
        fill: #c1c1c1;
      }

      .cls-39 {
        fill: #efefef;
      }

      .cls-40 {
        fill: #f0f0f0;
      }

      .cls-41 {
        stroke: #686868;
        stroke-linejoin: round;
      }

      .cls-42 {
        fill: #595959;
      }

      .cls-43 {
        fill: #f9f9f9;
      }

      .cls-44 {
        fill: #2b2727;
      }

      .cls-45 {
        fill: #20201d;
      }

      .cls-46 {
        fill: #9d9d9d;
      }

      .cls-47 {
        fill: #696969;
      }

      .cls-48 {
        fill: #b3b3b1;
      }

      .cls-49 {
        fill: #cccccb;
      }

      .cls-50 {
        fill: #e0e0e0;
      }

      .cls-51 {
        fill: #999998;
      }

      .cls-52 {
        fill: #737372;
      }

      .cls-53 {
        fill: #d6b79d;
      }

      .cls-54 {
        fill: #b28d6f;
      }

      .cls-55 {
        fill: #181818;
      }

      .cls-56 {
        fill: #0c0c0c;
      }

      .cls-57 {
        fill: #242424;
      }
    </style>
  </defs>
  <g class="cls-1">
    <g id="room-base">
      <g>
        <g>
          <polygon class="cls-4" points="154.462 821.011 154.462 840.258 585.759 1090.117 585.756 1071.567 154.462 821.011"/>
          <polygon class="cls-5" points="1120.732 322.189 1105.415 331.032 689.748 90.927 169.794 391.118 154.255 382.15 689.716 72.72 1120.732 322.189"/>
          <polygon class="cls-6" points="169.526 830.859 689.797 530.751 1105.71 771.37 585.756 1071.567 169.526 830.859"/>
          <polygon class="cls-7" points="169.794 391.118 689.748 90.927 689.737 531.476 169.794 831.409 169.794 391.118"/>
          <polygon class="cls-8" points="1105.673 331.105 1105.71 771.37 690.028 531.322 689.748 90.927 1105.673 331.105"/>
          <polygon class="cls-9" points="585.759 1090.117 1123.305 781.621 1122.389 761.741 585.759 1071.567 585.759 1090.117"/>
          <polygon class="cls-10" points="169.795 831.357 154.463 822.556 154.256 382.098 169.795 391.066 169.795 831.357"/>
          <polygon class="cls-10" points="1105.71 331.084 1121.027 322.24 1122.389 761.741 1105.71 771.37 1105.71 331.084"/>
        </g>
        <g>
          <g>
            <polygon class="cls-11" points="713.583 874.445 713.583 869.884 720.45 873.848 720.45 878.41 713.583 874.445"/>
            <g>
              <polygon class="cls-12" points="741.05 854.026 761.65 842.133 768.516 846.097 747.916 857.991 768.516 869.884 761.65 873.848 741.05 861.955 720.45 873.848 713.583 869.884 734.183 857.991 713.583 846.097 720.45 842.133 741.05 854.026"/>
              <polygon class="cls-13" points="720.45 878.41 720.45 873.848 741.05 861.955 761.65 873.848 761.65 878.41 741.05 866.516 720.45 878.41"/>
              <polygon class="cls-14" points="761.65 878.41 761.65 873.848 768.516 869.884 768.516 874.445 761.65 878.41"/>
              <polygon class="cls-11" points="713.583 850.659 713.583 846.097 734.183 857.962 730.253 860.26 713.583 850.659"/>
              <polygon class="cls-14" points="751.818 860.243 747.916 857.991 768.516 846.097 768.516 850.659 751.818 860.243"/>
              <polygon class="cls-13" points="734.183 857.962 734.183 818.658 741.05 822.311 741.05 861.955 734.183 857.962"/>
              <polygon class="cls-14" points="747.916 857.991 747.916 818.658 741.05 822.311 741.05 861.955 747.916 857.991"/>
            </g>
          </g>
          <g>
            <g>
              <polygon class="cls-15" points="707.628 814.612 748.828 790.826 790.028 814.612 748.828 838.399 707.628 814.612"/>
              <polygon class="cls-16" points="748.828 846.328 748.828 838.399 790.028 814.612 790.028 822.541 748.828 846.328"/>
              <polygon class="cls-17" points="700.762 818.577 707.628 814.612 748.828 838.399 748.828 846.328 700.762 818.577"/>
            </g>
            <g>
              <polygon class="cls-18" points="707.628 814.612 707.628 759.11 748.814 735.238 748.828 790.826 707.628 814.612"/>
              <polygon class="cls-19" points="707.628 814.612 707.628 759.11 700.776 755.117 700.762 818.577 707.628 814.612"/>
              <polygon class="cls-17" points="741.915 731.332 748.814 735.238 707.628 759.11 700.776 755.117 741.915 731.332"/>
            </g>
          </g>
        </g>
        <g>
          <polygon class="cls-20" points="420.344 660.879 317.095 720.489 213.847 780.1 317.095 839.71 420.344 780.1 523.592 720.489 420.344 660.879"/>
          <g>
            <path class="cls-20" d="M213.84733,795.21116l-.00013-56.34861a5.83046,5.83046,0,0,1,2.91524-5.04935l91.5873-52.87793a5.83047,5.83047,0,0,1,8.74571,5.04934l0,49.61611Z"/>
            <path class="cls-20" d="M317.09558,735.60073l-.00013-56.13061a5.84645,5.84645,0,0,1,2.92323-5.06319L411.574,621.54746a5.84644,5.84644,0,0,1,8.76967,5.06317v49.37966Z"/>
            <path class="cls-21" d="M414.99025,663.96984l-81.834,47.2468a10.70718,10.70718,0,0,0,0,18.54538l81.834,47.2469a10.7072,10.7072,0,0,0,10.70718,0l81.83391-47.24684a10.70718,10.70718,0,0,0,0-18.54537l-81.83392-47.24687A10.70718,10.70718,0,0,0,414.99025,663.96984Z"/>
            <g>
              <polygon class="cls-22" points="213.847 812.223 216.982 814.033 216.982 797.06 213.847 795.251 213.847 812.223"/>
              <polygon class="cls-23" points="220.195 795.211 216.983 797.065 216.983 814.073 220.181 812.226 220.195 795.211"/>
            </g>
            <path class="cls-21" d="M230.47073,770.50223l81.08356-46.81371a11.08231,11.08231,0,0,1,11.08231,0l81.08376,46.81374a11.0823,11.0823,0,0,1,0,19.19512l-81.08388,46.81369a11.08231,11.08231,0,0,1-11.08231,0l-81.08344-46.81372A11.08231,11.08231,0,0,1,230.47073,770.50223Z"/>
            <path class="cls-24" d="M317.09531,854.82163l-103.248-59.61047-.00011-50.20433a5.50325,5.50325,0,0,1,8.24557-4.77134l92.2416,53.01606a5.50326,5.50326,0,0,1,2.76092,4.77132Z"/>
            <g>
              <polygon class="cls-22" points="310.787 869.194 313.922 871.005 313.922 854.032 310.787 852.222 310.787 869.194"/>
              <polygon class="cls-23" points="317.134 852.183 313.922 854.036 313.922 871.044 317.121 869.197 317.134 852.183"/>
            </g>
            <path class="cls-24" d="M313.93621,856.40113l-103.248-59.61048-.00011-50.20433a5.50326,5.50326,0,0,1,8.24558-4.77133l92.24159,53.01606a5.50325,5.50325,0,0,1,2.76093,4.77131Z"/>
            <g>
              <polygon class="cls-22" points="515.638 753.308 518.773 755.118 518.773 738.145 515.638 736.336 515.638 753.308"/>
              <polygon class="cls-23" points="521.986 736.296 518.774 738.15 518.774 755.158 521.972 753.311 521.986 736.296"/>
            </g>
            <polygon class="cls-25" points="317.095 839.71 523.592 720.489 523.592 735.601 317.095 854.822 317.095 839.71"/>
            <polygon class="cls-24" points="317.096 854.826 313.936 856.401 313.936 799.602 317.095 798.023 317.096 854.826"/>
          </g>
        </g>
        <g>
          <g>
            <polygon class="cls-26" points="633.759 443.291 689.455 411.135 759.075 450.875 759.075 579.498 703.379 611.654 633.759 571.915 633.759 443.291"/>
            <polygon class="cls-27" points="703.379 611.654 703.379 483.486 633.759 443.291 633.759 571.915 703.379 611.654"/>
            <polygon class="cls-28" points="645.883 482.481 645.866 533.619 640.939 530.804 640.956 479.637 645.883 482.481"/>
          </g>
          <polygon class="cls-29" points="703.379 483.486 759.075 450.875 759.075 579.498 703.379 611.654 703.379 483.486"/>
          <polyline class="cls-30" points="709.901 608.394 709.901 479.838 640.07 439.803"/>
          <polyline class="cls-31" points="709.901 532.961 703.379 536.514 633.759 496.319"/>
        </g>
        <g>
          <polygon class="cls-32" points="714.616 568.226 846.082 644.495 911.816 606.544 780.349 530.275 714.616 568.226"/>
          <polygon class="cls-33" points="714.616 564.8 911.816 678.653 977.549 640.702 780.349 526.849 714.616 564.8"/>
          <polygon class="cls-34" points="716.512 622.776 716.512 565.849 911.816 678.653 911.816 735.58 716.512 622.776"/>
          <polygon class="cls-35" points="760.424 572.243 813.011 602.751 846.082 583.775 793.496 553.268 760.424 572.243"/>
          <polygon class="cls-36" points="771.153 578.441 813.057 602.751 835.116 589.853 793.212 565.543 771.153 578.441"/>
          <polygon class="cls-37" points="805.246 558.377 833.448 574.794 840.507 570.666 812.305 554.25 805.246 558.377"/>
          <polygon class="cls-38" points="911.816 678.653 977.549 640.702 977.549 697.629 911.816 735.58 911.816 678.653"/>
          <polygon class="cls-39" points="714.616 564.8 714.616 568.226 846.082 644.495 846.082 640.702 714.616 564.8"/>
          <polygon class="cls-40" points="846.082 640.702 911.816 602.751 977.549 640.702 911.816 678.653 846.082 640.702"/>
          <polygon class="cls-27" points="846.082 640.702 846.082 697.629 911.816 735.58 911.816 678.653 846.082 640.702"/>
          <polygon class="cls-41" points="857.914 660.625 857.914 687.576 899.984 711.865 899.984 684.913 857.914 660.625"/>
          <ellipse class="cls-42" cx="911.81575" cy="659.67759" rx="12.98696" ry="7.79217"/>
          <ellipse class="cls-42" cx="941.83798" cy="643.54651" rx="12.98696" ry="7.79217"/>
          <ellipse class="cls-42" cx="878.94906" cy="640.70206" rx="12.98696" ry="7.79217"/>
          <ellipse class="cls-42" cx="908.97127" cy="624.57095" rx="12.98696" ry="7.79217"/>
          <polygon class="cls-43" points="911.816 602.751 911.816 587.568 977.549 625.519 977.549 640.702 911.816 602.751"/>
          <polygon class="cls-44" points="908.971 604.62 908.971 589.437 974.705 627.388 974.705 642.571 908.971 604.62"/>
          <polygon points="977.549 625.519 974.705 627.388 974.705 642.571 977.549 640.702 977.549 625.519"/>
          <polygon class="cls-45" points="908.971 589.437 911.816 587.568 977.549 625.519 974.705 627.388 908.971 589.437"/>
          <polygon class="cls-46" points="854.088 655.823 849.056 658.71 898.702 687.373 903.735 684.487 902.178 683.588 898.702 685.497 852.154 658.568 855.4 656.58 854.088 655.823"/>
          <polygon class="cls-46" points="854.088 658.136 849.056 661.022 898.702 689.686 903.735 686.799 902.178 685.901 898.702 687.81 852.154 660.88 855.4 658.893 854.088 658.136"/>
          <polygon class="cls-32" points="849.056 661.022 849.056 658.71 898.702 687.373 898.702 689.686 849.056 661.022"/>
          <g>
            <polygon class="cls-47" points="903.735 684.487 903.735 686.799 898.702 689.686 898.702 687.373 903.735 684.487"/>
            <polygon class="cls-47" points="855.4 658.893 855.4 656.58 852.154 658.568 854.096 659.691 855.4 658.893"/>
          </g>
          <polygon class="cls-48" points="793.496 553.268 793.212 565.543 835.116 589.853 846.082 583.775 793.496 553.268"/>
          <polygon class="cls-49" points="821.005 544.486 822.607 545.287 810.821 552.103 809.219 551.302 821.005 544.486"/>
          <polyline class="cls-50" points="810.821 553.045 810.821 552.103 809.219 551.302 809.219 552.174 810.821 553.045"/>
          <polygon class="cls-51" points="821.249 546.071 822.607 545.287 822.607 564.742 821.249 565.543 821.249 546.071"/>
          <polygon class="cls-51" points="810.821 552.103 810.821 553.045 821.249 547.032 821.249 546.071 810.821 552.103"/>
          <polygon class="cls-52" points="819.647 547.955 821.249 547.032 821.249 565.543 819.647 564.742 819.647 547.955"/>
        </g>
        <path class="cls-21" d="M442.20741,975.75559l49.89019-28.642a4.42237,4.42237,0,0,1,4.41879.00873l87.06118,50.44026a4.42237,4.42237,0,0,1,.00727,7.64887l-49.1407,28.59529a4.42242,4.42242,0,0,1-4.42546.0133L442.208,983.42648A4.42237,4.42237,0,0,1,442.20741,975.75559Z"/>
      </g>
      <g>
        <g>
          <polygon points="718.06 847.631 714.122 849.905 714.122 909.188 718.06 906.915 718.06 847.631"/>
          <polygon class="cls-14" points="710.184 906.915 710.184 847.631 714.122 849.905 714.122 909.188 710.184 906.915"/>
        </g>
        <g>
          <polygon points="791.133 889.82 787.195 892.094 787.195 951.377 791.133 949.104 791.133 889.82"/>
          <polygon class="cls-14" points="783.257 949.104 783.257 889.82 787.195 892.094 787.195 951.377 783.257 949.104"/>
        </g>
        <g>
          <polygon points="915.548 818.093 911.61 820.367 911.61 879.65 915.548 877.377 915.548 818.093"/>
          <polygon class="cls-14" points="907.672 877.377 907.672 818.093 911.61 820.367 911.61 879.65 907.672 877.377"/>
        </g>
        <polygon class="cls-34" points="710.184 847.631 838.536 773.527 915.368 818.093 787.195 892.094 710.184 847.631"/>
        <polygon class="cls-34" points="710.184 842.839 838.536 768.734 915.368 813.301 787.195 887.301 710.184 842.839"/>
        <polygon class="cls-53" points="710.184 847.631 710.184 842.839 787.195 887.301 787.195 892.094 710.184 847.631"/>
        <polygon class="cls-54" points="915.368 813.301 915.368 818.093 787.195 892.094 787.195 887.301 915.368 813.301"/>
        <g>
          <path class="cls-18" d="M728.07377,838.7341l73.14076-42.76117a6.46127,6.46127,0,0,1,6.46127,0l22.61756,13.05825a6.46126,6.46126,0,0,1,0,11.19124l-68.08226,39.84046a6.46127,6.46127,0,0,1-6.46123,0l-27.67607-15.9786A3.08893,3.08893,0,0,1,728.07377,838.7341Z"/>
          <path class="cls-27" d="M817.07822,801.40141l22.90713,13.22539-77.684,45.38394a6.64183,6.64183,0,0,1-6.64182,0L736.135,848.73838Z"/>
        </g>
        <g>
          <polygon class="cls-14" points="799.664 817.064 872.098 775.244 872.098 817.064 799.664 858.884 799.664 817.064"/>
          <polygon class="cls-55" points="811.086 821.243 869.034 787.787 869.033 821.243 811.086 854.699 811.086 821.243"/>
          <polygon class="cls-56" points="824.769 851.818 841.163 842.353 849.362 847.118 833.164 856.459 824.769 851.818"/>
          <polygon class="cls-56" points="824.769 852.41 841.163 842.945 849.362 847.709 833.164 857.051 824.769 852.41"/>
          <polygon class="cls-57" points="834.612 853.067 834.612 838.757 843.906 833.391 843.906 847.677 834.612 853.067"/>
          <polygon class="cls-14" points="799.664 817.064 811.086 821.243 869.034 787.787 872.098 775.244 799.664 817.064"/>
          <polygon class="cls-42" points="811.086 854.699 799.664 858.884 799.664 817.064 811.086 821.243 811.086 854.699"/>
          <polygon class="cls-56" points="869.034 787.787 872.098 775.244 872.098 817.064 869.033 821.243 869.034 787.787"/>
          <polygon class="cls-57" points="824.769 851.818 824.769 852.41 833.164 857.051 833.164 856.459 824.769 851.818"/>
          <polygon points="833.164 856.459 849.362 847.118 849.362 847.709 833.164 857.051 833.164 856.459"/>
        </g>
      </g>
      <path class="cls-24" d="M314.32555,793.2437a5.50327,5.50327,0,0,1,2.76093,4.77132v56.79876l-103.248-59.61047-.00011-50.20434a5.50326,5.50326,0,0,1,8.24558-4.77133"/>
      <line class="cls-24" x1="222.08396" y1="740.22764" x2="314.32555" y2="793.2437"/>
      <path class="cls-24" d="M313.92737,856.39328l-103.248-59.61048-.00011-50.20433a5.50325,5.50325,0,0,1,8.24557-4.77133l92.24159,53.01606a5.50323,5.50323,0,0,1,2.76093,4.77131Z"/>
      <polygon class="cls-24" points="317.087 854.818 313.927 856.393 313.927 799.595 317.086 798.015 317.087 854.818"/>
    </g>
  </g>
</svg>
