<svg xmlns="http://www.w3.org/2000/svg" viewBox="0 0 49.6 68.5"><defs><style>.cls-1{isolation:isolate;}.cls-2{fill:#d0c3b5;}.cls-3{fill:#bfb0a1;}.cls-4{fill:none;stroke:#383838;stroke-linecap:round;stroke-miterlimit:10;stroke-width:0.55px;}.cls-5{fill:#383838;}</style></defs><g id="Layer_2" data-name="Layer 2"><g id="Layer_4" data-name="Layer 4"><g class="cls-1"><path class="cls-2" d="M47.5,52.6,37.8,47a1.7,1.7,0,0,0,.7-1.2l9.7,5.6A1.5,1.5,0,0,1,47.5,52.6Z" transform="translate(-3.2 -2.8)"/><polygon class="cls-2" points="45 48.6 35.3 43 35.1 38.7 44.7 44.4 45 48.6"/><path class="cls-2" d="M38.2,41.5c0-.2,0-.3-.2-.4l9.7,5.6a.5.5,0,0,1,.2.4Z" transform="translate(-3.2 -2.8)"/><path class="cls-3" d="M47.4,46.6l-9.7-5.7.3.2h0l9.7,5.6h-.3Z" transform="translate(-3.2 -2.8)"/><path class="cls-2" d="M37.7,40.9c-1.3-.7-1.4-3.4-1.3-4.8,3.3,1.8,6.5,3.7,9.7,5.6-.1,1.4,0,4.1,1.3,4.9Z" transform="translate(-3.2 -2.8)"/><polygon class="cls-3" points="26.5 47.6 16.8 42 32.6 32.9 42.3 38.5 26.5 47.6"/><path class="cls-2" d="M36.4,36.1c0-.3,0-.4-.2-.5l9.7,5.6c.2.1.2.3.2.5h0c-3.2-1.9-6.4-3.8-9.7-5.6Z" transform="translate(-3.2 -2.8)"/><path class="cls-3" d="M36.2,35.6l9.7,5.6c-.1-.1-.3,0-.4.1l-9.7-5.7C36,35.5,36.1,35.5,36.2,35.6Z" transform="translate(-3.2 -2.8)"/><polygon class="cls-2" points="24.8 61.4 15.1 55.7 34.7 44.2 44.4 49.8 24.8 61.4"/><polygon class="cls-3" points="24.1 61 14.4 55.4 14.4 50.6 24.1 56.2 24.1 61"/><path class="cls-2" d="M17.8,58.6h.4l9.7,5.6c-.2.1-.3.2-.4.1Z" transform="translate(-3.2 -2.8)"/><path class="cls-3" d="M27.5,64.2l-9.7-5.6c-.2-.1-.2-.3-.2-.5l9.7,5.7C27.3,64,27.3,64.1,27.5,64.2Z" transform="translate(-3.2 -2.8)"/><path class="cls-3" d="M27.3,59l-9.7-5.6a1.2,1.2,0,0,1,.4-1c.7-.7,1.8-2.4,1.3-6.4a1.3,1.3,0,0,1,.7-1.2l9.7,5.6a1.2,1.2,0,0,0-.7,1.2c.5,4-.6,5.8-1.3,6.4A1.4,1.4,0,0,0,27.3,59Z" transform="translate(-3.2 -2.8)"/><path class="cls-2" d="M52.7,48.5c.8,4.4-2.4,10.9-6.8,13.5L35,68.3c-13.3,7.6-23.6.1-22-16l1.7-16.4c1-9.5,7.5-20,15.3-24.9l.6-.4c7.7-4.4,14.3-2,15.8,5.8Zm-5.2,4.1a1.5,1.5,0,0,0,.7-1.2l-.3-4.3a.5.5,0,0,0-.2-.4c-1.6-.5-1.7-3.5-1.6-5s-.3-.7-.6-.4L29.7,50.4a1.2,1.2,0,0,0-.7,1.2c.5,4-.6,5.8-1.3,6.4a1.4,1.4,0,0,0-.4,1v4.8c0,.4.3.6.6.3L47.5,52.6" transform="translate(-3.2 -2.8)"/><path class="cls-3" d="M45.5,41.3c.3-.3.7-.1.6.4s0,4.5,1.6,5a.5.5,0,0,1,.2.4l.3,4.3a1.5,1.5,0,0,1-.7,1.2L27.9,64.1c-.3.3-.6.1-.6-.3V59a1.4,1.4,0,0,1,.4-1c.7-.6,1.8-2.4,1.3-6.4a1.2,1.2,0,0,1,.7-1.2Z" transform="translate(-3.2 -2.8)"/><path class="cls-2" d="M19.3,69.8,9.6,64.2C5,61.5,2.5,55.3,3.4,46.6L13,52.3C12.1,60.9,14.7,67.1,19.3,69.8Z" transform="translate(-3.2 -2.8)"/><polygon class="cls-2" points="9.9 49.5 0.2 43.9 1.9 27.5 11.6 33.1 9.9 49.5"/><path class="cls-2" d="M32.4,3.8l9.7,5.7C39.1,7.8,35,8,30.6,10.6L30,11c-7.8,4.9-14.3,15.4-15.3,24.9L5.1,30.2c.9-9.5,7.4-20,15.2-24.8L21,5C25.4,2.4,29.4,2.1,32.4,3.8Z" transform="translate(-3.2 -2.8)"/></g><line class="cls-4" x1="25.4" y1="16.3" x2="25.6" y2="27.4"/><path class="cls-5" d="M28.2,30.2a.6.6,0,0,0,.6.6c.4,0,.6-.3.6-.7a.6.6,0,0,0-.6-.6A.7.7,0,0,0,28.2,30.2Z" transform="translate(-3.2 -2.8)"/><line class="cls-4" x1="35.5" y1="10.7" x2="36.4" y2="22.9"/><path class="cls-5" d="M38.9,25.6a.7.7,0,0,0,.7.6c.4,0,.6-.3.6-.7a.5.5,0,0,0-.7-.5A.6.6,0,0,0,38.9,25.6Z" transform="translate(-3.2 -2.8)"/><path class="cls-3" d="M17.9,18.2c3.7,1.9,15.8,1.9,18.9-.1C43.2,14.2,38.7,7,38.7,7s-21.6-8.2-28,2.1C6.1,16.7,14.2,16.3,17.9,18.2Z" transform="translate(-3.2 -2.8)"/></g></g></svg>