<svg xmlns="http://www.w3.org/2000/svg" viewBox="0 0 185.6 127.8"><defs><style>.cls-1,.cls-4{fill:#131111;}.cls-1{stroke:#131111;stroke-linejoin:round;stroke-width:1.1px;}.cls-1,.cls-8{stroke-linecap:round;}.cls-2{fill:#f4dac4;}.cls-3{fill:#ccc0b4;}.cls-5{isolation:isolate;}.cls-6{fill:#d0c3b5;}.cls-7{fill:#bfb0a1;}.cls-8{fill:none;stroke:#383838;stroke-miterlimit:10;stroke-width:0.55px;}.cls-9{fill:#383838;}.cls-10{fill:#e0b899;}.cls-11{fill:#ceab89;}</style></defs><g id="Layer_2" data-name="Layer 2"><g id="Layer_4" data-name="Layer 4"><path class="cls-1" d="M17.2,84.8S2.4,92.2.6,100.8c0,0,16.1,3.1,23.3-1.6C23.9,99.2,23.4,92.7,17.2,84.8Z"/><ellipse class="cls-2" cx="98.1" cy="25.5" rx="8.3" ry="7.1" transform="translate(20.7 91) rotate(-54.8)"/><path class="cls-3" d="M99.3,24h0c4.5,3.5,4.8,10.6.7,15.9L72.6,68c-2.4,2.5-5.9,3-8.3,1.2h0c-2.3-1.8-2.7-5.3-.9-8.3L83.7,27.4C87.9,22,94.8,20.5,99.3,24Z"/><path class="cls-4" d="M159.3,0c2.1.1,3.6,1,5.3,3.3s0,13.4-5.3,16.2L115.3,48c-5.4,2.8-11.8,1-14.4-4h0c-2.5-4.9-.4-11.2,4.9-14h.1l45.3-18.3C153.8,10.4,157.2-.1,159.3,0Z"/><g class="cls-5"><path class="cls-4" d="M90.2,52.1l.5-11.2c-.1,1.7,1,3.4,3.1,4.7l-.5,11.2C91.1,55.5,90.1,53.8,90.2,52.1Z"/><path class="cls-4" d="M142,46.6l-.5,11.2c-.1,1.7-1.2,3.3-3.4,4.4l.5-11.2C140.8,49.9,142,48.3,142,46.6Z"/><polygon class="cls-4" points="138.6 51 138.1 62.2 126.3 68.4 126.8 57.2 138.6 51"/><polygon class="cls-4" points="110.9 56.5 110.4 67.7 93.3 56.8 93.8 45.6 110.9 56.5"/><path class="cls-4" d="M126.8,57.2l-.5,11.2a17.2,17.2,0,0,1-15.9-.7l.5-11.2A17.2,17.2,0,0,0,126.8,57.2Z"/><path class="cls-4" d="M93.8,45.6c-4.3-2.7-4.1-6.8.4-9.1L106,30.3c4.4-2.4,11.5-2.1,15.8.6l17.1,10.9c4.3,2.8,4.1,6.9-.3,9.2l-11.8,6.2a17.2,17.2,0,0,1-15.9-.7Z"/></g><path class="cls-1" d="M18.9,95.5S37,76.9,30.1,60C30.1,60,41.4,76.8,18.9,95.5Z"/><path class="cls-4" d="M179.8,14.8c2,.1,3.5,1,5.1,3.4s.3,13.2-4.8,15.9L138,61.6a10.2,10.2,0,0,1-13.9-4.2h0a10.3,10.3,0,0,1,4.6-13.8l43.5-17.4C174.6,24.9,177.8,14.6,179.8,14.8Z"/><g class="cls-5"><path class="cls-6" d="M96.9,40.4l-.5,11.2a1.4,1.4,0,0,0-1.4-.1l.5-11.2A1.4,1.4,0,0,1,96.9,40.4Z"/><polygon class="cls-6" points="95.5 40.3 95 51.5 91.4 53.8 91.9 42.6 95.5 40.3"/><path class="cls-6" d="M91.4,53.8q-.3.2-.3.3l.5-11.2q0-.1.3-.3C91.7,45.9,91.5,50.4,91.4,53.8Z"/><path class="cls-7" d="M91.7,43.3l-.6,11.2v-.3h0l.5-11.2h0A.4.4,0,0,1,91.7,43.3Z"/><path class="cls-6" d="M91.1,54.5c0,1.5-2.4,2.8-3.7,3.4.2-3.8.3-7.5.5-11.2,1.3-.6,3.7-1.9,3.8-3.4C91.5,46.6,91.3,51.1,91.1,54.5Z"/><polygon class="cls-7" points="103.2 57.3 102.7 68.4 87.3 58.7 87.8 47.5 103.2 57.3"/><path class="cls-6" d="M87.4,57.9c-.2.1-.3.2-.3.4l.5-11.2c0-.2.1-.3.3-.4h0c-.2,3.7-.3,7.4-.5,11.2Z"/><path class="cls-7" d="M87.1,58.3l.5-11.2c0,.1.1.2.2.4l-.5,11.2C87.1,58.5,87.1,58.4,87.1,58.3Z"/><polygon class="cls-6" points="116.2 52.4 115.7 63.6 96.4 51.6 96.9 40.4 116.2 52.4"/><polygon class="cls-7" points="116.2 53.2 115.7 64.4 111.5 66.6 112 55.4 116.2 53.2"/><path class="cls-6" d="M115.9,63.9c0-.1-.1-.2-.2-.3l.5-11.2.3.3Z"/><path class="cls-6" d="M115.9,63.9c0-.2.1-.3.1-.5.1-3.6.3-7.1.5-10.7h0L116,64A.1.1,0,0,0,115.9,63.9Z"/><path class="cls-7" d="M116.5,52.8,116,64c0,.2-.1.3-.3.4l.5-11.2C116.4,53.1,116.5,53,116.5,52.8Z"/><path class="cls-7" d="M112,55.4l-.5,11.2a2.1,2.1,0,0,1-1.1.1c-.9-.3-3-.6-6.2,1.7a1.4,1.4,0,0,1-1.5,0l.5-11.1a1.9,1.9,0,0,0,1.5,0c3.3-2.4,5.3-2.1,6.2-1.8A1.4,1.4,0,0,0,112,55.4Z"/><path class="cls-6" d="M90.9,37.7c3.6-2.8,10.8-2.9,15.1-.2l10.6,6.8c13,8.2,11.1,20.8-4,26.8L97.3,77.2c-8.9,3.5-21.2,2.7-29.2-2l-.6-.4C60,70,59.1,63.1,65.3,58.1Zm6,2.7a1.4,1.4,0,0,0-1.4-.1l-3.6,2.3c-.2.1-.3.2-.3.4.3,1.7-2.3,3.1-3.7,3.7s-.4.5-.1.8l15.4,9.8a1.9,1.9,0,0,0,1.5,0c3.3-2.4,5.3-2.1,6.2-1.8a1.4,1.4,0,0,0,1.1-.1l4.2-2.2a.4.4,0,0,0,0-.8l-19.3-12"/><path class="cls-7" d="M87.8,47.5c-.3-.3-.3-.6.1-.8s4-2,3.7-3.7c0-.2.1-.3.3-.4l3.6-2.3a1.4,1.4,0,0,1,1.4.1l19.3,12a.4.4,0,0,1,0,.8L112,55.4a1.4,1.4,0,0,1-1.1.1c-.9-.3-2.9-.6-6.2,1.8a1.9,1.9,0,0,1-1.5,0Z"/><path class="cls-6" d="M125.2,57.5l-.5,11.2c-.2,5.3-4.5,10.4-12.6,13.6l.5-11.2C120.7,67.9,125,62.8,125.2,57.5Z"/><polygon class="cls-6" points="112.6 71.1 112.1 82.3 96.7 88.4 97.3 77.2 112.6 71.1"/><path class="cls-6" d="M60.7,76.4l.5-11.2c-.1,3.4,2,6.9,6.3,9.6l.6.4c8,4.7,20.3,5.5,29.2,2l-.6,11.2c-8.8,3.5-21.1,2.7-29.1-2L67,86C62.7,83.2,60.5,79.8,60.7,76.4Z"/></g><line class="cls-8" x1="76" y1="72.7" x2="85.7" y2="67.3"/><path class="cls-9" d="M86,67.9a.5.5,0,0,0,.2-.8.6.6,0,0,0-.8-.3.8.8,0,0,0-.3.9A.7.7,0,0,0,86,67.9Z"/><line class="cls-8" x1="66.3" y1="66.3" x2="76.7" y2="59.9"/><path class="cls-9" d="M77,60.5a.7.7,0,1,0-.7-1.1.8.8,0,0,0-.2.9A1,1,0,0,0,77,60.5Z"/><path class="cls-7" d="M80.2,82.5c-.1-4.1-5.7-14.8-8.9-16.7-6.4-3.8-10.7,3.5-10.7,3.5s2.7,23,14.8,23.8C84.2,93.8,80.2,86.7,80.2,82.5Z"/><path class="cls-1" d="M23.3,99.9s-9.8-17.1-5.8-29.6C17.5,70.3,7.6,84.1,23.3,99.9Z"/><path class="cls-1" d="M32.8,70.3c13.1-6.9,27.6-2.4,34.9,11.5s2.5,30.7-10.6,37.6-29.6,1.1-36.9-12.9S19.8,77.1,32.8,70.3Z"/><circle class="cls-1" cx="71" cy="105.3" r="8.4"/><rect class="cls-10" x="58.9" y="70.7" width="13.2" height="17.33" rx="6.6" transform="translate(25.5 174.2) rotate(-117.5)"/><path class="cls-2" d="M36.2,70c2.8-10,20.2-9.1,27.2,4.3s6,29.3-7.4,36.3-27.2,8.6-34.2-4.8l-.3-.6C14.9,91.9,23,76.9,36.2,70Z"/><path class="cls-1" d="M26.1,93.4c30.6,8.2,43.6-11.9,43.6-11.9S66.5,102.6,40,111.2C24.2,116.3,26.1,93.4,26.1,93.4Z"/><path class="cls-1" d="M26.3,97.6s6.4-47.8,23.8-34.5C36.1,48.8,15.8,76.6,26.3,97.6Z"/><path class="cls-1" d="M20.3,102.2s-2.8-32,13.8-44C34.1,58.2,7.7,67.6,20.3,102.2Z"/><path class="cls-1" d="M22.9,91s1-21,18.6-24C41.5,67,18.3,61.2,22.9,91Z"/><path class="cls-1" d="M24.2,110.1s38.6-3.7,47.4-22.7C71.7,94,57.8,129.7,24.2,110.1Z"/><path class="cls-1" d="M35.3,95.7s-5.2-2-4.4-4.9c0,0-3.5,1.2-4.5-3.6C26.4,87.2,23.7,101,35.3,95.7Z"/><rect class="cls-11" x="66.8" y="110.9" width="2" height="15.94" transform="translate(110.6 248.8) rotate(-168.5)"/><ellipse class="cls-2" cx="146.8" cy="68.4" rx="8.3" ry="7.1" transform="translate(-15 75.6) rotate(-27.5)"/><path class="cls-6" d="M147.2,69h0a14.5,14.5,0,0,1-9.9,17.9L91,94.1a8.2,8.2,0,0,1-9.2-5.7h0a8.3,8.3,0,0,1,4.6-9.8l42.8-19.1A14.4,14.4,0,0,1,147.2,69Z"/><path class="cls-1" d="M44.7,117s-13.8,11.7-22.4,10.1c0,0,1.4-13.9,8.6-18.8A16.6,16.6,0,0,1,44.7,117Z"/><g class="cls-5"><path class="cls-4" d="M25.2,73.3v-.9c.1-.2.1-.4.3-.6a3.7,3.7,0,0,1,1.6-1.2,16.8,16.8,0,0,1,7-1.7v.9a16,16,0,0,0-6.9,1.7,4.1,4.1,0,0,0-1.7,1.2A1.4,1.4,0,0,0,25.2,73.3Z"/><path class="cls-4" d="M42.3,73.7v.9a3.7,3.7,0,0,0-2-3.3A12.2,12.2,0,0,0,34,69.8v-.9a11.9,11.9,0,0,1,6.2,1.5A3.7,3.7,0,0,1,42.3,73.7Z"/><path class="cls-4" d="M39.5,78.9H39v-.9h.6Z"/><path class="cls-4" d="M39.7,79.1l-.2-.2V78c0,.1.1.1.1.2Z"/><path class="cls-4" d="M38.6,79.1v-.9c0-.1.2-.2.4-.3v.9Z"/><path class="cls-4" d="M39.8,79.3a.3.3,0,0,1-.1-.2v-.9c0,.1.1.1.1.2Z"/><path class="cls-4" d="M43.3,75.2c-.2,1.4-1.5,2.9-3.5,4.1v-.8h0c2.1-1.2,3.3-2.7,3.6-4.1v.4A1.1,1.1,0,0,1,43.3,75.2Z"/><path class="cls-4" d="M38.6,79.1v-.9h0l.3.5A3.7,3.7,0,0,0,40.2,80v.9a3.4,3.4,0,0,1-1.2-1.2l-.3-.5Z"/><path class="cls-4" d="M24.6,74.5a2.1,2.1,0,0,1-.5-1.2v-.9a1.3,1.3,0,0,0,.5,1.2,8.1,8.1,0,0,0,2.4,1.9l1.7,1.1,1.6,1a10.9,10.9,0,0,0,4.1,1.9h2.4l2-.7v.9l-2,.6a6.6,6.6,0,0,1-2.4.1,10.3,10.3,0,0,1-4.1-1.9l-1.7-1-1.6-1.1A10.2,10.2,0,0,1,24.6,74.5Z"/><path class="cls-4" d="M43.1,81.3h-.3v-.8h.2Z"/><path class="cls-4" d="M43.6,80.7v.7h-.3v-.9h.3C43.5,80.6,43.6,80.6,43.6,80.7Z"/><path class="cls-4" d="M40.2,80a3.7,3.7,0,0,1-1.3-1.2l-.3-.5c0-.2.2-.3.4-.4h.6c0,.1.1.1.1.2s.1.1.1.2A3.4,3.4,0,0,0,41,79.6a5.5,5.5,0,0,0,1.9.8h.5l.2.3H43l-1-.2A5.5,5.5,0,0,1,40.2,80Z"/><path class="cls-4" d="M24.5,71.5a5.4,5.4,0,0,1,1.9-1.4A16.1,16.1,0,0,1,34,68.3,13.3,13.3,0,0,1,41.1,70c1.8,1.2,2.6,2.7,2.3,4.3s-1.5,2.9-3.6,4.1c0-.1-.1-.1-.1-.2s-.1-.1-.1-.2H39c-.2.1-.4.2-.4.4l.3.5-2,.7H34.5a10.9,10.9,0,0,1-4.1-1.9l-1.6-1-1.7-1.1a8.1,8.1,0,0,1-2.4-1.9A1.4,1.4,0,0,1,24.5,71.5Zm9.6-2.6a16.8,16.8,0,0,0-7,1.7,3.7,3.7,0,0,0-1.6,1.2,1,1,0,0,0-.2,1,7.1,7.1,0,0,0,2.5,2.3h.1l1.7,1.1,1.6,1a17.6,17.6,0,0,0,2.7,1.4,4.6,4.6,0,0,0,2.6.2,6.3,6.3,0,0,0,2.3-.8c2-1.1,3.2-2.5,3.5-3.8a3.8,3.8,0,0,0-2-3.8,11.9,11.9,0,0,0-6.2-1.5"/><path class="cls-4" d="M43.6,80.7v.9h0v-.9Z"/><path class="cls-4" d="M43.6,80.8v.9h-.1v-.9Z"/><path class="cls-4" d="M43,81v.9l-.9-.2a7.1,7.1,0,0,1-1.9-.8V80a5.5,5.5,0,0,0,1.8.8Z"/><path class="cls-4" d="M43.4,80.9v.9h-.5V81Z"/><path class="cls-4" d="M41.5,83.7v-.9a.7.7,0,0,1,.2-.6,5.8,5.8,0,0,1,1.6-1.3v.9a5.2,5.2,0,0,0-1.7,1.3A1.4,1.4,0,0,0,41.5,83.7Z"/><path class="cls-4" d="M58.6,84.1V85a3.7,3.7,0,0,0-2-3.3,12.2,12.2,0,0,0-6.3-1.5,15.9,15.9,0,0,0-6.9,1.6v-.9a16.7,16.7,0,0,1,7-1.6,11.9,11.9,0,0,1,6.2,1.5A3.7,3.7,0,0,1,58.6,84.1Z"/><path class="cls-4" d="M40.9,84.9a2.1,2.1,0,0,1-.5-1.3v-.9A1.4,1.4,0,0,0,41,84a8.1,8.1,0,0,0,2.4,1.9v.9A10.2,10.2,0,0,1,40.9,84.9Z"/><path class="cls-4" d="M43.4,85.9A8.1,8.1,0,0,1,41,84a1.6,1.6,0,0,1-.2-2.1A3.3,3.3,0,0,1,42,80.8l1,.2h.4a5.8,5.8,0,0,0-1.6,1.3,1,1,0,0,0-.2,1,7,7,0,0,0,2.5,2.2h.1l1.7,1,1.6,1.1A17.6,17.6,0,0,0,50.2,89a4.6,4.6,0,0,0,2.6.2,7.9,7.9,0,0,0,2.3-.8c2.1-1.1,3.2-2.5,3.5-3.9s-.4-2.7-2-3.7a11.9,11.9,0,0,0-6.2-1.5,16.7,16.7,0,0,0-7,1.6h.2l-.2-.3h-.5a16.8,16.8,0,0,1,7.4-1.7,12.3,12.3,0,0,1,7.1,1.7c1.8,1.2,2.6,2.7,2.3,4.2s-1.6,3.1-3.8,4.3a7.8,7.8,0,0,1-2.7.9,4.9,4.9,0,0,1-2.4,0A10.7,10.7,0,0,1,46.7,88l-1.6-1Z"/><path class="cls-4" d="M45.1,87.8a9.5,9.5,0,0,1-1.7-1v-.9L45.1,87l1.6,1a10.7,10.7,0,0,0,4.1,1.8,4.9,4.9,0,0,0,2.4,0,7.8,7.8,0,0,0,2.7-.9c2.2-1.2,3.5-2.7,3.8-4.3V85a.7.7,0,0,1-.1.5c-.2,1.6-1.5,3.1-3.8,4.3a10.1,10.1,0,0,1-2.6.9,4.9,4.9,0,0,1-2.4,0,10.1,10.1,0,0,1-4.1-1.8A9.1,9.1,0,0,1,45.1,87.8Z"/></g><path class="cls-1" d="M39.2,118.1s-30.1-5.9-22-34.3c0,0,7.5-9.5,1.7-19.5,0,0,8.1,6.8,5.9,24.5s15.4,13.3,15.4,13.3Z"/></g></g></svg>