<svg xmlns="http://www.w3.org/2000/svg" viewBox="0 0 78.4 180.7"><defs><style>.cls-1,.cls-4{fill:#131111;}.cls-1{stroke:#131111;stroke-linecap:round;stroke-linejoin:round;stroke-width:1.1px;}.cls-2{fill:#f4dac4;}.cls-3{fill:#ccc0b4;}.cls-5{isolation:isolate;}.cls-6{fill:#d0c3b5;}.cls-7{fill:#bfb0a1;}.cls-8{fill:#ceab89;}</style></defs><g id="Layer_2" data-name="Layer 2"><g id="Layer_4" data-name="Layer 4"><path class="cls-1" d="M50.1,4.8s8.1,24.7,26.4,26.4C76.5,31.2,56.3,33.5,50.1,4.8Z"/><ellipse class="cls-2" cx="13.9" cy="112.1" rx="8.3" ry="7.1" transform="translate(-97.9 95.8) rotate(-74.6)"/><path class="cls-3" d="M13.4,114h0c5.5,1.3,11.2-3,12.7-9.6l4.3-39c.4-3.4-1.4-6.5-4.3-7.2h0c-2.9-.6-5.9,1.4-7,4.6l-13,37C4.6,106.4,7.9,112.7,13.4,114Z"/><path class="cls-1" d="M44.2,6.7s19.7-.8,28.9,8.5C73.1,15.2,65.5.1,44.2,6.7Z"/><path class="cls-4" d="M23,164.3c1.1,1.8,6.2,1.7,10.1.1L38,112.2c0-6-4.5-10.8-10.1-10.8h0c-5.6,0-10.2,4.8-10.2,10.8h0l4.7,48.6C22.4,163.8,21.9,162.5,23,164.3Z"/><g class="cls-5"><path class="cls-4" d="M30,88.1l-9.7,5.6c1.5-.8,3.5-.7,5.7.6l9.7-5.6C33.5,87.4,31.5,87.3,30,88.1Z"/><path class="cls-4" d="M49.1,136.6l9.7-5.6c1.5-.8,2.3-2.6,2.3-5.1l-9.6,5.6C51.4,134,50.6,135.8,49.1,136.6Z"/><polygon class="cls-4" points="51.5 131.5 61.1 125.9 61.2 112.5 51.5 118.2 51.5 131.5"/><polygon class="cls-4" points="43.6 104.4 53.3 98.8 35.7 88.7 26 94.3 43.6 104.4"/><path class="cls-4" d="M51.5,118.2l9.7-5.7c0-5-3.6-11.1-7.9-13.7l-9.7,5.6A17.6,17.6,0,0,1,51.5,118.2Z"/><path class="cls-4" d="M26,94.3c-4.4-2.5-8-.5-8,4.6v13.3c0,5,3.5,11.2,7.9,13.7l17.6,10.2c4.4,2.5,7.9.5,8-4.6V118.2a17.6,17.6,0,0,0-7.9-13.8Z"/></g><path class="cls-4" d="M46.5,179.4c1.1,1.7,9.1,2.5,9.1-3.2l5-50.1a10.3,10.3,0,0,0-10.2-10.3h0a10.2,10.2,0,0,0-10.1,10.3L45,172.8A12,12,0,0,0,46.5,179.4Z"/><g class="cls-5"><path class="cls-6" d="M22.7,99.5l9.7-5.6a2,2,0,0,1-.6-1.2l-9.7,5.6A1.7,1.7,0,0,0,22.7,99.5Z"/><polygon class="cls-6" points="22.1 98.3 31.8 92.7 32.1 88.4 22.4 94 22.1 98.3"/><path class="cls-6" d="M32.1,88.4c0-.2,0-.3.1-.4l-9.6,5.6c-.2.1-.2.2-.2.4Z"/><path class="cls-7" d="M22.9,93.5l9.7-5.6h-.4l-9.6,5.6h.3Z"/><path class="cls-6" d="M32.6,87.9c1.3-.8,1.3-3.5,1.3-4.9-3.3,1.8-6.5,3.7-9.7,5.6,0,1.4,0,4.1-1.3,4.9Z"/><polygon class="cls-7" points="40.6 97.3 50.3 91.7 34.5 82.5 24.8 88.2 40.6 97.3"/><path class="cls-6" d="M33.9,83a.4.4,0,0,1,.1-.5l-9.6,5.6c-.2.1-.2.3-.2.5h0c3.2-1.9,6.4-3.8,9.7-5.6Z"/><path class="cls-7" d="M34,82.5l-9.6,5.6h.4l9.7-5.7Z"/><polygon class="cls-6" points="42.4 111 52 105.4 32.4 93.9 22.7 99.5 42.4 111"/><path class="cls-6" d="M52.5,105.5H52L42.4,111a.2.2,0,0,0,.4.1Z"/><path class="cls-7" d="M42.8,111.1l9.7-5.6a.8.8,0,0,0,.2-.5L43,110.7A.5.5,0,0,1,42.8,111.1Z"/><polygon class="cls-7" points="43 110.7 52.7 105 52.7 100.3 43 105.9 43 110.7"/><path class="cls-7" d="M43,105.9l9.7-5.6a2.1,2.1,0,0,0-.4-1c-.7-.7-1.8-2.4-1.3-6.4a1.5,1.5,0,0,0-.7-1.2l-9.7,5.6a1.4,1.4,0,0,1,.7,1.3c-.5,4,.6,5.7,1.3,6.3A1.4,1.4,0,0,1,43,105.9Z"/><path class="cls-6" d="M51,116.7l9.7-5.6c4.6-2.7,7.1-8.9,6.2-17.6l-9.7,5.7C58.1,107.8,55.6,114,51,116.7Z"/><polygon class="cls-6" points="57.2 99.2 66.9 93.5 65.2 77.1 55.5 82.8 57.2 99.2"/><path class="cls-6" d="M23.8,63.3c1.6-7.8,8.2-10.2,15.8-5.8l.7.4c7.8,4.9,14.3,15.4,15.2,24.9l1.7,16.4c1.7,16.1-8.6,23.6-21.9,16l-10.9-6.3c-4.4-2.6-7.6-9.1-6.8-13.5Z"/><path class="cls-6" d="M37.9,50.7l-9.7,5.7c3-1.7,7-1.5,11.4,1.1l.7.4c7.8,4.9,14.3,15.4,15.2,24.9l9.7-5.7c-1-9.5-7.4-20-15.2-24.8l-.7-.4C44.9,49.3,40.9,49,37.9,50.7Z"/></g><path class="cls-7" d="M50.1,71c-3.6,1.9-15.9,5.5-19.1,3.5-6.3-3.9.6-20.6.6-20.6s21.2-3.8,27.6,6.5C63.8,68,53.8,69.1,50.1,71Z"/><circle class="cls-1" cx="17.3" cy="46.4" r="8.4"/><path class="cls-1" d="M44.8,10.4S93.6,40,53.4,49.6C90.8,45.3,69.7,10.6,44.8,10.4Z"/><path class="cls-1" d="M71.2,28.3c0,14.8-11.7,29.9-27.4,29.9S13.6,42.8,13.6,28,26.3,1.2,42,1.2,71.2,13.5,71.2,28.3Z"/><path class="cls-1" d="M43.6,3S73.3,15.2,76.2,35.6C76.2,35.6,80,7.8,43.6,3Z"/><path class="cls-1" d="M28.9,2.2S14.3,38.1,27.1,54.7C21.2,51.7-4,22.9,28.9,2.2Z"/><path class="cls-1" d="M42.4,19.3s4.1-3.7,6.4-1.6c0,0,.5-3.7,5.3-2.4C54.1,15.3,43.1,6.5,42.4,19.3Z"/><rect class="cls-8" x="5.8" y="29.4" width="2" height="15.94" transform="translate(-26.5 19.2) rotate(-51)"/><path class="cls-1" d="M20.7,12.4s19.2-24,40.6-3.7c0,0,5,11.1,16.6,10.6,0,0-9.9,4-24.5-6.1s-19,7.5-19,7.5Z"/><path class="cls-4" d="M64,168.3c-1-1.4-13.8.4-13.8.4s-4.1,9.4-1.9,11,12.3.8,15.9-5.2A6.7,6.7,0,0,0,64,168.3Z"/><path class="cls-4" d="M40.8,153.6c-.9-1.4-13.7.3-13.7.3s-4.1,9.4-1.9,11,12.3.9,15.8-5.2A6.2,6.2,0,0,0,40.8,153.6Z"/></g></g></svg>