<svg xmlns="http://www.w3.org/2000/svg" viewBox="0 0 78.4 56.9"><defs><style>.cls-1,.cls-6{fill:#131111;}.cls-1{stroke:#131111;stroke-linecap:round;stroke-linejoin:round;stroke-width:1.1px;}.cls-2{fill:#e0b899;}.cls-3{fill:#f4dac4;}.cls-4{fill:#ceab89;}.cls-5{isolation:isolate;}</style></defs><g id="Layer_2" data-name="Layer 2"><g id="Layer_4" data-name="Layer 4"><path class="cls-1" d="M52.3,10.5S70.5,21,65,38C65,38,80.8,20.1,52.3,10.5Z"/><path class="cls-1" d="M50.1,4.8s8.1,24.7,26.4,26.4C76.5,31.2,56.3,33.5,50.1,4.8Z"/><path class="cls-1" d="M66.1,28.9c0,14.7-10.6,25.5-26.3,25.5s-28.5-12-28.5-26.7S24,.9,39.8.9,66.1,14.1,66.1,28.9Z"/><path class="cls-1" d="M44.2,6.7s19.7-.8,28.9,8.5C73.1,15.2,65.5.1,44.2,6.7Z"/><rect class="cls-2" x="37.3" y="39" width="13.2" height="17.33" rx="6.6"/><path class="cls-3" d="M64.8,31.9c7.5,7.2-1.3,22.2-16.5,22.2S19.6,45.9,19.6,30.8,24.5,2.6,39.7,2.6h.6C55.1,3,64.8,17,64.8,31.9Z"/><circle class="cls-1" cx="17.3" cy="46.4" r="8.4"/><path class="cls-1" d="M44.8,10.4S84.3,38.2,64.4,47.5C83.6,41.6,68.3,10.8,44.8,10.4Z"/><path class="cls-1" d="M43.6,3S73.3,15.2,76.2,35.6C76.2,35.6,80,7.8,43.6,3Z"/><rect class="cls-4" x="5.8" y="29.4" width="2" height="15.94" transform="translate(-26.5 19.2) rotate(-51)"/><g class="cls-5"><path class="cls-6" d="M67.3,21.2a.7.7,0,0,0-.4-.5l.8.4.4.5a3.6,3.6,0,0,1,.3,2,14.5,14.5,0,0,1-1.7,7,11.8,11.8,0,0,1-4.2,4.8,4,4,0,0,1-3.9.3l-.8-.5a3.7,3.7,0,0,0,3.9-.3,11.8,11.8,0,0,0,4.2-4.8,15.4,15.4,0,0,0,1.8-6.9A4.3,4.3,0,0,0,67.3,21.2Z"/><path class="cls-6" d="M55.6,30.4a.3.3,0,0,0,.1-.2l.8.4c-.1.1-.1.1-.1.2s-.2.4-.3.4l-.8-.4C55.4,30.7,55.6,30.6,55.6,30.4Z"/><path class="cls-6" d="M55.1,30.8h.2l.8.4h-.2Z"/><path class="cls-6" d="M55.7,30.1a.3.3,0,0,0-.1-.2l.7.4.2.2Z"/><path class="cls-6" d="M54.9,30.8h.2l.8.5h-.2Z"/><path class="cls-6" d="M56.9,35.9c-1.2-.9-1.9-2.7-2-5.1l.3.2.4.2h.1a6.4,6.4,0,0,0,2,5.1.5.5,0,0,0,.4.2l-.8-.4Z"/><path class="cls-6" d="M55.6,29.9l.7.4h-.6a3,3,0,0,0-1.6.5l-.8-.4a4.4,4.4,0,0,1,1.6-.6h.7Z"/><path class="cls-6" d="M67.5,19.7l.7.5a1.4,1.4,0,0,0-1.3-.1A11.9,11.9,0,0,0,64,21.4l-1.6.9-1.7,1a9.7,9.7,0,0,0-3.5,2.8A7.2,7.2,0,0,0,56,28.2a13.3,13.3,0,0,0-.3,2.1l-.8-.5a11.8,11.8,0,0,1,.4-2,5.7,5.7,0,0,1,1.1-2.2,12,12,0,0,1,3.5-2.8l1.7-.9,1.7-1a11.4,11.4,0,0,1,2.8-1.3A2.2,2.2,0,0,1,67.5,19.7Z"/><path class="cls-6" d="M68.8,20.8a5.2,5.2,0,0,1,.4,2.4,17.4,17.4,0,0,1-1.9,7.6,13.1,13.1,0,0,1-4.8,5.5c-1.9,1.1-3.6,1-4.8.1a6.4,6.4,0,0,1-2-5.1h.4c.1,0,.2-.2.3-.4s0-.1.1-.2c0,2.3.7,4,1.8,4.8s2.5.9,4.2,0a11.8,11.8,0,0,0,4.2-4.8,14.5,14.5,0,0,0,1.7-7,3.6,3.6,0,0,0-.3-2,.9.9,0,0,0-.8-.6,5.8,5.8,0,0,0-3.1,1.2H64l-1.6.9-1.7,1h-.2a15.2,15.2,0,0,0-2.3,1.6,4.9,4.9,0,0,0-1.4,2.3,7.5,7.5,0,0,0-.3,2.3l-.2-.2h-.6a13.3,13.3,0,0,1,.3-2.1,7.2,7.2,0,0,1,1.2-2.1,9.7,9.7,0,0,1,3.5-2.8l1.7-1,1.6-.9a11.9,11.9,0,0,1,2.9-1.3A1.6,1.6,0,0,1,68.8,20.8Z"/><path class="cls-6" d="M54,30.8l-.7-.4h0l.8.4Z"/><path class="cls-6" d="M51.6,32.8v-.2l.8.5-.2.2Z"/><path class="cls-6" d="M51.3,33.1l.3-.3.7.5a.2.2,0,0,1-.2.2Z"/><path class="cls-6" d="M51.1,33.1h.2l.8.4h-.3Z"/><path class="cls-6" d="M51.8,33.6l-.7-.5H51l.8.4Z"/><path class="cls-6" d="M51.8,33.5l-.8-.4c0-.1-.1-.2-.1-.3l.8.5C51.7,33.4,51.7,33.5,51.8,33.5Z"/><path class="cls-6" d="M51.9,32.9l-.8-.5.6-.7a7.5,7.5,0,0,1,1.6-1.3l.7.4a6.7,6.7,0,0,0-1.5,1.3A2.1,2.1,0,0,0,51.9,32.9Z"/><path class="cls-6" d="M54.1,30.8a3,3,0,0,1,1.6-.5h.6l.2.2h0c-.1.1-.1.1-.1.2s-.2.4-.3.4h-.4a4.7,4.7,0,0,0-1.7.4h0a5.1,5.1,0,0,0-1.5,1.3l-.2.2a.2.2,0,0,1-.2.2.2.2,0,0,1-.3,0c-.1,0-.1-.1-.1-.2a.8.8,0,0,1,.2-.4,2.1,2.1,0,0,1,.6-.8A6.7,6.7,0,0,1,54,30.8Z"/><path class="cls-6" d="M51.7,33.3l-.8-.5.2-.4.8.5A.8.8,0,0,0,51.7,33.3Z"/><path class="cls-6" d="M50.2,30.3l.7.5a1.2,1.2,0,0,1,.5.5,4.6,4.6,0,0,1,.3,2l-.8-.5a4.9,4.9,0,0,0-.3-2Z"/><path class="cls-6" d="M41.9,45.4l-.8-.5a3.7,3.7,0,0,0,3.9-.3,11.8,11.8,0,0,0,4.2-4.8,15.7,15.7,0,0,0,1.7-7l.8.5A16.7,16.7,0,0,1,50,40.2a11.6,11.6,0,0,1-4.3,4.9A3.8,3.8,0,0,1,41.9,45.4Z"/><path class="cls-6" d="M49.4,29.3a1.9,1.9,0,0,1,1.3.1l.8.5a1.7,1.7,0,0,0-1.4-.2A11.4,11.4,0,0,0,47.3,31l-.8-.4A11.9,11.9,0,0,1,49.4,29.3Z"/><path class="cls-6" d="M44.8,31.6l1.7-1,.8.4-1.7,1L44,33a10.7,10.7,0,0,0-3.6,2.7,7.6,7.6,0,0,0-1.1,2.2,11.1,11.1,0,0,0-.4,2.8c0,2.5.8,4.4,2,5.3l.4.3-.8-.5-.4-.2c-1.2-1-1.9-2.9-1.9-5.4a12.7,12.7,0,0,1,.3-2.8,10.3,10.3,0,0,1,1.1-2.1,12.5,12.5,0,0,1,3.6-2.8Z"/><path class="cls-6" d="M47.3,31a11.4,11.4,0,0,1,2.8-1.3,1.6,1.6,0,0,1,2,.8,5.3,5.3,0,0,1,.4,1.6,2.1,2.1,0,0,0-.6.8.8.8,0,0,0-.2.4,4.6,4.6,0,0,0-.3-2,1,1,0,0,0-.9-.6,5.8,5.8,0,0,0-3.1,1.2h-.1l-1.7,1-1.6,1h-.2a16.6,16.6,0,0,0-2.4,1.7A5.5,5.5,0,0,0,40,37.8a8.8,8.8,0,0,0-.3,2.4c0,2.3.7,4,1.8,4.9s2.6.9,4.2,0A11.6,11.6,0,0,0,50,40.2a16.7,16.7,0,0,0,1.7-6.9c0,.1,0,.2.1.2a.2.2,0,0,0,.3,0,.2.2,0,0,0,.2-.2l.2-.2a18,18,0,0,1-1.9,7.4A14.7,14.7,0,0,1,45.7,46c-1.9,1.1-3.6,1-4.8,0s-2-2.8-2-5.3a11.1,11.1,0,0,1,.4-2.8,7.6,7.6,0,0,1,1.1-2.2A10.7,10.7,0,0,1,44,33l1.6-1Z"/></g><path class="cls-1" d="M20.7,12.4s19.2-24,40.6-3.7c0,0,5,11.1,16.6,10.6,0,0-9.9,4-24.5-6.1s-19,7.5-19,7.5Z"/><path class="cls-1" d="M48.7,12.2c-21.4,23.4-9.6,44.1-9.6,44.1S21.9,43.7,26.5,16.2C29.2-.1,48.7,12.2,48.7,12.2Z"/><path class="cls-1" d="M34.8,2.7s-14.6,36-1.9,52.6C27,52.3,1.8,23.5,34.8,2.7Z"/></g></g></svg>