<svg xmlns="http://www.w3.org/2000/svg" viewBox="0 0 65.7 106.8"><defs><style>.cls-1{isolation:isolate;}.cls-2{fill:#131111;}</style></defs><g id="Layer_2" data-name="Layer 2"><g id="Layer_4" data-name="Layer 4"><g class="cls-1"><path class="cls-2" d="M31.2.5l9.7,5.7c-1.5-.9-3.5-.8-5.7.5L25.5,1.1C27.7-.2,29.7-.3,31.2.5Z"/><path class="cls-2" d="M12,49,2.4,43.4C.9,42.6,0,40.8,0,38.3l9.7,5.6C9.7,46.4,10.6,48.2,12,49Z"/><polygon class="cls-2" points="9.7 43.9 0 38.3 0 25 9.7 30.6 9.7 43.9"/><polygon class="cls-2" points="17.6 16.9 7.9 11.2 25.5 1.1 35.2 6.7 17.6 16.9"/><path class="cls-2" d="M9.7,30.6,0,25A17.6,17.6,0,0,1,7.9,11.2l9.7,5.7C13.2,19.4,9.7,25.6,9.7,30.6Z"/><path class="cls-2" d="M35.2,6.7c4.4-2.5,8-.5,8,4.6V24.6c0,5.1-3.5,11.2-7.9,13.7L17.7,48.5c-4.4,2.5-8,.5-8-4.6V30.6c0-5,3.5-11.2,7.9-13.7Z"/></g><path class="cls-2" d="M46.1,103.7c-1.1,1.8-2.5,2.7-5.3,3.1s-11.9-6-11.9-11.7l-5-50A10.3,10.3,0,0,1,34.1,34.7h0A10.2,10.2,0,0,1,44.2,45.1L39.5,91.7C39.5,94.5,47.2,102,46.1,103.7Z"/><path class="cls-2" d="M53.1,82.3c-1.1,1.7-2.5,2.7-5.4,3S35.8,79.4,35.8,73.7L30.9,23.6A10.2,10.2,0,0,1,41,13.3h0c5.7,0,24.7,9.7,24.7,15.5L46.5,70.3C46.5,73,54.2,80.6,53.1,82.3Z"/></g></g></svg>